<?xml version="1.0" standalone="no"?>
<!DOCTYPE svg PUBLIC "-//W3C//DTD SVG 1.1//EN" "http://www.w3.org/Graphics/SVG/1.1/DTD/svg11.dtd" >
<svg xmlns="http://www.w3.org/2000/svg" xmlns:xlink="http://www.w3.org/1999/xlink" version="1.1">
<metadata>
Created by FontForge 20170731 at Tue Jan  9 01:53:06 2018
 By ,,,
</metadata>
<defs>
<font id="hungryneighbors-Bold" horiz-adv-x="500" >
  <font-face
    font-family="Hungry Neighbors Bold"
    font-weight="700"
    font-stretch="normal"
    units-per-em="1000"
    panose-1="2 0 5 3 0 0 0 0 0 0"
    ascent="800"
    descent="-200"
    x-height="459"
    cap-height="682"
    bbox="6 -219 942 1198"
    underline-thickness="50"
    underline-position="-200"
    unicode-range="U+000D-201D"
  />
<missing-glyph horiz-adv-x="364"
d="M33 0v666h265v-666h-265zM66 33h199v600h-199v-600z" />
    <glyph glyph-name=".notdef" horiz-adv-x="364"
d="M33 0v666h265v-666h-265zM66 33h199v600h-199v-600z" />
    <glyph glyph-name=".null"
 />
    <glyph glyph-name=".null"
 />
    <glyph glyph-name="nonmarkingreturn" horiz-adv-x="333"
 />
    <glyph glyph-name="CR" unicode="&#xd;"
 />
    <glyph glyph-name="space" unicode=" "
 />
    <glyph glyph-name="exclam" unicode="!" horiz-adv-x="127"
d="M38 115q15 6 26 6q24 0 42 -33q8 -16 8 -26q0 -19 -28 -26q-3 -1 -10 -1q-22 0 -43 17t-21 38q0 14 26 25zM61 787q0 -3 1 -5q2 -4 4 3q1 4 -1 7q-2 1 -3 0t-1 -5zM53 808q5 4 13 4q23 0 35.5 -54.5t12.5 -151.5q0 -34 -1 -53q-2 -98 -7 -106q-2 -3 -4 -79
q-1 -50 -6 -70.5t-18 -20.5q-12 0 -40 20q-25 17 -25 36q0 7 3 11q4 6 4 31q0 17 9 35q10 19 11 176q0 154 6 182q5 26 2 29q-6 4 5 11z" />
    <glyph glyph-name="quotedbl" unicode="&#x22;" horiz-adv-x="337"
d="M87 744q8 26 19 26q30 0 39 -152q0 -4 0.5 -12t0.5 -11q0 -67 -25 -69h-9q-36 0 -36 35v9q1 11 3 85q2 57 8 89zM199 813q5 1 13 1q22 0 39 -23q12 -17 12 -39q0 -3 -4 -59q-9 -115 -15.5 -153.5t-18.5 -48.5q-11 -8 -19 -8q-14 0 -29 29q-10 19 -10 42q0 3 4 63
q7 103 7 125v17q0 32 4 42t17 12z" />
    <glyph glyph-name="numbersign" unicode="#" horiz-adv-x="743"
d="M390 292v132q-17 -8 -38 -18l-38 -19l-2 -61q-2 -40 -2 -49l1 -12q1 0 40 13zM407 590q16 7 28 7h3q10 -2 21 -18.5t14 -34.5q1 -9 13 -9q14 0 65 10q27 6 41 6q23 0 23 -20q0 -11 -20.5 -26.5t-34.5 -16.5q-18 0 -31 -11q-13 -10 -23 -10t-23 -13q-15 -13 -16 -69
q0 -5 -0.5 -14.5t-0.5 -12.5q0 -29 12 -29q8 0 28 9q22 10 113 32q36 9 42 14q8 6 12 1q3 -2 27 -4q13 -1 18.5 -5t8.5 -15q2 -6 2 -18q0 -43 -57 -43q-19 0 -25 -6q-11 -8 -39 -13q-96 -22 -133 -41q-22 -11 -22 -46q0 -3 0.5 -10t0.5 -11q0 -19 -12 -75t-19 -66
q-7 -12 -20 -12q-19 0 -30 24q-6 15 -6 36q0 7 2 31q7 75 7 79q0 12 -6 12q-4 0 -14 -3q-37 -8 -44 -16t-7 -49v-36v-29q0 -55 -11 -64q-9 -6 -18 -6q-20 0 -36 24q-12 16 -12 43q0 17 1 29q1 8 1 22q0 30 -4 30q-12 0 -121 -48q-23 -10 -35 -10q-8 0 -20 5q-18 9 -30 30
q-8 18 -8 21q0 5 10 15q13 15 27 15q18 0 45 10q7 3 14 4.5t10 2t4 -0.5q0 -5 13 6q11 11 29 15q72 15 74 41q3 24 6 63q2 22 2 26q0 21 -11 21q-8 0 -29 -12q-12 -8 -27 -8q-22 0 -47 23q-16 15 -16 24q0 6 3 13q4 12 12 16t33 8q38 5 61 13l24 7l-3 72q0 9 -0.5 22
t-0.5 17q0 20 2 26t8 6h3q35 -3 46 -60q11 -54 16 -54q3 0 12 7q18 10 42 18q23 7 23 17q0 4 -2.5 18t-2.5 21v9q0 16 15 24z" />
    <glyph glyph-name="dollar" unicode="$" horiz-adv-x="424"
d="M97 80q3 5 -5 5t-5 -5q5 -3 10 0zM335 347q0 15 -10 15q-9 0 -20 -10q-11 -8 -11 -29q0 -2 0.5 -7.5t0.5 -9.5q3 -36 13 -39q6 -1 5 1l-1 1v2q0 9 10 31q13 30 13 45zM207 421q-6 53 -14 53t-29 -43q-21 -42 -21 -62q0 -9 8 -9t29 7l32 11zM109 713q4 18 24 18
q25 0 35.5 -8t25.5 -38q18 -38 27 -38q8 0 23 17q15 16 40 28q15 7 22 7t15 -8q9 -7 10 -15.5t8 -14.5q10 -7 10 -16q0 -12 -17 -12t-46 -29q-26 -27 -26 -50q0 -15 13 -78q9 -43 20 -43q7 0 14 9q8 10 16 10q9 0 35 -13q50 -24 53 -97v-8q0 -84 -72 -156l-44 -46l-5 -93
q-5 -93 -8 -93q-5 0 -23 10q-20 11 -28.5 27.5t-9.5 48.5q0 8 -1 18t-1.5 17t-0.5 10q-1 8 -20 4q-44 -12 -88 -12q-41 0 -49 10t-28 21q-21 12 -21 18q0 10 66 11q98 1 131 42q9 13 9 82q0 27 -3 31q-2 2 -28 -6q-13 -4 -25 -4q-13 0 -28 4q-26 7 -40.5 31.5t-14.5 57.5
q0 34 14 63q14 34 14 41q0 10 6 10q7 0 7 6q0 7 28 49q23 34 23 47q0 15 -39 73q-24 37 -24 50q0 5 1 7z" />
    <glyph glyph-name="percent" unicode="%" horiz-adv-x="473"
d="M379 270q-20 10 -42 10q-29 0 -70 -20q-27 -12 -27 -20q0 -4 3 -10q7 -16 7 -30q0 -18 10.5 -49t17.5 -33q2 -1 7 -1q16 0 43.5 15t47.5 35q29 29 29 41q0 3 -2 13q-4 27 -8 35t-16 14zM310 321q25 5 37 5q19 0 51 -15q28 -14 44.5 -39.5t16.5 -53.5q0 -21 -9 -39
q-12 -24 -22 -34t-61 -49q-17 -12 -17 -22q0 -9 -17.5 -18.5t-33.5 -9.5q-18 0 -48 16t-38 30q-17 32 -22.5 52t-7.5 57q-2 34 -2 37q0 14 4 14q3 0 4 -1q6 -2 10 -2q25 0 41 27q20 32 70 45zM127 655q25 28 38 28q9 0 26 -11q31 -18 31 -85v-13q-2 -38 -10 -55t-35 -41
q-44 -38 -74 -38q-18 0 -39 12q-51 31 -51 98q0 24 7 44q5 14 10 17.5t21 3.5h25l-3 -44v-19q0 -27 9 -33q4 -3 10 -3q17 0 38.5 18.5t31.5 42.5q5 13 5 19q0 5 -4 5q-5 0 -15 -12q-16 -21 -31 -21q-9 0 -16 10q-5 8 -5 19q0 24 31 58zM328 792q2 11 6.5 14t17.5 3
q21 0 31 -16q10 -14 10 -46q0 -19 -5 -22q-7 -4 -10 -25q-4 -21 -13 -29q-9 -7 -9 -18q0 -9 -20 -47q-15 -28 -35.5 -70t-35.5 -73t-15 -32q0 -3 -31.5 -73t-37.5 -82q-6 -9 -6 -20q0 -12 -16 -40q-11 -22 -22.5 -67.5t-11.5 -68.5q0 -19 -12 -32.5t-26 -13.5q-11 0 -19 9
q-4 5 -4 29q0 27 4 54.5t10 29.5q5 2 5 11q0 2 -0.5 6.5t-0.5 7.5q0 7 4 11q3 5 15.5 47.5t16.5 47.5q7 7 13 26q20 65 97 224q22 44 22 52q0 7 6 7t6 13t11 18q11 7 7 7q-1 0 2.5 11.5t10.5 30.5q23 56 35 116z" />
    <glyph glyph-name="ampersand" unicode="&#x26;" horiz-adv-x="281"
d="M109 184q0 19 29 19q7 0 11 -1q27 -7 27 -29q0 -17 -10 -48q-16 -56 -16 -63q0 -11 -22 -16q-5 -1 -12 -1q-14 0 -26 12q-16 14 -16 26q0 13 12.5 52t16.5 39q6 0 6 10zM196 638q11 7 19 7q7 0 22 -7q23 -10 23 -26q0 -5 -3 -8q-3 -6 -48 -27q-42 -19 -61 -40l-18 -19
l23 -14q30 -19 30 -29q0 -1 -0.5 -2.5t-0.5 -2.5q-9 -39 -18 -39q-5 0 -34 -45q-20 -31 -20 -42q0 -3 2 -3q14 0 113 56q23 12 28 12t10 -5t5 -11q0 -27 -94 -90q-76 -50 -107 -50q-22 0 -39 22q-16 20 -16 42q0 25 20 46q21 23 21 32q0 8 6 8q5 0 18 29q8 21 8 26t-5 7
q-14 4 -29 21.5t-15 28.5q0 1 0.5 2t0.5 2q5 10 19 23t21 14q3 0 55 37q47 36 64 45zM125 849q10 22 23 22q12 0 21 -19t10 -50q0 -18 -4 -59q-3 -29 -3 -31q0 -11 -14 -11q-20 0 -33 19q-11 16 -11 60t11 69z" />
    <glyph glyph-name="quotesingle" unicode="'" horiz-adv-x="123"
d="M63 712q24 11 33 11h1q6 0 10 -8.5t4 -19.5q0 -4 -2 -12q-6 -19 -15.5 -92.5t-11.5 -123.5q-1 -21 -4.5 -26.5t-14.5 -7.5h-2q-14 0 -32 12q-11 9 -14 19.5t-3 41.5q0 52 18 150q6 33 10.5 41t22.5 15z" />
    <glyph glyph-name="parenleft" unicode="(" horiz-adv-x="338"
d="M240 815q6 2 17 2q18 0 28 -9t10 -24q0 -21 -18 -40q-20 -21 -48.5 -63t-28.5 -50t-16 -31q-36 -50 -69 -174q-19 -69 -19 -120q0 -62 31 -123q26 -55 34 -55q7 0 7 -13q1 -20 42.5 -58.5t61.5 -38.5h2l2 1l1 1h2q11 0 24 -19q23 -32 23 -62q0 -19 -10 -30.5t-28 -11.5
q-15 0 -33.5 13.5t-59.5 56.5q-60 61 -82.5 88.5t-48.5 72.5q-35 62 -43.5 88t-8.5 72q1 103 31.5 207.5t81.5 178.5q27 40 27 44q1 12 38 53t50 44z" />
    <glyph glyph-name="parenright" unicode=")" horiz-adv-x="377"
d="M26 827q2 1 5 1.5t5 1t4 0.5l2 1h2q12 0 42 -24t60 -57q58 -67 91 -121l11 -16q12 -16 22 -32t10 -21l-1 -2q-4 -4 1 -15q6 -9 8 -19t16 -31q14 -23 18 -43q4 -23 9 -29q9 -11 21 -64t12 -82q0 -52 -24 -106.5t-64 -96.5q-9 -11 -27 -35t-31 -39q-22 -24 -22 -32
q0 -6 -15 -21q-17 -18 -54 -18q-45 0 -50 22q-1 4 -1 12q0 36 24 45q24 8 77 70.5t78 112.5q18 38 18 116q0 28 -5 32q-7 5 -29 102q-4 20 -20 54q-13 26 -13 39v2l1 2q3 7 -1 10q-3 1 -30 39q-68 103 -127 158q-37 36 -37 56q0 25 14 28z" />
    <glyph glyph-name="asterisk" unicode="*" horiz-adv-x="355"
d="M295 838q4 1 11 1q37 0 37 -45q0 -12 -4 -11l-2 2q-2 2 -5 2q-6 0 -19.5 -11.5t-17.5 -11.5q-7 0 -38 -28.5t-31 -35.5q0 -8 9 -8q8 0 17 -14t2 -27q-8 -14 -27 -14q-11 0 -29 8q-9 5 -16 5q-11 0 -36 -31q-16 -20 -31 -38q-13 -17 -24 -51q-3 -10 -21 -10q-15 0 -21 8
q-5 5 -5 12q0 10 14 41q11 27 15 41q3 15 17 29q11 11 11 17l-4 14q-8 19 -24 20q-26 4 -44.5 16.5t-18.5 24.5q0 7 8 13q12 8 35 8h24l-11 19q-12 17 -8 28q2 9 12 9q2 0 16 -2q13 -2 19 -4.5t8 -4.5t6 -9.5t9 -13.5q13 -21 36 -21q11 0 23 6q67 31 82 49q13 16 26 18z" />
    <glyph glyph-name="plus" unicode="+" horiz-adv-x="486"
d="M188 307q-78 -21 -105 -21q-35 0 -49.5 9.5t-20.5 36.5q-1 4 -1 10q0 11 18 22q12 8 24 8q9 0 19 -3q12 -2 20 -2q19 0 48 7q46 11 50 13q2 2 2 12q0 21 -6 61.5t-13 60.5q-10 30 -10 38q0 13 15 26q10 10 15 10q2 0 11 -7q10 -10 19 -10q6 0 12 -22q2 -15 14 -55t14 -58
q2 -10 3 -14t4.5 -7t9.5 -3q8 0 76 19q41 12 67 12q35 0 41 -20q7 -21 7 -36q0 -12 -5 -16q-15 -12 -42 -12q-9 0 -14 3q-4 4 -10 4q-10 0 -78 -24l-38 -13v-227l-27 1q-32 1 -42 18.5t-10 72.5q0 106 -18 106z" />
    <glyph glyph-name="comma" unicode="," horiz-adv-x="152"
d="M58 114q-3 3 -4 5.5t0 4t3 1.5q9 0 12 -7t16 -7q17 -1 34.5 -22t20.5 -44q1 -5 1 -13q0 -22 -24 -69q-42 -84 -64 -84q-8 0 -16 14q-7 14 -17 14t-10 10q0 12 17 37q17 24 17 37q0 12 7 19q13 13 13 70q0 26 -6 34z" />
    <glyph glyph-name="hyphen" unicode="-" horiz-adv-x="345"
d="M12 248q3 9 16.5 11t68.5 2h58q28 0 69 -0.5t61 -1t24 -0.5q9 -1 12.5 -7t8.5 -26q4 -24 4 -27q0 -9 -4 -15q-7 -9 -41 -9q-26 0 -30 7q-3 7 -48 7q-31 0 -91.5 6t-84.5 11q-11 2 -18 11t-7 20q0 3 2 11z" />
    <glyph glyph-name="period" unicode="." horiz-adv-x="103"
d="M15 4q10 10 25 10q16 0 31 -11t22 -28q2 -6 2 -9q0 -10 -9 -16.5t-22 -6.5q-25 0 -40 18q-17 17 -17 28q0 7 8 15z" />
    <glyph glyph-name="slash" unicode="/" horiz-adv-x="328"
d="M81 144q0 3 -3 3q-4 0 -4 -3q0 -4 4 -4q3 0 3 4zM260 610q11 16 24 16t24 -17q7 -14 7 -21q0 -10 -12 -53q-17 -58 -25 -66q-9 -9 -9 -18q0 -10 -20 -61q-22 -56 -25 -75q-4 -16 -21.5 -53t-20.5 -52q-4 -20 -16.5 -57t-20.5 -52q-1 -2 -4.5 -9.5t-7 -16t-6.5 -15.5
q-26 -63 -39.5 -85t-26.5 -22q-16 0 -32.5 14.5t-16.5 28.5q0 12 6 12q4 0 14.5 21t11.5 33q2 10 16 33q15 24 8 28q-2 2 -2 7q0 12 8 33.5t13 21.5h1h1q7 0 18 26.5t12 46.5q1 25 13 51t22 26t7 9l-1 2v2q0 13 10 26q12 18 43 107q17 46 21 55q4 7 11.5 36t14.5 38z" />
    <glyph glyph-name="zero" unicode="0" horiz-adv-x="448"
d="M98 163q0 3 -3 3q-2 0 -2 -3t2 -3q3 0 3 3zM349 505q-4 39 -12 39q-2 0 -2 -8q0 -10 -5 -10q-8 0 -46 -101q-23 -63 -44 -82q-4 -4 -11 -30q-7 -24 -15 -35q-9 -11 -12 -24q-1 -5 -17 -31.5t-16 -32.5q0 -5 -13 -20q-28 -30 -28 -43q0 -3 10 -3q23 0 45 9q14 6 50.5 40
t36.5 41t10 17q14 16 25 39q5 10 10 19t6.5 11.5t4.5 9.5t5.5 15t8.5 27q12 45 12 92q0 26 -3 61zM277 719q-8 7 -20 7q-24 0 -32 -29q-4 -12 -9 -12t-5 -6t-12 -22q-11 -17 -13 -27q-2 -11 -13 -13q-10 -2 -12 -4q-6 -8 -23 -45t-22 -51q-3 -9 -14.5 -41t-17.5 -62
q-13 -59 -13 -131q0 -110 21 -110q8 0 15 20q8 18 21 45q12 24 12 28q0 2 10 18.5t10 20.5q0 8 6 10q10 5 13 25q4 20 9 24q5 3 5 11t16 33q15 24 15 36q0 16 12 26q11 8 11 20q0 7 16 43q18 38 18 48t6 10q5 0 9 20t12 27q9 7 9 20q0 10 -13.5 30.5t-26.5 30.5zM295 768
q4 0 23.5 -23.5t22.5 -23.5q4 0 13.5 24t9.5 34q0 12 8 14q9 3 22 3q18 0 30 -5q12 -7 12 -32q0 -15 -6 -18q-5 -3 -10.5 -12t-11 -20.5t-7.5 -14.5q-23 -43 -23 -64q0 -14 4 -30q10 -50 12 -68q7 -44 11 -55q4 -12 4 -37q0 -49 -9 -56q-4 -1 -12 -38.5t-9 -52.5
q0 -6 -7 -11q-7 -4 -11 -26q-3 -16 -8.5 -28.5t-10.5 -19.5t-16 -20.5t-17 -21.5q-25 -32 -51 -52q-36 -28 -43 -35q-13 -13 -57 -13q-18 0 -18 5q0 7 -10 5q-9 -2 -18 3q-3 3 -7 3q-6 0 -12.5 -8.5t-21.5 -34.5q-22 -39 -36 -39q-8 0 -17 9q-6 6 -6 10.5t7 15.5
q11 17 10 20q-2 4 4 4t6 12t6 12q9 0 9 27q0 15 -5 23q-16 25 -26 68t-10 83v9q2 53 13 115.5t20 73.5q3 4 6 17.5t6 17.5q1 1 6.5 20t12 36.5t8.5 17.5q3 0 16 26.5t17 26.5q7 0 17 14.5t11 24.5q0 13 5 16q4 3 18 32q21 45 45 54q6 2 15 2q17 0 36.5 -4.5t20.5 -8.5
q2 -6 9 -6z" />
    <glyph glyph-name="one" unicode="1" horiz-adv-x="516"
d="M263 753q9 4 24 4q27 0 44 -13l19 -15l-3 -74q-9 -218 -28 -289q-5 -19 -16.5 -64.5t-20 -76.5t-13.5 -45q-8 -19 -8 -26t8 -7q10 0 40 12q73 26 92 32t44 8q7 1 19 1q20 0 29 -8q10 -7 10 -10.5t-9 -13.5q-12 -14 -24 -14q-13 0 -21 -10q-9 -11 -17 -11t-52.5 -21.5
t-63.5 -34.5q-16 -13 -32 -13q-11 0 -40.5 -17.5t-37.5 -19.5q-7 -1 -30 -7t-42 -9t-37 -3q-23 0 -33 4t-27 21q-25 25 -25 41q0 8 8 16q11 8 73 10q64 2 73 11q8 8 17 49q13 62 23 74q8 12 11 33q2 23 13 49t11 59q0 35 4 38q5 5 12 139l3 68l-15 -10q-19 -14 -39 -25
q-18 -9 -23 -9t-16 8q-14 11 -24 28q-6 11 -5 15.5t9 10.5q11 8 49 40.5t49 43.5q9 9 9 19t9 12z" />
    <glyph glyph-name="two" unicode="2" horiz-adv-x="469"
d="M70 208q0 4 12.5 22.5t12.5 21.5q0 6 40.5 68t57.5 84q20 26 33 55q14 29 23 32q9 4 9 11q0 9 14 34.5t21 29.5q8 3 8 14q0 8 15 29q14 19 24.5 48.5t10.5 46.5q0 10 -5 10q-26 0 -99.5 -29t-110.5 -54l-17 -13l-15 18q-11 16 -11 19t7 17q11 19 82 53t125 46
q55 11 73 11q20 0 38 -9q11 -5 14.5 -10.5t3.5 -17.5v-7q-1 -47 -53 -157q-19 -42 -25 -42q-5 0 -22 -33q-13 -26 -44 -68q-27 -35 -35 -50q-3 -5 -16 -21t-23 -32t-10 -26q0 -13 -15 -23q-14 -9 -22 -27q-5 -15 -23 -43l-16 -27l27 9q7 2 72.5 22t79.5 22q87 16 89 18
q1 1 25 -6q24 -8 29 -28q2 -6 2 -13q0 -9 -15 -21q-17 -15 -27 -11q-7 3 -16 3q-12 0 -53 -7q-105 -17 -254 -101q-19 -10 -25 -10q-3 0 -16 8q-18 14 -27 31l-11 19l29 37q29 36 29 47z" />
    <glyph glyph-name="three" unicode="3" horiz-adv-x="387"
d="M159 570q3 0 18 19t17 19q5 0 21 16t27 32l14 20h-15q-13 0 -52.5 -12.5t-59.5 -22.5q-15 -8 -30 -8q-32 0 -40 31q-2 8 -2 11q0 9 9 15t33 14q35 11 41 17q5 4 50 13q52 10 90 10q36 0 51 -8q22 -12 22 -36q0 -41 -45 -67q-21 -14 -18 -19q3 -6 -6 -6q-8 0 -42 -33
t-38 -45q-3 -10 -22 -18q-16 -7 -40 -31t-34 -43q-8 -18 -3 -30q4 -8 18.5 -11t78.5 -11q33 -5 83 -26q20 -9 24 -9q8 0 28.5 -18.5t27.5 -31.5q9 -17 9 -37q0 -51 -55 -106q-23 -23 -37.5 -31.5t-45.5 -17.5q-19 -6 -40 -10t-31 -5t-40.5 -4t-38.5 -4q-20 -2 -23 -2
q-14 0 -31 14q-20 17 -20 29q0 7 5 9q5 3 77 5q48 1 65 4t43 17q39 20 68 53t29 57q0 14 -13 28t-27 14q-15 0 -33 7q-17 8 -78 15q-63 8 -92 26.5t-29 56.5q0 14 15.5 40.5t34.5 44.5q70 66 82 66z" />
    <glyph glyph-name="four" unicode="4" horiz-adv-x="492"
d="M421 763h5q15 0 33 -17q19 -19 19 -39q0 -17 -10 -41q-8 -18 -14 -49q-10 -52 -41 -149.5t-39 -100.5q-6 -2 -6 -15t-12 -37q-13 -25 -11 -29q0 -2 -11 -15q-12 -12 -12 -24q0 -15 -20 -62q-5 -11 -18 -66q-8 -38 -12.5 -46t-20.5 -9h-6q-24 0 -41 16t-17 37q0 13 7 23
q9 14 9 22q0 12 39.5 105.5t46.5 98.5q5 3 7 20q2 11 -0.5 13.5t-13.5 0.5q-4 0 -14.5 -0.5t-14.5 -1.5q-105 -6 -137 -25q-22 -13 -46 -13q-25 0 -41.5 13t-16.5 36t14 61.5t32 64.5q20 29 20 41q0 13 9 20q7 6 13 27q4 21 16 37q11 17 19 60q2 12 5.5 15.5t12.5 3.5h6
q18 -1 37 -8.5t23 -14.5q4 -6 -1 -18q-2 -3 -21.5 -57.5t-25.5 -63.5q-37 -56 -53 -101q-5 -13 -3.5 -14.5t14.5 0.5q12 2 37 6t52.5 8t31.5 5q20 2 34 6q18 6 29 -2q7 -5 10 -5q10 0 28 68q11 38 23 75q15 39 15 66v17v14q0 23 6.5 31.5t25.5 11.5z" />
    <glyph glyph-name="five" unicode="5" horiz-adv-x="418"
d="M287 810q5 8 25 8t29 -8q9 -6 13 -27q1 -5 1 -12q0 -10 -14 -18q-17 -12 -21 -8q-1 1 -4 1q-10 0 -28 -6q-28 -9 -65 -13t-40 -15q-1 -3 -1 -38q0 -47 1 -75q3 -84 3 -159v-57l24 5q30 7 47 14q18 7 44 7q35 0 58 -12q21 -11 33.5 -40t12.5 -65q0 -38 -9 -49
q-7 -11 -11 -26q-3 -11 -37 -49t-58 -56q-17 -13 -28 -13q-9 0 -16 -9q-6 -7 -35 -15q-28 -7 -31 -12q-5 -7 -49 -7q-8 0 -10 1q-5 2 -21 5.5t-29.5 7.5t-19.5 8q-8 7 -19 11q-6 2 -13 10.5t-7 13.5q0 3 3 3q5 0 7 -10q0 -9 3 -1l2 5q5 13 16 9q39 -16 69 -16q18 0 33 4
q121 32 166 126q20 42 20 79q0 15 -4 23q-3 8 -21 8q-19 0 -34 -8q-8 -4 -51.5 -16t-51.5 -16q-16 -6 -27 -4q-12 1 -26 18t-14 29q0 11 5.5 54.5t5.5 59.5q0 3 -0.5 7.5t-0.5 5.5q-1 5 -3 120q-2 112 -8 135q-5 22 -5 34q0 24 16 30q12 4 20 4q17 0 22 -7q3 -5 22 -5
q28 0 65.5 8.5t45.5 17.5z" />
    <glyph glyph-name="six" unicode="6" horiz-adv-x="423"
d="M331 296q-4 10 -19 10q-16 0 -34 -9q-26 -13 -65 -48t-57 -60q-22 -32 -33 -37q-11 -6 -2 -17q8 -10 26.5 -18t33.5 -8q6 0 9 1q38 8 80 40.5t55 63.5q10 25 10 54q0 19 -4 28zM182 732q17 3 25 3q10 0 21 -12q11 -13 11 -27q0 -20 -23 -54q-50 -72 -90 -193
q-24 -70 -27 -73q-7 -6 -13.5 -26t-6.5 -37q0 -2 0.5 -4.5t0.5 -3.5q0 -2 0.5 -7t0.5 -8q0 -15 -3 -24q-6 -16 0 -29q4 -7 7 -7q7 0 76 73q12 13 19 20q22 22 29 22l2 -1q6 -4 6 5q0 7 5 4q3 -4 18 7q14 14 60 14q25 0 43 -6q31 -10 49 -41.5t18 -71.5q0 -35 -15 -68
q-16 -34 -52.5 -71t-62.5 -48q-50 -21 -88 -21q-27 0 -53 10q-60 22 -93.5 81.5t-33.5 141.5q0 30 4 55q13 104 29 120q5 7 5 20q0 12 7 12t7 6q-1 3 -1 11q0 23 10 33q11 13 12 27q2 17 9 21q6 4 6 11q1 16 28 57q20 34 20 47q0 25 34 32z" />
    <glyph glyph-name="seven" unicode="7" horiz-adv-x="633"
d="M327 723q19 1 42.5 7t36.5 6q10 0 24 -3q6 -1 14.5 -2.5t13.5 -2.5t6 -1q5 0 19 -21q10 -14 10 -22q0 -7 -4 -14q-9 -16 -13 -19t-40 -83q-62 -135 -68 -162q-6 -20 -11 -23q-7 -4 -7 -7q0 -4 14 -4q42 0 102 21q111 41 140 41q9 0 9 -5q0 -4 4 -16q0 -1 1 -3
q0 -12 -25.5 -34t-60.5 -38q-29 -13 -71 -24.5t-61 -11.5h-2h-2q-8 0 -48 -10q-39 -11 -43 -26q-2 -8 -21.5 -74t-21.5 -74q-6 -29 -14 -39.5t-26 -13.5q-16 -2 -21 -2q-39 0 -39 41q0 4 2 20t15.5 53t24.5 59q6 12 6 22q0 8 -4 8q-2 0 -3 -1q-6 -4 -80 -4h-29
q-32 0 -42.5 3t-23.5 16q-19 19 -18 41l2 21h63q57 0 119 6l55 6l18 42q68 162 81 201q9 26 16 26q6 0 6 10t-39 10h-14q-36 0 -108 -5q-15 -2 -42 -2q-22 0 -26 2q-8 4 -21.5 25t-13.5 30q0 2 1 3q2 2 44 6q134 17 174 21z" />
    <glyph glyph-name="eight" unicode="8" horiz-adv-x="433"
d="M255 417q-31 7 -42 7q-29 -4 -41 -16t-43 -72q-36 -69 -36 -113q0 -10 11 -36l12 -28l36 4q71 8 129.5 56.5t63.5 104.5q1 7 1 17q0 11 -5 18t-22 23q-30 27 -64 35zM199 669q-12 18 -26 24q-7 3 -14 3q-11 0 -18 -6t-7 -15v-5q0 -12 -22 -34q-23 -22 -23 -46
q0 -52 42 -52q19 0 40 11q41 21 41 74q0 26 -13 46zM102 744q16 18 42 18q36 0 73.5 -33.5t53.5 -82.5q11 -32 11 -63q0 -68 -56 -93l-21 -8l34 -4q71 -11 126 -63t55 -110q0 -50 -53 -99q-27 -25 -27 -35q0 -4 -1.5 -6.5t-3.5 -1.5h-1q-4 0 -32.5 -22t-35.5 -22h-1h-3
q-12 0 -41 -12q-27 -11 -53 -11q-14 0 -23 1q-35 4 -61.5 14.5t-30.5 23.5q-4 11 -13 15q-9 3 -18.5 35t-9.5 57q0 8 1 11q11 63 20 79q37 69 40 88q1 9 20 32l17 21l-26 11q-18 8 -36.5 29t-22.5 37q0 2 -1 9.5t-2.5 18.5t-2.5 20t-1 22q0 20 18 48q22 34 35 35q15 2 15 13
q0 12 16 28z" />
    <glyph glyph-name="nine" unicode="9" horiz-adv-x="393"
d="M242 739q16 6 32 6q21 0 48 -12q26 -12 26 -28q0 -13 -17 -25.5t-45 -17.5q-41 -9 -57 -19q-13 -10 -23 -10q-16 0 -55.5 -39t-44.5 -60l-2 -10t-1 -8t1 -4h2q9 0 44 5q44 9 79 34q28 21 36.5 33.5t13.5 35.5q7 30 41 30q12 0 26 -7q34 -17 34 -42q0 -11 -2 -18
q-19 -92 -19 -187q0 -71 9 -179q5 -70 5 -87q0 -33 -17 -43q-10 -6 -21 -6q-34 0 -48 43q-8 23 -17 118t-9 156v7v11q0 42 -6 42t-38 -15q-29 -14 -69 -14q-69 0 -101 38q-12 13 -23 42.5t-11 45.5q0 21 52.5 71.5t78.5 61.5q30 12 30 19q0 6 14 6q12 0 21 9q6 6 33 17z" />
    <glyph glyph-name="colon" unicode=":" horiz-adv-x="132"
d="M49 252q7 6 14 6q6 0 21 -6q13 -4 24.5 -29t11.5 -45q0 -11 -4 -15q-8 -9 -23 -9q-33 0 -49 23q-4 5 -4 25q0 43 9 50zM20 442q12 19 20 19q11 0 29 -20t18 -31q0 -15 -24 -15h-8q-44 2 -44 25q0 10 9 22z" />
    <glyph glyph-name="semicolon" unicode=";" horiz-adv-x="189"
d="M81 138q3 4 11 4q24 0 42 -20q13 -13 17 -36q3 -20 15 -47q11 -28 11 -49q0 -32 -23 -58q-22 -24 -51 -25h-5q-25 0 -44 7q-9 4 -15 5.5t-8 1t-5 2t-9 10.5q-6 9 -6 12q0 5 16 8q48 9 65 40q7 11 7 23q0 13 -9 55q-10 45 -10 63v2zM50 359v11q0 40 9 40q3 0 4 -1
q1 0 5.5 -2t11.5 -5.5t14 -6.5q26 -11 26 -28q0 -13 4 -49q3 -15 3 -22t-3.5 -8.5t-15.5 -1.5q-19 0 -40 15q-12 10 -15 19.5t-3 38.5z" />
    <glyph glyph-name="less" unicode="&#x3c;" horiz-adv-x="451"
d="M250 538q4 10 8 10q6 0 32 -17q25 -17 25 -27q0 -2 -2 -12q-8 -38 -62.5 -135.5t-77.5 -115.5q-9 -6 -19.5 -29t-10.5 -33q0 -4 2 -4q7 0 63 18q45 16 84 16q48 0 94 -24q52 -27 52 -46q0 -16 -37 -27q-18 -4 -21 -4q-9 0 -31 11q-23 13 -47 13q-22 0 -53 -12
q-25 -11 -35 -11l-2 1q-4 2 -12 -8t-18 -10q-6 0 -30 -11q-28 -13 -72 -13q-3 0 -9.5 0.5t-10.5 0.5q-18 2 -33 17t-15 33q0 17 13 44.5t30 46.5q15 19 26 37q0 1 34 54.5t64.5 102.5t33.5 56q29 49 37 78z" />
    <glyph glyph-name="equal" unicode="=" horiz-adv-x="502"
d="M19 278q8 8 72 8q59 0 94 -7q53 -10 130 -10q44 0 57 5q8 3 14 3q16 0 16 -21q0 -9 -3 -21q-7 -25 -25.5 -35t-62.5 -10q-12 0 -46 2q-75 4 -80 7q-8 5 -43 5q-22 0 -58 -4q-10 -2 -23 -2q-15 0 -31 16q-19 19 -19 42q0 14 8 22zM365 459q21 4 33 4q6 0 11.5 -1t15 -2.5
t17.5 -2.5q28 -6 39 -19q9 -11 9 -17q0 -19 -56 -25q-101 -12 -117 -16q-19 -5 -99.5 -18t-94.5 -13q-21 0 -26 9q-3 7 -18 14q-12 4 -12 21q0 10 4.5 14.5t18.5 9.5q16 4 67 12t69 9q39 0 139 21z" />
    <glyph glyph-name="greater" unicode="&#x3e;" horiz-adv-x="378"
d="M94 120q0 3 -3 3t-3 -3q0 -2 3 -2t3 2zM260 230q0 -4 -23.5 -30t-23.5 -30t-24 -30q-19 -19 -38 -45q-14 -23 -19 -26q-7 -3 -7 -11t-5 -8q-4 0 -20 -14q-10 -10 -23 -10q-14 0 -26 14q-6 8 -6 11q0 5 10 24q12 22 33.5 47.5t33.5 44.5q13 20 29 36q7 4 34 45
q28 42 53 72l28 33l-20 7q-10 5 -58 27.5t-71 32.5q-52 25 -93 79q-12 17 -12 20q0 4 5 9q5 8 18 8q20 0 45 -22q12 -10 41 -26t64.5 -34t43.5 -22q24 -12 31 -12q4 0 17 -5t26.5 -11t16.5 -7q12 -4 28 -18q17 -15 17 -31q0 -21 -27 -39q-15 -11 -46.5 -42.5t-31.5 -36.5z
" />
    <glyph glyph-name="question" unicode="?" horiz-adv-x="375"
d="M93 108q-1 6 -1 14q0 9 4.5 11t18.5 2q32 0 48 -7.5t31 -29.5q15 -23 15 -35q0 -21 -42 -21q-65 0 -74 66zM107 747q74 8 98 8q23 0 28 -6q7 -9 21 -9q17 0 54 -16q54 -23 54 -69q0 -6 -2 -20q-5 -22 -48.5 -68.5t-101.5 -89.5q-70 -53 -70 -85q0 -19 21 -43
q34 -37 34 -74q0 -19 -11 -30.5t-30 -11.5q-2 0 -5 0.5t-4 0.5q-20 3 -39.5 23t-19.5 38q0 11 -16 51q-24 56 -24 103q0 39 19 39q11 0 41 26q29 23 33 23h1h1q8 0 65 57t57 66q0 8 -34.5 14t-72.5 6q-37 0 -53 -5q-16 -4 -26 -4q-8 0 -8 4t-5 4q-2 0 -6.5 -1t-6.5 -1
q-7 0 -7 8q0 11 -19 17q-12 3 -13 5.5t7 6.5q14 8 20 4t1 5q-2 4 -2 6q0 9 69 18z" />
    <glyph glyph-name="at" unicode="@" horiz-adv-x="552"
d="M231 629q21 10 36 10q5 0 21 -2q32 -6 51 -20t42 -48q36 -54 45 -78t12 -73l3 -59l-32 -33q-49 -51 -95 -51h-3q-24 0 -31 1q-12 0 -20 -12q-8 -11 -28 -11q-19 0 -38.5 10.5t-27.5 26.5q-8 18 -8 51q0 42 11 70q10 26 16 26q5 0 5 14q0 7 2 8.5t8 0.5q10 -3 18 3
q4 3 9 3q12 0 24 -12.5t12 -25.5q0 -5 -1 -7v-1l-1 -2q0 -12 20 -12h4q6 2 24 -18q16 -16 27 -16q9 0 25 16q11 11 11 46q0 48 -18 84q-29 56 -61 56t-83 -53q-50 -52 -105 -194q-24 -65 -24 -99q0 -7 2 -29q1 -6 18 -23t30 -24q16 -9 65 -17q23 -4 48 -4q68 0 167 51
q21 10 42.5 39t26.5 53q3 19 20 28q10 4 12 4q6 0 16 -12q11 -14 11 -30q0 -20 -18 -59q-39 -88 -156 -123q-29 -7 -44 -14q-15 -6 -48 -6q-83 0 -105 20q-12 6 -20 6q-15 0 -15 4q0 6 -25 17q-23 10 -49 35.5t-34 45.5q-13 29 -13 69q0 23 6 35q2 5 4 9t2 6.5t-1 2.5
q-3 0 -1 4q1 1 3 2q7 4 11 22q5 22 13 33q9 14 9 33q0 20 10 23q3 1 4 4t0.5 5t0.5 4t5 2q7 0 25 35.5t18 48.5q0 10 18 21q15 9 41 39q20 26 51 41z" />
    <glyph glyph-name="A" unicode="A" horiz-adv-x="488"
d="M396 29q-3 5 5 5t5 -5q-5 -3 -10 0zM334 595q-11 43 -16 43t-14 -20t-11 -36q-1 -9 -20.5 -62t-20.5 -59q-17 -66 -25 -66q-6 0 -6 -12q1 -10 -5 -29q-3 -11 -1 -13t13 1q8 3 28.5 8t37.5 10t26 11q18 10 30 10q11 0 11 41q0 12 -1 17q-3 12 -8 60q-6 54 -18 96zM271 759
q12 4 21 4q24 0 35 -11q13 -13 30 -50q4 -9 9 -20.5t8.5 -19.5t4.5 -10q11 -21 29.5 -101t23.5 -132q10 -76 14 -139q6 -91 7 -94q3 -5 6 -31q7 -36 12 -54q4 -15 4 -28q0 -25 -26 -25q-16 0 -37.5 18.5t-21.5 31.5v2q1 1 1 2q3 8 -3 20q-10 22 -10 83q0 24 4 27q6 4 2 9
q-3 10 -5 45q-1 34 -5 34q-3 0 -7 -4q-19 -17 -68 -35.5t-88 -23.5q-26 -4 -35 -13q-13 -15 -60 -105q-30 -57 -50 -67q-16 -7 -19 -7q-7 0 -19 13q-16 18 -16 32q0 7 6 7q7 0 22 33q14 32 24 40q9 5 20 37l11 29l-26 12q-19 8 -31 23.5t-12 31.5q0 5 1 7q2 11 36 11h23h26
q22 0 27.5 3t10.5 15q2 4 4 10t4.5 13t3.5 9q14 36 38 113q22 71 28 73q8 3 13 38q7 33 13 48q17 34 17 61q0 10 -2 14q-6 17 2 21z" />
    <glyph glyph-name="B" unicode="B" horiz-adv-x="757"
d="M288 683q2 2 47 2q37 0 58 -1q66 -1 88 -5t42 -15q31 -21 39 -38q6 -12 6 -20q0 -10 -11 -32q-12 -26 -61 -75q-37 -37 -37 -45q0 -2 1 -2q9 -3 68 -9q74 -6 119.5 -21.5t79.5 -46.5q17 -15 17 -51q0 -24 -10 -49q-7 -16 -52 -53t-58 -37q-9 0 -19 -12q-9 -11 -25 -11
q-13 0 -39 -13q-26 -12 -31 -12h-1q-5 3 -26 -5q-16 -7 -105 -17q-85 -7 -93 -15q-4 -4 -14 -4q-12 0 -23 6.5t-11 13.5l1 1v2q4 12 -5 12q-7 0 1 11q12 13 128 32q31 4 35 12q4 6 42 10q40 4 91 30.5t80 56.5q37 39 37 55q0 14 -25.5 20t-88.5 9q-132 7 -168 38
q-11 11 -20 11q-8 0 -20.5 19t-12.5 30t23.5 31t36.5 20q12 0 36.5 21t38.5 43l13 21h-75q-43 0 -103 -4.5t-103.5 -10t-43.5 -9.5q0 -5 11 -55q10 -43 23 -141q12 -91 21 -110q17 -43 17 -144q0 -58 -9 -67q-5 -5 -12 -5q-19 0 -42 30q-17 22 -21 84q-2 37 -4.5 52.5
t-6.5 33.5t-8 48q-2 23 -31 206q-5 38 -11 52.5t-24 30.5q-26 23 -26 39q0 20 35 29q36 10 134 14q103 5 107 9z" />
    <glyph glyph-name="C" unicode="C" horiz-adv-x="616"
d="M362 740q6 5 17 5q9 0 15 -2q18 -5 21 -5q2 0 2 -20q0 -14 -7 -24t-31 -32q-32 -29 -90 -96.5t-95 -119.5q-28 -38 -61 -98.5t-44 -94.5q-15 -41 -15 -64t16 -32.5t51 -10.5h7q53 0 136.5 17.5t151.5 42.5q55 21 66 24q15 5 33 18q22 14 26 14q5 0 21 -14q21 -18 21 -45
q0 -17 -9 -24q-7 -7 -74 -27.5t-81 -20.5q-7 0 -25 -9q-10 -5 -50 -12t-49 -11q-13 -7 -66.5 -16t-81.5 -9h-3q-49 1 -86 22.5t-54 59.5q-12 26 -12 46q0 22 15 69q18 58 24 58q2 0 5 -5q8 -10 3 3q-1 3 -1 8q0 21 67 126q17 27 24 27q6 0 3 5q-4 4 8 18q3 4 16 21t19 25
q23 30 88.5 102t78.5 81z" />
    <glyph glyph-name="D" unicode="D" horiz-adv-x="727"
d="M397 603q-74 7 -101 7q-25 0 -57 -8q-22 -5 -40 -5q-10 0 -14 1q-8 2 -14 2q-22 0 -45 -9.5t-25 -20.5l-1 -2v-3q0 -14 17 -54q49 -109 96 -278q8 -29 12.5 -37.5t13.5 -8.5q2 0 16 2q25 5 79 29q52 26 60 26q11 0 24 15q16 16 49 42q35 26 39 31q37 50 59 75
q12 12 33.5 61t21.5 63q0 13 -16 21t-89 33q-29 10 -118 18zM303 712q1 1 13 1q59 0 176 -19q81 -14 123 -40q37 -22 50.5 -37t33.5 -56q15 -27 15 -45q0 -12 -6 -38q-16 -70 -37.5 -111t-61.5 -80q-53 -51 -81 -66q-31 -16 -31 -23t-10 -7q-12 0 -24 -12q-11 -8 -38.5 -20
t-67.5 -27t-44 -17q-31 -13 -52 -18q-24 -4 -37 -17q-10 -9 -18 -9q-9 0 -29 10q-28 13 -37 30t-14 63q-15 139 -40 197l-18 43q-18 42 -31 78t-13 49q0 19 -8 51q-4 12 -4 21q0 10 13 16q17 9 17 26q0 27 32 36t142 14q86 6 87 7z" />
    <glyph glyph-name="E" unicode="E" horiz-adv-x="535"
d="M468 774q14 7 24 7q13 0 22 -15q7 -12 7 -16t-7 -16q-11 -16 -36 -23t-29 -13q-6 -9 -54 -19t-84 -10h-48l-13 -45q-24 -81 -42 -130q-7 -22 -11 -42q-1 -4 -1 -10q0 -18 21 -18q10 0 35 5q112 24 122 30q2 1 7 1q12 0 27.5 -6.5t15.5 -12.5q0 -9 8 -11q5 -2 5 -6
q0 -9 -16 -22t-38 -20q-49 -18 -105 -30.5t-84 -12.5h-7l-30 3l-10 -26q-7 -19 -20.5 -59.5t-23.5 -65.5q-16 -41 -16 -51q0 -8 13 -8q22 0 61 19q100 47 197 62q20 2 30 2q41 0 69.5 -14.5t32.5 -38.5v-5q0 -12 -8.5 -20t-21.5 -8q-8 0 -15 3q-17 6 -72 6q-60 0 -72 -6
q-20 -12 -86.5 -41.5t-83.5 -34.5q-18 -5 -30 -5q-33 0 -63 33q-26 27 -26 50q0 36 31 107q25 58 81.5 222t56.5 181q0 12 5 12q9 0 9 23t-9 35q-12 15 -12 32q0 16 12 23q12 6 22 6q14 0 45 -16q27 -14 51 -14q18 0 31 1q78 6 133 28z" />
    <glyph glyph-name="F" unicode="F" horiz-adv-x="633"
d="M425 757q5 5 16 5q33 0 58 -25q15 -15 23 -15q3 0 4 2q2 5 3 -3q1 -5 1 -10q0 -23 -22.5 -41t-47.5 -18q-12 0 -23 6q-4 2 -13 2q-48 0 -234 -41q-55 -13 -55 -19q0 -2 3 -4q24 -17 33 -76q4 -35 8 -39q9 -7 79 -7q51 0 83 5q78 16 163 17q45 0 59.5 -3.5t31.5 -18.5
q25 -22 25 -39q0 -27 -71 -33q-21 -2 -133 -16t-156 -14h-66l4 -34q4 -36 4 -45q0 -10 6 -20q7 -9 12 -56q8 -62 17 -103q2 -8 2 -21q0 -33 -29 -33q-22 0 -30 6q-13 9 -28 39.5t-15 47.5q0 26 -12 124q-3 27 -10.5 90t-10.5 83q-12 100 -16.5 116.5t-19.5 16.5
q-19 0 -30 11q-10 8 -18 26t-8 32v5q8 29 217 68q83 19 136 23q56 5 60 9z" />
    <glyph glyph-name="G" unicode="G" horiz-adv-x="635"
d="M392 814q4 1 12 1q23 0 36 -16q7 -7 7 -18q0 -6 -3 -18q-8 -25 -14.5 -33.5t-20.5 -10.5q-10 -2 -33 -19.5t-28 -26.5q-2 -5 -24 -29q-91 -100 -161 -235.5t-70 -208.5q0 -20 6 -32q20 -38 67 -38q34 0 58 24q11 11 25 46t19 65q0 1 0.5 4t0.5 4q0 17 -9.5 29.5
t-23.5 12.5h-3q-1 0 -3.5 -0.5t-3.5 -0.5q-17 0 -17 11q0 7 9 13q9 8 9 11t-4.5 8.5t-4.5 9.5q0 3 1 5q7 19 38 19q14 0 35 -3q51 -7 90 -7q105 0 160 29q12 5 22 5q21 0 39.5 -13.5t18.5 -29.5q0 -4 -1 -6q-4 -16 -4 -24q0 -15 -82 -43q-41 -14 -103 -14q-15 0 -63 2l-23 1
l-2 -59q-3 -83 -30 -110q-12 -15 -15 -21t-13.5 -14t-24 -15.5t-17.5 -10.5q-9 -7 -71 -9h-24q-29 0 -39.5 3.5t-29.5 18.5q-48 35 -65 97q-2 6 -2 25q0 73 28 137q6 12 14 37q2 9 40.5 79t56.5 99q25 38 42 66q26 44 101 121.5t97 81.5z" />
    <glyph glyph-name="H" unicode="H" horiz-adv-x="617"
d="M423 714q13 0 30 -6q19 -7 31.5 -43t23.5 -116q8 -56 25 -154q7 -33 12 -75t10 -68q7 -26 7 -31l2 -3q1 -3 3 -7.5t5 -10.5l6.5 -13t7.5 -14q18 -35 18 -48q0 -8 -3 -17q-9 -22 -27 -31q-10 -5 -15 -5q-9 0 -32 26q-30 32 -30 52q0 17 -10 75t-14 62t-26 4
q-57 0 -162 -20q-67 -12 -90 -15q-37 -4 -37 -14q1 -13 13.5 -67.5t18.5 -70.5q3 -9 3 -15q0 -13 -9 -21t-24 -8q-18 0 -37 12q-29 19 -38 111q-5 52 -23 67q-18 16 -27 44q-5 18 -5 24q0 10 12 22t12 30q0 21 -26 147q-16 71 -16 97q0 24 15 31q7 4 12 4q9 0 30 -21
q26 -26 28 -50q0 -24 3 -33q0 -1 11 -65q11 -61 18 -91q7 -27 12 -32t28 -5q32 0 78 11l125 25q75 14 75 24v2q-9 28 -26 143.5t-17 144.5q0 12 19 12z" />
    <glyph glyph-name="I" unicode="I" horiz-adv-x="609"
d="M198 515q-9 0 0 10l4 3q3 0 3 -7q0 -6 -7 -6zM440 680q4 2 17 2q68 0 100 -13q39 -17 39 -50q0 -18 -10 -35q-7 -12 -13 -12q-4 0 -16 3q-15 3 -15 16q0 7 -6 9t-29 2q-45 0 -90 -6l-53 -7l1 -77v-16q0 -66 -7 -106q-19 -112 -37 -197q-2 -11 -6.5 -35.5t-5.5 -32.5
l-4 -24l20 5q50 10 137 23t105 13h2q20 -5 20 -25q0 -12 -5 -22q-6 -13 -23 -19t-75 -14q-50 -7 -133 -28.5t-139 -42.5q-102 -37 -138 -37q-5 0 -7 2q-3 5 -22 13q-12 5 -23.5 23.5t-11.5 31.5q0 4 1 6q4 11 22 19q14 7 19 7q6 0 16 -6t19 -6q14 0 80 18q29 7 36.5 12.5
t12.5 21.5q17 52 37 188q10 46 10 47q26 111 26 192q0 23 -3 37q-2 15 -13 15q-7 0 -13 -1q-17 -3 -39 -5t-50.5 -4t-43.5 -3l-41 -4l-13 28q-14 28 -14 41q0 12 11 18q10 5 80 9q90 4 187 13t101 13z" />
    <glyph glyph-name="J" unicode="J" horiz-adv-x="569"
d="M329 716q9 1 22 1q6 0 23 -0.5t28 -0.5q73 -1 113.5 -18t40.5 -47q0 -18 -18 -29.5t-44 -11.5q-16 0 -29 4q-37 11 -74 11q-14 0 -14 -3q0 -6 16 -34q39 -74 39 -190q0 -24 -4 -80q-4 -52 -4 -61q0 -4 0.5 -11.5t0.5 -12.5q0 -61 -9 -70q-6 -6 -6 -21t-15 -38t-29 -30
q-19 -8 -47 -8q-97 0 -231 63q-13 6 -29 27t-16 32q0 3 1 4q4 7 19 7q27 0 63 -18q41 -21 67.5 -28t66.5 -7q44 0 56.5 11t23.5 63q16 71 16 149q0 142 -46 209q-17 25 -28.5 33t-31.5 8q-2 0 -7.5 -0.5t-8.5 -0.5q-127 -14 -154 -30q-4 -3 -10 -3q-19 0 -43 48l-15 29
l13 13q15 13 60 16q39 2 81 10q30 6 99 10q14 1 30.5 2t24.5 2z" />
    <glyph glyph-name="K" unicode="K" horiz-adv-x="523"
d="M28 730q17 14 28 14q14 0 29 -17q12 -14 33 -69.5t28 -92.5q6 -29 13 -29q6 0 12 12q7 12 14 14q9 2 52.5 45t47.5 54q4 13 17 13q17 0 46 -20q37 -25 37 -45q0 -25 -56 -70q-82 -67 -82 -94q0 -8 2 -12q9 -20 20 -20t11 -7q0 -6 56.5 -42t65.5 -36q7 0 17 -12
q9 -11 27 -11q20 0 43 -21q21 -18 21 -32q0 -4 -2 -20q-4 -26 -21.5 -48t-34.5 -22h-3q-14 3 -38 20t-30 29q-9 16 -67 48q-66 38 -75 47q-13 13 -29 19q-14 3 -14 11q0 7 -9 7q-8 0 -3 -23q4 -17 9.5 -60t6.5 -52q1 -4 2 -13t2.5 -16.5l2.5 -12.5q5 -25 5 -45q0 -30 -8 -46
q-9 -17 -32 -17q-19 0 -31 14q-16 19 -21.5 37.5t-13.5 89.5t-20 142.5t-18 117.5q-12 85 -35 161q-21 68 -21 82t16 28z" />
    <glyph glyph-name="L" unicode="L" horiz-adv-x="510"
d="M319 115q-8 0 -31.5 -10t-30.5 -10q-13 0 -16 -3q-10 -10 -57 -23t-83 -13q-27 0 -39 8q-15 10 -32.5 46.5t-17.5 56.5q0 19 10.5 81t19.5 98q1 3 9.5 39t13.5 54q16 65 40 114q5 11 9 43q6 68 27 118q9 21 19 21q1 0 11 -2q22 -4 29 -4q15 0 15 -38q0 -21 -6 -48
q-28 -113 -38 -131q-7 -12 -7 -27q0 -12 -13 -42q-13 -29 -20 -81q-10 -56 -12 -62q-3 -7 -5 -23q-5 -57 -16 -73q-3 -4 -3 -14q0 -12 4.5 -25t10.5 -15h4q20 0 93.5 20t111.5 37q74 30 84 39q12 10 17 5q8 -4 8 3q0 4 9 4q16 0 37 -7q10 -2 16.5 -15.5t6.5 -28.5
q0 -7 -1 -11q-4 -19 -21 -31t-41 -14q-19 -1 -62 -19q-40 -17 -53 -17z" />
    <glyph glyph-name="M" unicode="M" horiz-adv-x="625"
d="M336 472q0 3 3 3q4 0 4 -3q0 -4 -4 -4q-3 0 -3 4zM383 653q7 9 25 9q24 0 37 -12q9 -7 23.5 -37t14.5 -41q0 -10 6 -16t14 -46q5 -21 16.5 -47.5t15.5 -53.5q2 -14 13 -64.5t13 -71.5q2 -22 6 -22q6 0 17 -51q14 -55 22 -69q6 -12 6 -23q0 -15 -9.5 -26t-22.5 -11
q-3 0 -11 2q-15 5 -36.5 39t-25.5 59q-6 32 -14 66q-3 14 -10 49.5t-10 46.5q-34 159 -47 174q-6 6 -6 -2q0 -15 -12 -42q-30 -72 -33 -216q-2 -99 -7 -108q-9 -15 -32 -15q-13 0 -22 5q-14 8 -34.5 45t-20.5 56q0 14 -7 17q-6 3 -10 22q-11 38 -65 150q-30 70 -39 70l-1 1
h-2q-3 0 -7 -158t-10 -167q-7 -11 -7 -26q0 -13 -16 -33q-13 -16 -21 -32q-4 -12 -15 -10q-8 1 -18 13t-10 19q0 2 1 3q2 1 -1.5 2t-8.5 0h-4q-6 0 -6 5q0 6 16 50q20 57 24 114q2 43 7 50q3 7 7 62q1 37 6.5 97t6.5 91q1 43 8 58.5t27 17.5h3q11 0 19 -7t25 -31
q24 -34 56.5 -96.5t32.5 -74.5q0 -11 22 -55q21 -40 26 -40q3 0 6 5q4 5 6 9.5t2.5 10t1 9.5t1 13t0.5 15q2 22 8 22t6 14t9 19q14 8 14 23q0 8 -6 10q-8 3 -8 12t10 22q6 7 11 25t9 24q6 10 6 37q2 33 9 41z" />
    <glyph glyph-name="N" unicode="N" horiz-adv-x="536"
d="M61 266q0 14 9 29t9 30q2 26 12 71q11 46 11 67v10q0 16 4 34q5 19 -1 19q-4 0 -6.5 8t-4 24t-2.5 19q-3 12 -3 17q0 10 14 11h6q19 0 41.5 -15t37.5 -37q5 -8 33 -54t50.5 -79.5t37.5 -49.5q28 -28 46 -60q16 -29 22 -29t6 -7q0 -8 17 -26.5t24 -18.5l2 1q5 5 10 109.5
t5 190.5q0 66 -4 80q-16 48 -16 70q0 10 1 14q3 14 8 18t20 4q24 0 24 -7q0 -8 14 -8t23 -22q11 -25 11 -93q0 -39 -6 -39q-7 0 -7 -24q0 -25 7 -25t7 -11q0 -9 -7 -6q-3 3 -6 -5l-1 -16q0 -23 8 -29q5 -3 5 -26q0 -25 -2 -43q-7 -75 -7 -166q0 -47 3 -71v-7
q0 -20 -11 -33.5t-28 -13.5q-11 0 -38.5 23.5t-27.5 33.5q0 6 -50 67q-117 144 -137 169q-23 27 -23 33q0 4 -16.5 24t-18.5 20t-15.5 -88t-16.5 -111q-3 -29 -12 -75.5t-12 -71.5q-7 -44 -13 -56.5t-21 -17.5q-2 -1 -7 -1q-13 0 -25 12t-16 30q-5 16 -10 16q-6 0 -6 11
q0 14 13 50q11 27 17 66q6 34 12 37q7 5 7 24z" />
    <glyph glyph-name="O" unicode="O" horiz-adv-x="560"
d="M526 368q0 4 -3 4q-4 0 -4 -4q0 -3 4 -3q3 0 3 3zM301 680q-32 11 -53 11q-27 0 -40 -22q-16 -27 -40.5 -92t-33.5 -104q-6 -25 -13.5 -46.5t-10.5 -39.5t-4 -60q0 -6 -0.5 -17t-0.5 -16q0 -56 13 -81t49 -43q19 -10 30 -10q8 0 43 8q34 8 53.5 18t49.5 35
q102 86 112 180q0 2 0.5 7t0.5 8q0 34 -6 80.5t-13 60.5q-3 7 -16 33q-10 21 -49.5 50.5t-70.5 39.5zM90 726q12 19 49.5 31.5t80.5 12.5h14q25 -2 76 -18.5t56 -24.5q6 -6 19 -11q16 -6 54 -46q58 -64 89 -163q14 -45 14 -110q0 -26 -4 -31q-6 -8 1 -8q8 0 8 -8
q0 -2 -2 -3.5t-4 0.5q-1 0 -1 0.5t-1 0.5q-3 0 -9 -11t-10 -11h-1l-1 1q-3 2 -3 -1q0 -2 1 -6q5 -11 -8 -21q-12 -10 -12 -29q-1 -20 -22 -47t-35 -27h-3q-14 5 -19 -9q-3 -9 -17.5 -25t-18.5 -16q-1 0 -1 1q0 5 -15 -10q-17 -15 -35 -19q-19 -5 -19 -10q0 -6 -47 -22
q-36 -11 -47 -11q-6 0 -20 4q-40 10 -47 11q-27 5 -34 14q-9 11 -16 11q-9 0 -32.5 28.5t-37.5 57.5q-18 35 -18 97q0 54 15 115q6 24 12.5 54t10 45t11 40t18.5 54q20 55 20 67q0 3 -1 4q-13 8 -13 29q0 10 5 20z" />
    <glyph glyph-name="P" unicode="P" horiz-adv-x="578"
d="M235 751q25 2 89 2q79 0 79 -4q0 -6 25 -6q23 0 69 -22q44 -21 56 -45q11 -25 11 -31t-8 -11q-8 -4 0 -9q4 -2 6.5 -8t1.5 -11t-5 -5q-6 0 -15 -26q-11 -31 -38 -69t-51 -57q-33 -27 -48 -40q-13 -12 -87.5 -39.5t-93.5 -27.5q-9 0 -7.5 -10.5t-3.5 -10.5q-7 0 7 -25
q11 -20 20 -56t10 -61q2 -19 6 -19q5 0 5 -18q0 -17 7 -17q5 0 5 -13q0 -30 -15 -53q-11 -17 -16 -17t-26 9q-43 19 -49 86q-1 21 -3 34.5t-5.5 30.5t-6.5 35q-4 28 -21 98q-43 156 -56 191q-10 24 -10 43q0 23 17 23q10 0 23 -9q27 -17 46 -48t19 -57q0 -15 8 -33
q6 -13 11 -13q4 0 16 6q22 10 58 12q35 1 79 29q40 26 74 58t34 44q0 13 7 17q7 5 7 28q0 18 -5 20q-23 14 -155 14q-53 0 -78 -4q-33 -5 -87.5 -22t-58.5 -24q-6 -10 -23 -10q-15 0 -22 8q-8 10 -16.5 34.5t-8.5 38.5q0 5 1 7q4 12 88 35.5t134 27.5z" />
    <glyph glyph-name="Q" unicode="Q" horiz-adv-x="707"
d="M354 78q-8 0 0 9q2 3 4 3q3 0 3 -6t-7 -6zM436 125q0 6 -6 1l-4 -6t-1.5 -3.5t3.5 1.5q8 4 8 7zM236 546q0 -3 1 -4q2 -3 4 3q1 4 -1 6q-3 0 -4 -5zM567 596q0 -3 1 -4q2 -3 4 3q1 4 -1 6q-2 1 -3 -0.5t-1 -4.5zM490 658q-6 7 -22 7q-29 0 -59 -15q-22 -11 -30 -11h-2
q-3 0 -4 -4q0 -7 -9 -7q-10 0 -10 -6q0 -3 -42 -38q-33 -26 -36 -26v2q0 1 -3 -2t-8.5 -9t-12.5 -14q-27 -29 -37 -29q-3 0 -3 4q0 5 2 9q2 6 1 7t-6 -3q-9 -8 -13 -4q-3 -2 -4 -7q0 -13 -13 -29q-13 -18 -22 -11q-6 4 -8 4q-10 0 -22 -36q-29 -84 -29 -165q0 -43 3 -53.5
t19 -29.5q22 -25 51 -40q23 -11 47 -11q19 0 32 1q67 4 131.5 38.5t97.5 84.5q14 21 14 28q0 5 -6 15q-10 19 -16 23q-9 8 -22 34t-13 35q2 33 35 33q15 0 33 -9l19 -10v34q0 25 -8 92.5t-15 92.5q-4 19 -10 25zM422 736q17 4 39 4q41 0 63 -16q12 -8 27.5 -43t15.5 -52
q0 -12 5 -17q6 -9 10 -78q8 -165 13 -186q4 -9 -3 -20q-2 -4 -2 -8q0 -17 53 -71q32 -33 42 -46t10 -21t-11 -21q-6 -8 -26 -8q-16 0 -32 6q-14 6 -37.5 25.5t-23.5 25.5l1 1q2 2 -2 3q-3 1 -8 1q-14 0 -14 -6q0 -7 -8 -7q-9 -1 -32 -22.5t-23 -29.5q0 -10 -10 -17
q-10 -9 -7 -3l2 4v2l-12 -10q-15 -14 -41 -27.5t-38 -13.5q-6 0 -6 4q0 7 -5 7q-8 0 -20 -12q-5 -5 -13.5 -9t-21 -6t-21.5 -3t-24.5 -2.5t-21.5 -2.5q-5 -1 -14 -1q-27 0 -61 10.5t-54 24.5q-17 12 -41 41.5t-36 51.5q-22 44 -22 112q0 15 1 22q5 51 32 145q8 26 8 41
q0 1 -1 3v2q-4 11 5 25q9 15 32 15q21 0 34 -13l13 -13l19 16q27 22 74 66q123 111 193 127z" />
    <glyph glyph-name="R" unicode="R" horiz-adv-x="591"
d="M356 635q-4 9 -10 11.5t-28 2.5h-29q-90 -1 -142 -10q-18 -3 -18 -5t8 -8q15 -11 19 -55q4 -40 19.5 -117t19.5 -77t32 17q19 12 23.5 19.5t4.5 28.5t3 26t18 6q20 2 30 10q17 13 34.5 61t17.5 77q0 7 -2 13zM266 734q20 2 30 2q87 0 129 -45q9 -9 15.5 -35.5t6.5 -48.5
q0 -19 -5 -22q-8 -6 -3 -15q3 -10 -4 -30q-9 -24 -10 -39q-2 -20 -10 -27q-9 -7 -9 -19q0 -11 -11 -27q-7 -9 -7 -13q0 -8 23 -32q33 -37 84 -114t51 -90q0 -8 15 -23q17 -19 17 -49q0 -15 -6 -22q-7 -9 -1 -9q7 0 -4 -7q-12 -7 -40 -7q-22 0 -27 5q-10 8 -27 41.5t-20 51.5
q-4 22 -57 98t-69 81l-1 1h-3q-10 0 -34 -15q-24 -16 -50 -22q-12 -2 -16.5 -5.5t-4.5 -11.5q0 -11 9 -47q10 -37 14 -100q3 -54 8 -73q4 -10 -1 -10l-2 1q-7 5 -15 -8q-9 -17 -26 -17q-12 0 -22 11t-21.5 37t-11.5 35q0 3 2 3q3 0 3 10q0 22 -16 122q-9 57 -14 57
q-6 0 -10 34t-18 89q-13 49 -23 124q-6 51 -9.5 59.5t-16.5 8.5q-36 0 -36 48q0 9 1 14q2 27 158 40q46 3 95 10z" />
    <glyph glyph-name="S" unicode="S" horiz-adv-x="642"
d="M306 745q16 6 34 6q26 0 35 -12q17 -24 17 -36q0 -8 -6 -20q-9 -18 -38 -24q-24 -3 -78 -38q-37 -26 -77.5 -63t-40.5 -45q0 -6 -10 -10t-23 -27t-16 -43q-2 -8 -2 -10q0 -6 10 -6q9 0 31 3q40 3 91 23q78 32 112.5 42.5t60.5 10.5q9 0 29 -2q44 -4 68 -16q25 -10 56 -41
t47 -61q13 -25 13 -42q0 -10 -3 -27q-3 -18 -3 -26q0 -11 9 -12q11 0 3 -4q-9 -2 -9 -17q0 -35 -39.5 -78.5t-86.5 -60.5q-53 -19 -97.5 -27.5t-128.5 -14.5q-38 -2 -50 -2q-55 0 -55 14q0 9 -17 33q-14 20 -14 37q0 9 5 11.5t22 2.5q21 0 37 -1q10 -1 30 -1q120 0 187 26
q56 21 94.5 54t38.5 60q0 19 -18 40.5t-45 35.5q-41 19 -76 19q-36 0 -75 -18q-93 -42 -150 -54q-29 -6 -58 -6q-30 0 -50.5 6.5t-20.5 16.5q0 9 -8 11q-7 2 -17.5 45t-11.5 68q0 22 33 64q33 44 33 49q0 8 12 11q10 4 7 -2l-1 -3v-2l14 11q20 18 20 31q0 16 65.5 61
t110.5 60z" />
    <glyph glyph-name="T" unicode="T" horiz-adv-x="785"
d="M242 696q16 2 53 2q49 0 93 -6q1 0 61.5 -9.5t122 -18t82.5 -8.5q2 0 4.5 0.5t3.5 0.5q18 3 54 7q9 1 20 1q10 0 14 -4t12 -21q10 -19 10 -26q0 -6 -6 -10q-10 -7 -10 -20q0 -25 -56 -25q-13 0 -19 1q-255 22 -303 36q-3 1 -6 1q-4 0 -4 -7q0 -1 2 -21q5 -33 5 -128
q0 -118 -6 -142q-3 -12 -3 -54q0 -27 1 -40q1 -16 1 -41q0 -55 -15 -55q-3 0 -5 1q-6 2 -7.5 -0.5t0.5 -10.5q1 -3 1 -7q0 -8 -8 -8q-18 0 -40 24q-15 16 -19.5 28.5t-7.5 44.5q-1 9 -1 38q0 62 4 111q5 67 5 139q0 113 -8 127q-1 3 -13 3q-24 0 -126 -21q-39 -9 -59 -9
q-19 0 -30 9t-20 30q-7 15 -7 28q0 22 24 31q20 9 206 29z" />
    <glyph glyph-name="U" unicode="U" horiz-adv-x="472"
d="M38 744q6 8 13 8t28 -15q22 -17 22 -33q0 -17 8 -17q5 0 5 -15t-2 -27q-5 -38 -5 -156q0 -173 43 -258q14 -28 37 -53.5t34 -25.5q16 0 45.5 27t52.5 63q34 53 42 129q6 57 6 100q0 93 -31 134q-40 56 -40 78q0 7 3 14q5 15 10.5 18t29.5 3q21 0 25 -1q7 -1 30 -49.5
t40 -97.5q25 -73 25 -199q0 -57 -9 -64q-12 -10 -12 -18q0 -3 3 -3q1 0 5 2q4 3 4 1.5t-4 -9.5q-16 -29 -18 -47q-2 -8 -27 -48.5t-32 -46.5q-11 -8 -11 -15q0 -5 -25 -32q-23 -26 -70 -38l-46 -11l-31 20q-50 34 -71.5 63t-70.5 129q-32 64 -32 239q1 83 9 160.5t17 90.5z
" />
    <glyph glyph-name="V" unicode="V" horiz-adv-x="565"
d="M448 757q12 13 35 13q36 0 53 -23q16 -21 16 -62q0 -33 -12 -36q-7 -1 -55 -90t-52 -91q-7 -5 -1 -5q1 0 1.5 -1.5t0 -4t-2.5 -4.5q-8 -10 -36 -90t-38 -122q-11 -50 -11 -90q-2 -81 -57 -81q-24 0 -26 7q-2 9 -12 9q-18 0 -32 54q-5 23 2 23t2 12q-2 4 -20 76
q-4 16 -7.5 29t-6.5 22.5t-7 20.5l-6 16.5t-8 18t-8 17t-10 21t-11 23.5q-21 46 -28 68q-4 16 -14 25q-10 7 -10 15t-39 86q-36 74 -36 94q0 14 14.5 23.5t30.5 9.5q17 0 26 -8q13 -10 43 -66.5t34 -78.5q2 -13 10 -21t8 -13q0 -7 30 -60q32 -59 47 -98q18 -44 25 -44
q3 0 3 10q0 13 25 75q45 113 57 126q9 10 5 12q-5 0 6 18q11 16 11 26t11 19t24.5 40.5t13.5 48.5t12 31z" />
    <glyph glyph-name="W" unicode="W" horiz-adv-x="690"
d="M606 819q24 10 24 0q0 -7 14 -7t23 -22q11 -29 11 -88q0 -23 -3 -35q-4 -15 -8.5 -74t-4.5 -101v-10q0 -42 -5 -52q-4 -9 -10 -60q-4 -49 -7 -54t-7 -33q-4 -38 -13 -90t-12 -83q-6 -51 -13 -57q-4 -4 -17 -4q-2 0 -8 0.5t-10 0.5q-27 2 -37.5 7.5t-38.5 36.5
q-43 47 -80 101q-38 57 -59 78q-18 20 -18 26q0 7 -1 7q-6 0 -10 -35q-8 -43 -13 -59q-10 -31 -13 -53t-17.5 -56t-27.5 -48q-12 -14 -32 -14q-23 0 -52 18q-21 14 -30 26t-24 48q-36 84 -48 221q-2 31 -10.5 91t-11.5 83q-8 67 -18 116q-7 40 -7 44q0 10 12 20q14 12 26 12
q11 0 28.5 -17t20.5 -31q24 -113 29 -203q1 -23 15 -115t18 -103q1 -2 7 -25t12.5 -44t9.5 -21q13 0 29 76.5t18 138.5l1 43l32 8q22 5 25 5q8 0 14 -10q7 -12 13 -12q4 0 23 -19t31 -35q61 -72 76 -97q4 -8 41 -49l31 -32l8 31q7 33 9 50q3 23 22 101q2 8 10 81.5t12 93.5
q11 58 11 154q0 51 -5 64t-5 25q0 33 20 41z" />
    <glyph glyph-name="X" unicode="X" horiz-adv-x="628"
d="M177 106q6 6 6 10t-4 4q-11 0 -11 -16q0 -7 9 2zM503 783q16 6 31 6q26 0 47 -21q20 -22 20 -39q0 -19 -19 -48t-68 -90q-73 -91 -73 -97q0 -7 -25 -30t-25 -53q0 -14 9 -17q12 -5 59 -51.5t59 -66.5q23 -34 42 -52q25 -25 25 -32q0 -9 11 -20q12 -14 17 -33q1 -4 1 -11
q0 -14 -19 -32q-23 -21 -53 -21q-13 0 -13 7q0 8 -20 26q-20 20 -20 30q0 22 -86 118q-59 65 -71 65q-7 0 -7 -8q0 -12 -34.5 -62t-43.5 -50h-1q-4 1 -4.5 0.5t1.5 -4.5q1 -1 1 -4q0 -12 -16 -33t-26 -21t-7 -7q1 -1 1 -4q0 -8 -10.5 -20.5t-18.5 -12.5q-9 0 -12 -14
q-2 -18 -17 -30t-35 -14h-7q-21 0 -54 33q-30 30 -30 40q0 7 6 16q13 19 37 36q15 12 55.5 63.5t73.5 102.5q59 92 59 99q0 1 -1 1q-15 1 -95.5 78.5t-93.5 105.5q-14 26 -14 37q0 4 2 4q1 0 4 -3q4 -5 18 7q8 8 16 8q10 0 27 -8q30 -11 30 -20q0 -8 8 -8t66 -46t68 -60
q12 -15 20 -15q6 0 6 9q0 17 87 117q43 51 70 97t42 52zM585 1194q0 4 4 4t4 -4t-4 -4t-4 4z" />
    <glyph glyph-name="Y" unicode="Y" horiz-adv-x="662"
d="M563 784q15 5 26 5q26 0 43 -17.5t17 -45.5q0 -47 -54 -106q-12 -12 -77 -100l-55 -77l5 -77q3 -64 20 -149q16 -71 16 -102q0 -23 -9 -40q-11 -20 -38 -20q-37 0 -56 27.5t-24 88.5q-8 100 -34 162q-9 23 -38 52t-117 104q-88 77 -96 85q-37 35 -43 39q-37 34 -37 54
q0 11 13 27q12 14 37 14q15 0 25 -7q8 -4 46 -38q43 -39 120 -101l85 -70l31 33q43 46 131 163q28 40 35 63q8 26 28 33z" />
    <glyph glyph-name="Z" unicode="Z" horiz-adv-x="656"
d="M44 749q16 16 42 16h13q11 -1 43.5 -2.5t44.5 -2.5q50 -2 54 -9q4 -5 65 -5q81 0 120 7q12 2 18 2q29 0 49.5 -15.5t27.5 -42.5q2 -8 2 -14q0 -24 -34 -78q-20 -32 -29 -49q-20 -38 -53.5 -87.5t-55.5 -72.5q-21 -25 -23 -35q-2 -17 -5 -21t-14 -4q-16 0 -16 -9
q0 -8 -14 -20q-13 -9 -4 -11q11 0 -2 -24t-19 -24t-21 -29l-13 -30l25 6q86 16 228 24q70 4 91 7q2 0 5 0.5t4 0.5q18 0 22 -6q4 -7 23 -14q26 -10 26 -48q0 -13 -6 -24q-5 -9 -5 -24q0 -6 -21.5 -12.5t-37.5 -6.5q-9 0 -12 3q-12 10 -136 10q-38 0 -39 -3q-2 -5 -65 -9
q-104 -9 -196 -52q-33 -15 -42 -15q-8 0 -18 7q-10 6 -18 18t-17.5 31l-11.5 23q-7 14 -7 22q0 7 95 133q116 157 161 216q16 18 26 40q5 11 37 71l27 46h-89q-89 0 -89 8q0 7 -30 7q-3 0 -10.5 -0.5t-11.5 -0.5q-5 0 -13.5 -0.5t-11.5 -0.5q-19 0 -28 4.5t-23 19.5
q-23 26 -23 46q0 16 15 33z" />
    <glyph glyph-name="bracketleft" unicode="[" horiz-adv-x="408"
d="M90 806q8 3 20 3q28 0 38 -9q12 -6 56 -9q57 -5 57 -12q0 -1 -4 -7q-8 -10 -4 -21q1 -3 1 -7q0 -19 -54 -23q-40 -4 -43 -7q-1 0 -1 -29q0 -40 1 -65q1 -35 1 -143q0 -399 -11 -520l-3 -39l24 3q26 4 89 11q66 7 71 12q6 6 17 6q21 0 35 -14q15 -13 15 -44q0 -22 -10 -26
q-9 -4 -9 -14q0 -9 -11 -5q-32 13 -74 13q-27 0 -54 -6q-44 -9 -69 -13q-23 -4 -38 -20q-17 -19 -50 -19q-16 0 -26 6q-14 7 -28 23.5t-14 28.5q0 13 15 34q17 22 20 50q4 29 10 124.5t6 129.5v5q0 57 3 175v47q0 138 -3 222q-3 54 -3 83q0 41 6 54.5t24 21.5z" />
    <glyph glyph-name="backslash" unicode="\" horiz-adv-x="678"
d="M23 711q8 18 17 18q3 0 9 -2q15 -4 23.5 -14t29.5 -48q14 -25 80.5 -121t71.5 -104q20 -30 43 -57q27 -32 27 -37q0 -6 37 -52q31 -37 68 -87q15 -21 24 -33t14 -17t16 -17.5t26 -31.5q35 -44 38 -44q5 0 23 -25q24 -36 56 -68q39 -42 39 -62q0 -21 -4.5 -29t-17.5 -8
q-12 0 -28 4q-27 6 -38 15t-36 44q-31 46 -57 74q-8 9 -63 78q-38 51 -48 57q-7 5 -23 30q-15 25 -35 47q-51 57 -89 114q-38 56 -61 84q-27 33 -30 43q-6 12 -12 12q-7 0 -7 9q0 11 -14 25t-14 22q0 7 -8 7q-6 0 -3 5q4 2 -4 14q-16 19 -38.5 63t-22.5 57t11 35zM40 762
q-3 2 -3 7q0 16 7 16q3 0 3 -13q0 -4 -1 -7t-2.5 -3.5t-3.5 0.5z" />
    <glyph glyph-name="bracketright" unicode="]" horiz-adv-x="415"
d="M365 796q4 9 8 9q7 0 9 -4.5t-2 -10.5q-7 -9 0 -20q9 -17 16 -119t7 -197q0 -50 -4 -98q-9 -73 -13 -120q-6 -61 -8 -67q-7 -23 -7 -118q0 -42 3 -51q13 -42 13 -77q0 -9 -2 -19q-4 -15 -19.5 -21t-55.5 -7q-25 -2 -80 -24q-16 -7 -53 -23t-47 -20q-15 -6 -29 -11.5
t-22 -8.5t-16 -7q-1 -1 -3 -1q-7 0 -25 18q-22 20 -23 43q-1 20 11 23q24 4 94 28t102 39q66 31 66 62q0 5 -1 8q-1 2 -1 9q0 4 0.5 9.5t1.5 12t1 10.5q10 51 21 148q0 3 3 31.5t6 52t5 28.5q6 12 8 168v32q0 141 -11 185q-4 14 -16.5 18t-68.5 8q-18 1 -46.5 4.5t-43.5 3.5
q-4 1 -2 6.5t-2 5.5q-6 0 -6 9t-5 9q-3 0 -13.5 15.5t-10.5 19.5q203 9 207 9q10 2 23 2q11 0 11 -4t4 -5.5t9 0.5t7 7z" />
    <glyph glyph-name="asciicircum" unicode="^" horiz-adv-x="381"
d="M57 559q3 5 -5 5t-5 -5q5 -3 10 0zM73 619q0 7 -3 7q-5 0 -8 -8q-2 -6 3 -6q8 0 8 7zM155 884q19 18 35 18q8 0 13 -1q25 -4 35 -16.5t32 -67.5q30 -74 56 -125q33 -67 34 -83q1 -12 8 -47q1 -4 1 -13q0 -21 -9 -41.5t-20 -24.5q-2 -1 -6 -1q-18 0 -39.5 28.5t-23.5 56.5
q0 12 -14 42q-6 14 -17 42q-1 3 -14 29.5t-24 52t-11 31.5q0 8 -5 8q-10 0 -16 -19q-3 -7 -18.5 -40.5t-19.5 -51.5q-6 -26 -11 -31q-3 -4 -7.5 -24.5t-8.5 -24.5t-4 -18q0 -11 -18 -25q-17 -14 -14 -24q4 -9 -7 -23q-7 -10 -10 -10t-8 9q-6 12 -13 8q-4 -2 -7 0.5t-3.5 6.5
t3.5 7q8 5 -5 14q-8 5 -8 11q0 8 11 31q15 35 33 97q52 177 100 219z" />
    <glyph glyph-name="underscore" unicode="_" horiz-adv-x="709"
d="M591 -53q11 6 37 6t38 -6q18 -9 25 -11q11 -4 11 -17q0 -16 -16 -31q-17 -15 -19 -29q-2 -9 -14.5 -11.5t-61.5 -3.5q-77 -2 -97 -5q-141 -24 -319 -24q-132 0 -154 16q-12 9 -14 31q0 2 -0.5 5.5t-0.5 4.5q0 15 16 19q19 4 4 6q-11 2 -10 4q3 2 84.5 4.5t165 5t86.5 2.5
q24 4 76 9q78 8 115 13q34 5 48 12z" />
    <glyph glyph-name="grave" unicode="`" horiz-adv-x="319"
d="M20 892q16 4 19 5h1q17 0 118 -59.5t134 -88.5q16 -14 16 -35q0 -9 -5 -14q-6 -6 -6 -20q0 -17 -23 -18h-5q-21 0 -78 39q-129 87 -151.5 107t-27.5 52q-1 8 -1 17q0 12 9 15z" />
    <glyph glyph-name="a" unicode="a" horiz-adv-x="427"
d="M142 416q36 17 56 17q17 0 40 -7.5t23 -13.5q0 -1 -1 -2q-5 -5 2 -14q3 -3 3 -7q0 -8 -11.5 -16.5t-23.5 -8.5t-29 -13q-4 -3 -10.5 -7t-15 -8.5t-11.5 -6.5q-27 -13 -47.5 -47.5t-20.5 -66.5v-6q2 -18 36 -18q53 0 99 32q24 16 31 29t12 45q8 73 25 117q5 12 11 15.5
t22 3.5q32 0 44.5 -6.5t15.5 -24.5q7 -41 7 -67q0 -32 -14 -73q-17 -53 -17 -66q0 -11 7 -16q7 -4 7 -16t17 -31q14 -15 14 -31q0 -9 -1 -15q-9 -50 -36 -50q-12 0 -32 9q-14 6 -33 35t-19 43t-15 14q-14 0 -31 -10q-49 -29 -107 -29q-36 0 -61 13q-66 35 -66 129q0 25 6 52
q5 20 50 65t74 58z" />
    <glyph glyph-name="b" unicode="b"
d="M334 388q-47 21 -98 21q-22 0 -32 -6q-19 -11 -42.5 -35.5t-23.5 -32.5q0 -12 -6 -18q-6 -7 -13.5 -62.5t-7.5 -94.5v-41l23 16q22 19 39 22q36 12 64 26q14 6 20 6t15 7q124 101 124 140q0 14 -12 24q-8 7 -50 28zM27 772q5 11 17 11q4 0 13.5 -1.5t14.5 -1.5
q21 -1 26 -14q10 -21 12 -190v-34q1 -74 11 -74q4 0 12 8q28 28 105 28q20 0 36 -3q11 -2 31.5 -6.5t23.5 -4.5q44 -9 99 -53t59 -73v-6q0 -26 -10.5 -73t-17.5 -47q-5 0 -21 -27q-17 -28 -29 -33q-4 -2 -49 -31q-82 -52 -178 -82q-10 -3 -22 -3q-34 0 -40 19q-3 8 -6 8
q-8 0 -13 -32q-3 -20 -7.5 -24t-21.5 -4q-26 0 -43 24t-17 61v10q0 62 14 148q4 23 4 83q0 63 -6 285q0 13 -0.5 34t-0.5 30q0 61 4 68z" />
    <glyph glyph-name="c" unicode="c" horiz-adv-x="441"
d="M129 526q27 16 44 16q9 0 26 -3q22 -5 34.5 -11.5t27.5 -24.5q48 -54 59 -139q6 -40 10 -45t4 -17q0 -33 -18 -48q-11 -10 -21 -10q-5 0 -16 3q-21 5 -23 7q-8 12 -20 58.5t-14 72.5q-3 52 -15 52q-10 0 -36 -26q-34 -32 -28 -32t-1 -9q-11 -14 -20 -67t-9 -98
q0 -39 8 -47q2 -2 14 -2q47 0 188 23q42 7 58 7q13 0 24 -7q17 -10 13 -21q-3 -10 3 -10q7 0 7 -8q0 -13 -11 -17q-10 -5 -5 -12q3 -4 0 -4l-7 1q-11 4 -22 -7q-8 -8 -18 -8.5t-19 -6.5q-17 -8 -46 -10q-30 -2 -37 -7q-6 -4 -59 -9t-85 -5h-6q-25 1 -47 27
q-31 35 -42.5 65.5t-11.5 75.5v7q3 233 117 296z" />
    <glyph glyph-name="d" unicode="d" horiz-adv-x="461"
d="M181 73q0 4 -4 4t-4 -4q0 -3 4 -3t4 3zM299 300q-4 23 -16 23q-8 0 -34 -13q-49 -25 -85.5 -65.5t-36.5 -69.5q0 -8 3 -10.5t13 -2.5q4 0 30 2q47 4 56 11q11 8 43 17q24 7 28 12.5t4 33.5q0 30 -5 62zM291 702q12 4 21 4q29 0 43 -17q10 -10 17 -10q8 0 12 -17
q4 -23 10.5 -124.5t6.5 -145.5v-6v-13q0 -63 11.5 -127.5t27.5 -88.5q7 -11 7 -30q0 -34 -14 -34q-9 0 2 -8q13 -8 -1 -8q-12 0 -21 11t-31 11q-20 -2 -30 4l-2 1h-2q-16 0 -44 -11q-44 -16 -62 -16q-23 0 -28 -8q-4 -6 -30 -6q-59 0 -64 13q-3 8 -33 17q-34 10 -54.5 40
t-20.5 67q0 25 10 48q22 52 94.5 101.5t131.5 54.5q43 3 43 12q0 8 4 8q3 0 3 22q0 38 -8 103.5t-15 79.5q-6 12 -6 29q0 13 3 31q0 5 19 13z" />
    <glyph glyph-name="e" unicode="e" horiz-adv-x="488"
d="M337 418q0 11 -4 14t-19 3q-36 -1 -90.5 -30t-73.5 -58q-7 -11 -7 -17q0 -5 6 -5q10 0 28 7q21 7 65 19q35 8 65 29t30 38zM260 432q0 3 -4 3q-3 0 -3 -3q0 -4 3 -4q4 0 4 4zM225 497q41 13 73 13q47 0 81 -23q28 -21 28 -28q0 -10 6 -10q5 0 13.5 -22.5t8.5 -34.5
q0 -20 -24 -51.5t-39 -31.5q-7 0 -7 -6t-12 -10q-22 -7 -72 -25.5t-61 -23.5q-10 -5 -43 -5q-14 0 -22 1l-50 3l2 -45q2 -33 8.5 -45.5t27.5 -12.5q19 0 59 9q66 14 172 49q32 10 55 10q27 0 27 -11q0 -6 11 -17q7 -7 7 -14q0 -8 -5 -18q-4 -9 -8.5 -15t-7.5 -5q-2 1 -6 1
q-12 0 -26 -6.5t-14 -13.5q0 -10 -15 -10q-11 0 -11 2q0 1 5 5q7 4 6.5 5.5t-8.5 1.5q-13 0 -25 -7q-2 -2 -38 -13.5t-69.5 -23.5t-33.5 -17q0 -9 -26 -9q-20 0 -20 5q0 1 1 3q4 5 -5 6q-6 0 -18 -2q-5 -1 -17 -1q-47 0 -77 32q-44 45 -44 118q0 27 6 57q4 19 5.5 31.5
t1.5 16.5t3.5 14t13.5 31q26 57 65 87t118 56z" />
    <glyph glyph-name="f" unicode="f" horiz-adv-x="383"
d="M207 775q13 6 30 6q30 0 52 -19q12 -10 18.5 -19t15.5 -17q14 -14 26.5 -46.5t12.5 -56.5q0 -31 -15 -38q-10 -5 -15 -5q-9 0 -16 14t-17 51q-7 22 -24 49q-17 22 -25 22q-4 0 -6 -1q-15 -4 -28 -22t-38 -66l-30 -59l1 -77q1 -120 24 -144l12 -13l49 10q74 15 105 15
t31 -15q0 -17 -46.5 -42.5t-93.5 -34.5q-20 -4 -20 -8q0 -1 14 -27q11 -18 20 -51q10 -42 10 -55q0 -20 -21 -47q-11 -14 -20 -14q-2 0 -18 4q-25 7 -35 26q-8 16 -8 21q0 6 5 16q7 11 7 24q0 17 -15 56l-13 34h-38q-36 0 -52 2q-14 2 -24 19t-10 36q0 5 2 13t6.5 10.5
t19.5 2.5h13q8 0 18 -0.5t13 -0.5q17 0 17 5q0 3 -6 14q-8 15 -14.5 64.5t-6.5 97.5q0 32 7.5 67.5t15.5 43.5q7 7 7 17q0 11 23.5 50.5t41.5 58.5q20 22 38 29z" />
    <glyph glyph-name="g" unicode="g" horiz-adv-x="453"
d="M183 324q11 7 11 19q0 7 -3 19q-5 23 -13 23q-3 0 -9 -3q-14 -6 -29 -28t-15 -35q0 -4 1 -5q4 -6 15 -6q20 0 42 16zM182 487q6 10 19 10q2 0 20 -2q43 -7 57.5 -30.5t23.5 -100.5q5 -41 22 -73q5 -8 22 -36t25 -41q60 -98 68 -174q2 -22 2 -35q0 -64 -20.5 -123
t-52.5 -84q-19 -14 -48 -14q-73 0 -201 78q-23 14 -47.5 38.5t-24.5 32.5q0 2 2 2q8 4 8 14q0 11 13 11q9 0 14 -8q10 -18 81.5 -49t101.5 -31h4q2 0 9.5 1t10.5 1q14 2 26.5 49t12.5 102q0 49 -4.5 67.5t-24.5 59.5q-23 45 -36 63t-25 18q-10 0 -30 -17q-13 -11 -49 -11
q-39 0 -66 12q-27 11 -51.5 39.5t-29.5 54.5q-2 14 -2 20q0 54 60 117l44 46l30 -10q18 -6 24 -6q8 0 12 9z" />
    <glyph glyph-name="h" unicode="h" horiz-adv-x="573"
d="M24 788q10 6 19 6t29 -6q14 -5 20 -15.5t16 -45.5q25 -89 32 -124t32 -191q9 -54 16 -54q2 0 7 12q6 19 26 32.5t46 15.5q6 1 16 1q17 0 41 -10.5t102 -51.5q67 -35 109 -92q17 -23 21 -82l4 -60l-20 -8q-21 -5 -21 -13t-9 -8q-13 0 -25 12q-24 22 -33 82q-7 40 -20 58
t-50 41q-66 39 -96 39q-9 0 -12 -5q-8 -14 -21 -79.5t-13 -95.5q0 -40 -3.5 -52.5t-16.5 -15.5q-14 -4 -14 -15q0 -12 -12 -12q-15 0 -36.5 16.5t-27.5 35.5q-9 28 -21.5 103.5t-16.5 120.5q-3 37 -7.5 56t-6.5 47q-4 32 -8.5 53.5t-9.5 54.5q-14 118 -36 163q-12 27 -12 54
t12 33z" />
    <glyph glyph-name="i" unicode="i" horiz-adv-x="238"
d="M100 445q3 12 6.5 15.5t12.5 2.5q43 -6 54 -27t22 -119q8 -73 18 -131q10 -54 12 -91v-10q0 -14 -3.5 -18.5t-15.5 -7.5q-18 -6 -28 4q-8 8 -22 14q-24 7 -38 81q-7 38 -13.5 120.5t-6.5 133.5q0 21 2 33zM14 701q5 11 32 11q18 0 27 -4t18 -17q15 -23 17 -41
q1 -11 16.5 -37t15.5 -40q0 -18 -10 -38t-20 -20q-9 0 -40 34.5t-41 55.5q-17 37 -17 79q0 9 2 17z" />
    <glyph glyph-name="j" unicode="j" horiz-adv-x="337"
d="M162 368q3 5 17 5q22 0 37 -10q23 -16 59 -157q19 -72 36 -184q13 -96 13 -128q0 -52 -31 -76q-16 -10 -57 -17q-2 0 -5 -0.5t-5 -0.5q-52 0 -105 35q-26 17 -32 17q-8 0 -27 18.5t-19 25.5q0 2 1 2q10 4 -1 19t-11 27q0 8 3.5 8.5t16.5 -4.5q21 -10 26 -17
q11 -13 54 -31.5t61 -18.5h2l21 2v80q-1 130 -36 271q-20 82 -20 119q0 9 2 15zM26 728q11 11 29 11q24 0 45.5 -18.5t21.5 -42.5q0 -16 -8 -23.5t-35 -16.5q-15 -5 -25 -5q-26 0 -36 37q-6 22 -6 31q0 13 14 27z" />
    <glyph glyph-name="k" unicode="k" horiz-adv-x="486"
d="M139 397q0 4 19.5 31t19.5 31q0 5 28 61l28 55l32 -1q27 -1 43 -14.5t16 -36.5q0 -37 -55 -121q-25 -37 -52 -109q-10 -23 -10 -33l1 -2q4 -4 80 -15q65 -10 115.5 -24.5t60.5 -26.5q8 -11 8 -29q0 -26 -14 -40q-10 -10 -18 -10t-28 7q-33 12 -54 23q-23 13 -89 13
q-104 1 -116 20q-4 7 -6 7q-3 0 -3 -11t5 -44q4 -20 4 -39q0 -43 -24 -43q-4 0 -7 1q-23 5 -50.5 27.5t-30.5 38.5q-11 51 -20.5 190t-9.5 241q0 84 2.5 101.5t15.5 28.5q12 10 19 10q11 0 34 -34q15 -20 18 -77q6 -140 15 -188q2 -11 3.5 -14t3.5 -1.5t7 8.5q9 13 9 19z
" />
    <glyph glyph-name="l" unicode="l" horiz-adv-x="156"
d="M17 660q6 11 30 11q19 0 32 -7q20 -10 25.5 -40t7.5 -142q4 -235 7 -297.5t13 -84.5q11 -22 11 -43q0 -19 -11 -30t-11 -22q-1 -8 -8 1l-2 2q-11 12 -15 11q-3 -1 -9 -1q-45 0 -63 93q-12 60 -12 394q0 146 5 155z" />
    <glyph glyph-name="m" unicode="m" horiz-adv-x="615"
d="M208 472q10 2 16 2q47 0 82 -51q10 -16 18 -16q10 0 17 30q9 33 48 33q55 0 119 -56q41 -36 56 -70.5t23 -110.5q6 -59 14 -114q2 -14 2 -15q0 -10 -13 -14q-3 -1 -9 -1q-16 0 -37 6.5t-29 13.5q-29 29 -29 125q-1 68 -15 98q-9 20 -23 32t-26 12q-7 0 -11 -4
q-8 -7 -20 -39.5t-12 -48.5q0 -15 -7 -22q-9 -9 -11 -73q-2 -57 -6.5 -75t-20.5 -18q-14 0 -42 12q-47 20 -47 45q0 4 1 15.5t2 32.5t2 41v22q0 108 -19 108q-20 0 -51 -97.5t-31 -156.5q0 -10 2 -20q1 -4 1 -15q0 -12 -3 -21q-8 -20 -32 -20q-23 0 -48 20q-5 5 -11.5 10
t-9.5 8l-4 3q-3 3 -5 38q-10 191 -16 198q-11 14 -11 34q0 15 7 25q11 15 29 15q21 0 42 -21q18 -21 27 -21q8 0 8 14q2 27 31 64.5t52 42.5z" />
    <glyph glyph-name="n" unicode="n" horiz-adv-x="411"
d="M215 450q23 17 45 17q27 0 56 -25q32 -29 47 -74t16 -121q0 -59 12 -103q7 -22 7 -39q0 -29 -21 -29q-13 0 -26 8q-38 20 -46.5 33t-14.5 61q-6 38 -6 77q0 15 1 20q2 14 2 21q0 21 -9 42l-12 27l-14 -18q-12 -18 -12 -23t-12 -28t-20 -32q-8 -10 -12 -28q-2 -7 -15 -56
t-15 -67q-6 -47 -9.5 -60t-11.5 -16q-3 -1 -10 -1q-16 0 -36.5 7.5t-29.5 16.5q-23 25 -25 155q-1 20 -2 34.5t-4 28t-4.5 19.5t-7 23.5t-8.5 26.5q-6 19 -6 32q0 25 33 25q20 0 41 -21.5t28 -50.5q13 -46 16 -46q2 0 3 6q2 7 47 111q11 27 35 47z" />
    <glyph glyph-name="o" unicode="o" horiz-adv-x="511"
d="M322 413q-26 7 -46 7q-44 0 -90 -24q-19 -10 -37.5 -28.5t-18.5 -26.5q0 -2 -14 -36q-14 -32 -14 -77q1 -35 7 -52.5t24 -35.5q20 -20 33 -26.5t41 -8.5q6 -1 17 -1q23 0 70 22q73 36 93.5 62.5t20.5 87.5v8l-1 59l-30 31q-30 30 -55 39zM31 324q0 5 10 17t10 18
q0 11 15 42.5t26 43.5q14 14 24 14q9 0 19 -7q5 -3 11 -3q11 0 44 13q39 17 69 17q31 0 70 -11t58 -26q23 -18 41.5 -36.5t18.5 -25.5q0 -6 8 -6q12 0 29 -53q5 -12 10 -56q4 -21 4 -37q0 -19 -12 -44q-15 -35 -39 -56q-67 -58 -79 -58t-44 -16q-35 -17 -56 -19
q-5 -1 -18 -1q-31 0 -71 6.5t-56 13.5q-26 14 -54.5 42.5t-39.5 52.5q-17 37 -17 93q0 35 9 53q10 20 10 29z" />
    <glyph glyph-name="p" unicode="p" horiz-adv-x="507"
d="M250 483q20 5 59 5q55 0 86 -10t65 -42q22 -22 28 -32.5t6 -25.5q0 -23 -15 -53q-17 -32 -75 -77t-115 -70q-29 -13 -40 -13q-18 0 -18 28q0 15 17.5 35t32.5 20q7 1 21 8.5t14 10.5q0 1 -2 1t4.5 7t19.5 19q61 55 61 89q0 1 -0.5 3t-0.5 3q-4 16 -12 20.5t-37 7.5h-6
q-28 0 -76.5 -13.5t-74.5 -29.5q-20 -13 -36 -35.5t-16 -36.5q0 -3 2 -7q6 -10 12 -34q5 -23 18 -61q10 -26 10 -39v-6q0 -11 6 -34q26 -101 32 -213q2 -60 7 -86q2 -14 2 -17q0 -10 -14 -17q-8 -4 -20 -4q-20 0 -39 11.5t-26 29.5q-6 16 -6 46v7v7q0 35 -23 231
q-5 46 -12 57.5t-33 19.5q-20 5 -25.5 10t-5.5 15q0 17 -6 17q-7 0 -7 10q0 19 24 56q26 40 30 54q7 18 13 18t6 7q0 6 14 26t30 36q18 20 121 41z" />
    <glyph glyph-name="q" unicode="q" horiz-adv-x="451"
d="M260 347q3 9 1.5 12t-9.5 2q-31 -3 -42 -8.5t-21 -22.5q-15 -25 -29 -25q-8 0 -11 9q-1 5 -5 5q-9 0 -22 -24.5t-17 -50.5q-1 -6 -1 -24q0 -17 1 -23q3 -13 8 -18.5t16 -7.5q1 0 3 -0.5t4 -0.5q26 0 78.5 19t68.5 35l17 18l-22 44q-19 38 -19 55q0 1 0.5 3t0.5 3zM88 417
q21 30 42 30q13 0 21 -11q8 -9 27 -9q5 0 25 2t26 2q23 0 48 -16q29 -16 50 -37q18 -19 38 -55t26 -59q30 -116 36 -193q11 -170 11 -183q0 -7 -0.5 -11.5t-1.5 -8t-1.5 -4.5t-3 -3.5l-3.5 -3.5q-13 -14 -23 -5q-11 9 -25 16q-37 17 -43 98q-7 95 -8 105q-3 36 -6.5 46.5
t-11.5 10.5q-13 0 -13 -4q0 -6 -41 -23t-78 -27q-18 -4 -23 -4q-23 0 -72 34q-33 22 -48.5 47t-22.5 66q-1 4 -1 12q0 33 15.5 81t33.5 70q3 3 27 37z" />
    <glyph glyph-name="r" unicode="r" horiz-adv-x="438"
d="M170 515q15 3 23 3q15 0 50 -17q67 -31 117 -81q65 -65 65 -94q0 -11 -8 -19q-11 -11 -21 -11q-19 0 -64 44q-85 82 -130 82q-12 0 -18.5 -6.5t-17.5 -26.5q-20 -42 -29 -84l-11 -50l21 -65q22 -71 28 -85q6 -12 6 -24q0 -26 -25 -39l-21 -12l-32 33q-33 33 -33 56
q0 26 -10 49q-11 24 -11 47t-14 67q-13 40 -19 87l-4 41l24 -3q10 -2 21.5 -5.5t14.5 -3.5q11 0 22 29q12 29 36 57t40 31z" />
    <glyph glyph-name="s" unicode="s" horiz-adv-x="402"
d="M191 517q18 12 34 12q31 0 33 -41q0 -11 -9 -23.5t-38 -39.5q-29 -26 -57 -59.5t-28 -41.5l1 -1q1 -1 48 20q56 27 97 27q7 0 19 -2q13 -3 42 -29.5t41 -45.5q15 -23 15 -67q0 -22 -4 -34q-11 -33 -67.5 -79t-85.5 -46q-11 0 -14 -5q-1 -4 -27 -6q-22 -2 -33 -7
q-8 -6 -22 3q-19 9 -36 12t-46 21.5t-29 26.5q0 6 58 6q59 0 66 7t27 9t45 18q27 16 31 16q8 0 24 22.5t21 40.5q4 18 4 19q0 9 -9 21q-11 14 -21 14q-4 0 -7 -1q-55 -12 -110 -46q-38 -24 -70 -24q-18 0 -32 9q-40 25 -40 55q0 34 64.5 120t114.5 119z" />
    <glyph glyph-name="t" unicode="t" horiz-adv-x="482"
d="M176 623q10 7 18 7q15 0 47 -25q26 -20 26 -41q2 -29 11 -62l11 -40h59q73 0 96.5 -11.5t24.5 -46.5q0 -10 -20 -23.5t-38 -15.5q-59 -10 -77.5 -15t-18.5 -12q0 -3 2 -14.5t6 -30t6 -33.5q7 -38 23 -115q8 -35 8 -46t-8 -29q-12 -23 -19 -23q-13 0 -48 27t-37 39
q-4 21 -15 81.5t-15 83.5l-10 49l-62 3q-61 2 -91 23q-43 29 -43 59q0 12 8 20q12 12 55 12q5 0 17 -0.5t19 -0.5l75 -2l-3 27q-3 21 -13 66q-8 31 -8 54q0 25 14 35z" />
    <glyph glyph-name="u" unicode="u" horiz-adv-x="359"
d="M241 520q12 4 12 5q2 0 20 -10q14 -7 24 -22t10 -29v-10q0 -14 5 -39q2 -8 5 -26t7.5 -44t7.5 -43q14 -73 14 -100q0 -22 -7 -44q-8 -28 -41.5 -60t-63.5 -41q-18 -6 -33 -6q-19 0 -37.5 11.5t-51.5 40.5q-14 13 -37 46.5t-23 41.5q0 10 -6 16q-7 8 -15.5 57t-9.5 90
q-2 50 -7 91q-2 22 -2 27q0 17 8 25q8 6 17 6q22 0 47 -22q13 -11 16 -24.5t6 -67.5q8 -164 56 -220q3 -3 7 -7.5t6 -6.5t4 -4.5t4 -3t4 -0.5q3 0 17 7q22 12 35 42q14 29 14 64q0 4 -0.5 12.5t-0.5 14.5q-5 95 -13 103q-3 2 -5 26q0 23 -9 46q-5 13 -5 24q0 29 21 34z" />
    <glyph glyph-name="v" unicode="v" horiz-adv-x="414"
d="M334 496q0 5 14 7h1q17 0 35 -27.5t18 -50.5q0 -12 -7 -18q-10 -7 -17 -37q-10 -43 -27 -132.5t-20 -119.5q-5 -40 -23 -54q-19 -14 -30 -14q-7 0 -7 7t-6 7q-10 0 -30 23.5t-30 46.5q-12 30 -23 49q-10 17 -14 30q-4 12 -10 12t-6 10t-16.5 37t-31.5 40q-15 15 -15 22
q0 8 -14 19q-13 9 -38 43.5t-25 43.5t12.5 17.5t25.5 8.5q1 0 3 -0.5t3 -0.5q30 -7 70 -59q12 -15 26 -32t20 -24.5t17 -23t26 -37.5q33 -49 36 -49q1 0 2 2t2 6t2 9.5t2 11.5q1 12 20.5 94t19.5 97q0 12 8.5 24t16.5 12q3 0 4 -1q6 -5 6 1z" />
    <glyph glyph-name="w" unicode="w" horiz-adv-x="573"
d="M480 505q11 11 19 11q11 0 33 -19l23 -20l4 -105q1 -25 1 -63q0 -26 -1.5 -47.5t-3 -32.5t-7 -42.5t-8.5 -48.5q-7 -42 -11.5 -56t-14.5 -20q-10 -5 -15 -5q-6 0 -22 7q-21 12 -30 22q-11 11 -17 11q-8 0 -36 33q-25 30 -44 49q-18 18 -28 42q-8 18 -10 19q-3 0 -4 -7
q-2 -15 -16 -43q-14 -34 -14 -37q0 -12 -21 -50t-33 -48q-13 -10 -19 -10q-5 0 -19 8q-26 17 -49 41q-21 22 -25.5 34t-9.5 54q-11 85 -27 140q-6 21 -27.5 60.5t-29.5 42.5q-6 3 -6 17q0 26 12 40q11 12 30 12q34 0 43 -25q6 -14 26.5 -61t35.5 -85t18 -55q3 -20 7 -47
t8 -27q2 0 6 6q20 29 35 139q6 52 40 52q6 0 9 -1q13 -2 71.5 -72.5t62.5 -88.5q3 -12 14 -26.5t18 -14.5q1 0 2 1q3 5 13 45q9 32 9 116v34v45q0 64 8 76z" />
    <glyph glyph-name="x" unicode="x" horiz-adv-x="418"
d="M331 516q7 6 18 6q20 0 38 -18q18 -16 18 -37q0 -24 -26 -56q-51 -62 -76 -113l-17 -34l16 -20q16 -21 45 -49q22 -21 28.5 -33.5t11.5 -44.5q1 -5 1 -12q0 -13 -13 -20q-17 -7 -26 -9q-8 0 -35.5 23.5t-27.5 30.5q0 6 -19.5 33.5t-24.5 28.5q-4 0 -17 -18
q-17 -24 -32 -42q-20 -24 -20 -30q0 -9 -5 -10q-5 -2 -29 -39q-40 -64 -76 -64q-19 0 -35 21t-16 44q0 9 5 9q2 0 3 -1q4 -3 4.5 0.5t1 9t2.5 6.5q7 1 64 82q18 28 46 65q31 44 31 56q0 9 -17 34q-12 18 -21 37.5t-26 39.5q-23 25 -23 35q0 9 -10 17q-7 6 -7 16
q0 13 10 25.5t26 16.5q2 1 6 1q13 0 31 -18q21 -21 21 -27q0 -5 29.5 -51t29.5 -49q1 -2 3 -2q10 0 38 40t49 83q13 30 23 37z" />
    <glyph glyph-name="y" unicode="y" horiz-adv-x="444"
d="M338 497q16 7 25 7q21 0 48 -25q20 -19 20 -32q0 -3 -2 -15q-6 -29 -28 -101t-28 -82q-7 -12 -7 -26q0 -15 -7 -18q-7 -5 -7 -15q0 -12 -16 -46q-33 -71 -64 -159t-31 -113q-1 -20 -13.5 -36.5t-26.5 -16.5t-35.5 11.5t-22.5 18.5q0 2 -0.5 8.5t-0.5 9.5q0 74 16 111
q13 26 13 33q0 5 9 19q9 12 21.5 50.5t19.5 50.5l13 24l-17 20q-17 19 -17 29q0 8 -32.5 43.5t-45.5 41.5q-8 4 -61 51q-32 29 -40.5 40.5t-8.5 26.5q0 22 19 32q10 5 19 5q25 0 68 -43q22 -23 68 -61t52 -43q29 -26 35 -26q3 0 3 7q0 6 15 40q7 15 10 23t5.5 19.5t3 16
t2.5 24t3 32.5q3 36 7 46.5t16 17.5z" />
    <glyph glyph-name="z" unicode="z" horiz-adv-x="655"
d="M67 454q15 5 27 5q5 0 7 -1q16 -6 145 -6q92 0 136 4q34 2 40 2q26 0 47 -16q35 -25 35 -41q0 -14 -19 -32.5t-72 -60.5q-45 -36 -48 -36t-73 -50q-34 -24 -52 -33q-21 -11 -21 -17q0 -5 -16 -11q-14 -5 -14 -6q0 -2 11 -2q20 0 58 8q41 9 57 9h3l2 -1q2 -1 11 -1
q17 0 35 3q7 1 32.5 5.5t35.5 5.5q57 6 149 30q20 4 21 4q10 0 23 -13q15 -17 15 -31q0 -13 -15 -24q-15 -9 -57.5 -20t-79.5 -15q-61 -6 -159 -24q-25 -5 -36 -5q-5 0 -6 1h-2q-8 0 -48 -9q-44 -11 -107 -11q-41 0 -56.5 3t-32.5 14q-31 20 -31 37q0 8 8 12q10 5 27 22
q7 8 112.5 81t119.5 80q13 9 39 33.5t26 28.5q0 1 -14 1q-32 0 -75 -5h-4q-4 0 -10 -0.5t-13 -0.5t-26.5 0.5t-31.5 0.5l-80 1l-18 23q-24 30 -24 42q0 10 19 16z" />
    <glyph glyph-name="braceleft" unicode="{" horiz-adv-x="520"
d="M289 779q11 4 20 4q10 0 27 -7q20 -8 20 -19q0 -7 -23 -34q-42 -45 -69 -85q-52 -81 -59 -162l-4 -41l31 1h9q22 0 42 -19q19 -19 19 -30q0 -2 -2 -16q-3 -19 -10 -29t-34 -32q-8 -7 -10 -5t-5 2q-24 0 -53 -29l-22 -22l20 -5q87 -23 119 -26q25 -2 34.5 -5.5t17.5 -12.5
q8 -11 8 -28q0 -19 -9.5 -34.5t-23.5 -15.5q-11 0 -11 -5t-22 -12q-22 -9 -43 -30q-58 -57 -58 -122q0 -68 61 -99q29 -15 42 -15q3 0 15 2q19 3 53.5 19t58.5 33q9 7 15 10t18.5 5.5t16.5 3.5l2 1h2q10 0 17.5 -10.5t7.5 -23.5q0 -5 -1 -8q-7 -30 -73 -60.5t-123 -30.5
q-12 0 -17 1q-28 4 -76 27q-110 56 -110 147q0 35 17 78q9 23 27 51t30 38q39 30 39 37q0 5 -18 7q-15 2 -34 7q-11 3 -47.5 3t-62.5 4t-26 17q0 7 -12 19q-8 8 -8 17q0 18 36 39q24 14 69 50t45 41q0 2 -6 10q-30 30 -30 89v5q2 49 7 62q14 46 33.5 91t29.5 58q73 85 93 94
z" />
    <glyph glyph-name="bar" unicode="|" horiz-adv-x="279"
d="M17 803q3 3 15 3q19 0 48 -7t44 -16q23 -15 23 -25q0 -6 -3 -16q-4 -15 -4 -53q0 -79 14 -168q10 -74 10 -78q0 -20 5 -56q13 -76 41 -278q5 -40 24 -121t26 -96q6 -14 6 -20t-8 -22q-8 -12 -14 -15.5t-24 -3.5h-12q-41 2 -56 20t-19 72q-5 54 -11 78q-7 29 -23 153
q-37 302 -42 327q-17 79 -17 149v9q0 29 -7.5 72.5t-14.5 50.5t-7 22q0 14 6 19z" />
    <glyph glyph-name="braceright" unicode="}" horiz-adv-x="368"
d="M26 795q13 6 25 6q19 0 41 -22q20 -22 20 -25q0 -4 32 -28q75 -57 75 -82q0 -36 -41 -120q-21 -42 -21 -55q0 -10 10 -10t17 -10q12 -12 33 -21q26 -11 28 -16q3 -4 43 -17q63 -20 66 -49q0 -3 0.5 -7.5t0.5 -6.5q0 -14 -14 -28q-11 -11 -42 -31.5t-38 -20.5
q-8 0 -28 -17q-6 -4 -10.5 -8.5t-6 -7t-0.5 -2.5q6 0 -12 -18l-17 -18l11 -22q7 -14 31 -51q47 -70 47 -113q0 -2 -0.5 -5.5t-0.5 -5.5q-8 -77 -76 -155q-10 -12 -32.5 -21t-40.5 -9q-2 0 -4.5 0.5t-3.5 0.5q-46 10 -46 36q0 10 4.5 14.5t17.5 6.5q28 6 55 46.5t32 83.5
q1 7 1 18q0 18 -17 51q-19 37 -22 37q-4 0 -24 29q-8 12 -17 21t-13 9q-9 0 -29 19t-25 32q-2 6 -2 11q0 29 24 51q18 16 92 29q22 4 44 18t22 24q0 8 -41.5 28.5t-76.5 31.5q-26 9 -42.5 27t-16.5 38q0 6 1 9q3 17 15 25q9 5 36 57t31 75q2 8 2 10q0 9 -15 23
q-3 3 -12 10.5t-19 16t-17 15.5q-34 28 -40 28q-8 0 -8 30q0 19 2.5 25t11.5 10z" />
    <glyph glyph-name="asciitilde" unicode="~" horiz-adv-x="713"
d="M607 517q0 40 35 40q17 0 37.5 -11t20.5 -20q0 -4 -20.5 -60.5t-20.5 -65.5q0 -8 -21.5 -36.5t-21.5 -34.5q0 -11 -26 -44.5t-36 -35.5q-15 -5 -38 -5q-88 0 -155 97q-30 41 -30 48q0 12 -13.5 31t-22.5 19q-25 0 -71.5 -39t-128.5 -129l-24 -27l-22 12q-23 11 -23 19
q0 4 7 4q4 2 -7 14q-14 14 -14 19q0 7 74.5 83.5t96.5 92.5q35 22 73 32q28 7 41 7t29 -8q26 -13 45.5 -33.5t41.5 -59.5q51 -90 79 -90h2q15 2 47 43.5t40 69.5q8 30 17 41q7 9 9 27z" />
    <glyph glyph-name="nbsp" unicode="&#xa0;"
 />
    <glyph glyph-name="periodcentered" unicode="&#xb7;" horiz-adv-x="317"
d="M125 520q29 6 54 6q77 0 103 -44q11 -18 14 -25q8 -45 8 -57q0 -15 -11 -39q-15 -29 -53 -53q-39 -24 -45 -24q-7 0 -9 -7t-36 -11q-8 -1 -21 -1q-19 0 -39 12q-33 22 -70 85q-8 13 -8 22q0 7 4 14q9 15 14 18q6 4 8 15q2 16 35.5 50t51.5 39z" />
    <glyph glyph-name="onequarter" unicode="&#xbc;" horiz-adv-x="651"
d="M314 511q5 12 11 15t26 3q31 0 50 -19q13 -14 15.5 -30.5t4.5 -94.5q2 -37 9 -44q3 -3 8 -3q21 0 66 42l27 25l-4 44q-2 22 -2 26q0 18 7 24.5t28 10.5h5q18 0 39.5 -11t28.5 -25q5 -10 5 -121q0 -248 -11 -277q-8 -20 -18 -23q-8 -2 -12 -2q-12 0 -22.5 5t-10.5 11
q0 11 -11 11t-18 19q-7 17 -7 102q0 65 5 73q3 7 -7 7q-11 0 -11 -7q0 -10 -31.5 -21t-55.5 -11h-6q-36 4 -49.5 12.5t-30.5 35.5q-14 23 -18.5 39.5t-6.5 55.5q-1 46 -7 85q-1 4 -1 12q0 19 5 31zM24 692q13 10 19 10q5 0 24 -17q15 -14 23 -37.5t15 -83.5q11 -77 11 -110
q0 -26 -11 -37q-10 -10 -26 -10q-18 0 -33 12q-16 14 -22 37.5t-6 76.5v31v27q0 68 -4 78q-6 12 10 23zM231 734q6 8 23 8q37 0 58 -23q15 -17 15 -35q0 -14 -6 -51q-9 -53 -52 -198q-25 -87 -39 -188q-7 -51 -14 -68t-24 -19q-2 0 -5.5 -0.5t-4.5 -0.5q-28 0 -43.5 19.5
t-15.5 54.5q0 10 1 16q5 61 9 61q1 0 3 14q11 83 46 174q5 15 10 34.5t10.5 45.5t9.5 41q12 48 10 75q0 29 9 40z" />
    <glyph glyph-name="onehalf" unicode="&#xbd;" horiz-adv-x="743"
d="M276 359q17 4 57 4q53 0 109.5 -7.5t69.5 -17.5q9 -8 9 -25q0 -45 -35 -88q-49 -60 -49 -67h1q14 0 63 11q73 15 135 15h20q33 0 44 -2.5t20 -11.5q9 -11 9 -19q0 -13 -17 -27q-11 -10 -31 -14t-81 -9q-59 -5 -78 -8t-54 -16q-38 -14 -61 -14q-21 0 -33 -7q-6 -3 -14 -3
q-23 0 -49 20.5t-27 42.5q0 15 37 54q28 31 51 62.5t23 39.5q0 5 -22 7q-55 1 -71 5.5t-35 23.5t-19 31q0 14 28 20zM96 305q0 7 14 32t14 32q0 11 11 20q10 8 10 21q0 5 5.5 21t12 33t7.5 19q1 6 16 44q14 35 22 75q9 37 15 41q5 3 5 28q0 15 4.5 21t18.5 12q22 11 35 11h1
q13 0 32.5 -10.5t22.5 -18.5v-2q1 -2 1 -3q0 -18 -17 -59q-9 -25 -28 -84q-30 -88 -57 -156q-7 -18 -18 -46t-18 -45.5t-10 -24.5q-15 -36 -38 -62q-27 -31 -48 -31q-18 0 -33 21q-13 17 -13 27q0 9 16 40q17 31 17 44zM32 712q10 10 21 10q9 0 25 -6q13 -5 20 -27.5
t23 -115.5q10 -62 10 -101q0 -23 -4 -27q-4 -5 -25.5 -11t-32.5 -6h-4q-15 6 -39 68q-7 13 -9 94q-2 80 -4 87q-1 4 -1 12q0 18 4 18h1q6 -4 15 5z" />
    <glyph glyph-name="Adieresis" unicode="&#xc4;" horiz-adv-x="585"
d="M299 513q-3 1 -16 24t-17 23q-5 0 -24.5 -41t-40 -89.5t-21.5 -51.5q-3 -5 1 -7.5t19 -4.5q6 -1 22 -1q42 0 92 10t50 20q0 2 -29.5 53.5t-29.5 55.5q0 5 -6 9zM165 489q0 4 10.5 27t10.5 26q0 6 16.5 39.5t22.5 37.5q7 5 7 19q0 11 12 23q8 8 19 8q7 0 11 -1
q31 -7 34 -33q2 -16 30 -63q15 -26 39 -72.5t37 -67.5q11 -20 22 -20q8 0 14 1q2 0 5.5 0.5t5.5 0.5q34 0 39 -18q0 -2 0.5 -4.5t0.5 -3.5q0 -17 -24 -24l-21 -8q0 -3 22 -43t42 -78t17 -38t4 -9q26 -30 30 -69q3 -19 -10 -25q-14 -8 -27 -4q-11 3 -28.5 22t-17.5 29
q0 11 -26 63q-26 56 -26 58l-3 6q-3 5 -8.5 15t-10.5 18q-21 35 -29 35q-1 0 -2 -0.5t-2 -0.5q-2 -1 -44.5 -9.5t-47.5 -11.5q-8 -5 -70 -5q-49 0 -53 4l-2 2l-2 1q-4 0 -30 -78q-19 -52 -19 -63q0 -3 -16 -35q-10 -21 -21 -50q-9 -24 -12 -27q-4 -6 -15 -6q-15 0 -24 9
q-13 13 -13 24t15 41q19 38 39 100q29 90 78 219q12 30 17 32q4 2 4 7zM330 751q10 3 23 3q21 0 31 -7q15 -11 15 -48q0 -6 -2 -14q-5 -17 -21 -17q-7 0 -22 5l-16 8q3 2 -5 20q-11 27 -11 37q0 11 8 13zM127 793q9 6 18 6q15 0 29 -13t14 -28q0 -14 -8 -38t-18 -37
q-10 -14 -26 -8q-15 6 -20 14q-5 10 -13 18q-7 7 -3 18q1 3 4.5 15.5t6.5 21.5t7.5 18.5t8.5 12.5z" />
    <glyph glyph-name="Odieresis" unicode="&#xd6;" horiz-adv-x="479"
d="M306 539q-13 4 -38 4q-62 0 -102 -21q-17 -8 -11 -14t6 -15q0 -17 -14 -31q-26 -26 -48 -81.5t-22 -93.5q0 -31 -4 -33q-2 -2 -2 -7q0 -14 6.5 -41.5t13.5 -41.5q21 -44 58 -44q19 0 54 11q59 19 113 62.5t68 82.5q3 8 6.5 18t5.5 15t4.5 16t4.5 27q4 32 4 35q0 13 -6 35
q-25 96 -97 117zM207 584q8 2 32 2q33 0 53 -4q38 -7 82.5 -36.5t51.5 -52.5q2 -10 10 -18q10 -11 20 -49.5t10 -72.5q0 -23 -6 -38q-9 -24 -10 -35q-8 -41 -42.5 -84t-77.5 -65q-13 -6 -31 -18q-6 -6 -46.5 -21.5t-59.5 -19.5q-17 -3 -33 -3q-54 0 -92 37q-24 24 -24 27
l-15 34q-16 33 -17 69v12q0 74 22 137q15 41 15 60q0 6 -2 30v7q0 15 21 37q45 45 139 65zM56 763q5 4 14 4q16 0 30.5 -11.5t14.5 -25.5q0 -1 -0.5 -2.5t-0.5 -2.5q-4 -13 -8 -15t-4 -13t-13 -14q-1 0 -4 -0.5t-4 -0.5q-22 0 -35 22q-5 12 -5 16q0 1 4 19q6 20 11 24z
M219 786q15 5 25 5q7 0 7 -2q0 -7 9 -12q12 -5 12 -14q2 -46 10 -66q5 -13 5 -19t-8 -16q-7 -8 -19 -8q-20 0 -37 23q-14 21 -18 57q-2 26 -2 28q0 11 3 15.5t13 8.5z" />
    <glyph glyph-name="multiply" unicode="&#xd7;" horiz-adv-x="308"
d="M202 554q4 1 14 1q35 0 44 -14q8 -10 8 -25q0 -17 -11 -33q-54 -81 -59 -81q-6 0 -6 -6q0 -16 21 -30q13 -8 32 -23t30 -23q20 -14 20 -37q0 -15 -9.5 -26t-25.5 -11q-15 0 -29.5 10t-57.5 51l-22 22l-17 -31q-18 -33 -20 -61q-5 -44 -9 -51.5t-24 -7.5q-25 0 -41 20
q-16 19 -16 37q0 2 0.5 6.5t0.5 7.5q1 21 9.5 41t37.5 77q5 10 5 14q0 8 -30 41q-35 38 -35 52q0 9 10 12q8 3 16 3q17 0 72 -40q8 -5 11 -5q5 0 20 22q16 27 21 30q1 1 16 29t24 29z" />
    <glyph glyph-name="Udieresis" unicode="&#xdc;" horiz-adv-x="575"
d="M30 706q7 8 17 8q12 0 24 -11q13 -12 13 -29q0 -10 -5 -50q-4 -24 -4 -64q0 -82 17 -178q7 -39 26 -86.5t40 -78.5q14 -19 42.5 -52t37.5 -40q15 -12 33 -12q14 0 23 5q14 8 21 8q3 0 14.5 9t24 19t24 20.5t12.5 10.5q9 5 24 30q15 24 26 37t27 46.5t22 56.5
q14 50 14 103q0 49 -11 94q-7 31 -15.5 48t-30.5 42q-24 27 -24 36q0 5 8 8t14 3q17 0 60 -40q17 -15 17 -30q0 -14 5 -14t5 -11q0 -8 4 -8t16 -45q11 -43 11 -73q0 -22 -1 -37q-4 -67 -6 -73q-19 -79 -44 -121t-96 -112q-69 -67 -118 -67h-2q-16 0 -43 7.5t-35 14.5
q-1 1 -15.5 12t-27 22t-12.5 15q0 7 -7 11q-7 5 -32 35t-34 45q-30 49 -50 107q-13 42 -24 147q-3 33 -3 74q0 138 18 158zM275 789q3 3 15 3q15 0 35 -5q27 -7 27 -30q0 -7 -3 -18t-7.5 -15t-15.5 -6q-19 -4 -27 3q-10 7 -18.5 25t-8.5 32q0 8 3 11zM152 827q6 8 23 8
t39 -22q21 -22 21 -41q0 -14 -13 -20q-6 -3 -12 -3q-20 0 -41.5 22t-21.5 42q0 7 5 14z" />
    <glyph glyph-name="germandbls" unicode="&#xdf;" horiz-adv-x="645"
d="M368 780q16 2 23 2q31 0 50.5 -12.5t19.5 -32.5q0 -15 -19.5 -68t-37.5 -86q-2 -3 -13 -22t-21 -36.5t-21 -38.5t-18 -36.5t-7 -21.5t44 -8q45 -3 54 -9q8 -6 36.5 -14t41.5 -8q6 0 9 -2t1 -5q-4 -6 3 -6t39 -15q80 -38 80 -94q0 -40 -44 -89q-53 -58 -100 -72
q-8 -3 -13 -3q-10 0 -26 13q-24 18 -24 34q0 13 17 28q19 19 30 19q14 0 41 32.5t27 49.5t-72.5 38.5t-127.5 21.5q-12 0 -17 -1t-15 -1q-23 0 -45.5 5.5t-22.5 11.5q0 9 -14 23q-17 17 -17 27q0 12 27.5 58t34.5 46l4 1v1q-1 1 -1 2q0 10 86 182q0 1 -1.5 2.5t-5.5 2
t-9 0.5q-18 0 -50 -7q-18 -3 -77 -17q-73 -16 -73 -32q0 -4 -11 -13q-8 -6 -8 -27q0 -19 6 -83q8 -87 10 -161t9.5 -126t29.5 -138q10 -45 10 -68q0 -29 -11 -32q-11 -5 -23 10q-10 14 -17 14q-6 0 -15 39q-3 11 -15 51t-15 62q-7 29 -9 33q-8 14 -16 208q-2 33 -6 41
q-4 5 -4 22v7q0 29 -3 71q-2 42 -6 54.5t-18 27.5q-20 21 -20 41q0 22 8 43t18 26q12 6 35 6q28 0 39 -7q8 -4 18 -4q5 0 29 4q29 6 70 12.5t67 11.5q60 11 72 12z" />
    <glyph glyph-name="adieresis" unicode="&#xe4;" horiz-adv-x="495"
d="M343 334q0 8 -5 11t-20 3q-35 -1 -105.5 -30t-96.5 -54q-15 -13 -15 -25q0 -9 12 -11q3 0 11 -0.5t11 -0.5h7q48 0 124.5 40.5t76.5 66.5zM284 412q14 2 21 2q31 0 50 -21q14 -18 30 -18t38 -22q17 -14 21 -23.5t4 -32.5q0 -80 25 -168q9 -29 9 -36t-9 -13t-19 -6
q-22 0 -44.5 25.5t-30.5 61.5q-6 30 -9.5 39t-13.5 9t-51 -19q-89 -39 -144 -39q-44 0 -81 23q-58 38 -67 83q-1 3 -1 8q0 30 55 66q32 21 105 48t112 33zM66 679q16 8 21 8t31 -21q24 -21 24 -37q0 -15 8 -23t17.5 -35t9.5 -42q0 -14 -11 -28.5t-23 -14.5q-10 0 -30 20
t-20 31q0 10 -16 28q-17 18 -10 20q2 0 2 3q0 8 -10 26q-12 22 -12 37q0 19 19 28zM256 681q17 10 20 10q5 0 20 -12q39 -26 39 -61q0 -2 -0.5 -5t-0.5 -4q-6 -46 -36 -46q-13 0 -36.5 22.5t-23.5 34.5t-5 12t-5 6q0 8 9 22t19 21z" />
    <glyph glyph-name="odieresis" unicode="&#xf6;" horiz-adv-x="457"
d="M307 402q-21 8 -48 8q-22 0 -41 -5q-40 -9 -40 -18q0 -5 4 -13q3 -7 3 -13q0 -10 -24 -45q-29 -42 -29 -47t-9 -16q-9 -10 -16.5 -34.5t-7.5 -42.5q0 -7 1 -10q7 -25 49 -25q13 0 26 3q40 7 102.5 44.5t62.5 54.5q0 9 6 9t11 20.5t5 42.5q0 12 -1 17q-7 54 -54 70z
M187 475q8 5 30 5q46 0 90 -13q32 -9 63.5 -34t49.5 -55q25 -39 25 -95q0 -38 -14 -66q-12 -24 -36 -53.5t-31 -29.5q-5 0 -20 -13q-22 -20 -85 -40.5t-102 -20.5h-9q-39 4 -77 31.5t-52 63.5q-7 17 -7 41q0 43 22 89q24 47 37 58q18 16 14 25q-2 9 4 13q8 4 8 24
q0 21 15.5 38t38.5 21q20 3 36 11zM68 665q9 10 19 10t30 -7q21 -8 28 -22t8 -50v-10q0 -30 -11 -42q-12 -13 -20 -13q-10 0 -23 15q-38 41 -38 92q0 19 7 27zM314 736q16 4 18 4q8 0 12 -6q7 -9 15 -9q23 0 23 -74q0 -72 -29 -72q-13 0 -28 16q-23 24 -34 78q-3 17 -3 28
q0 27 26 35z" />
    <glyph glyph-name="divide" unicode="&#xf7;" horiz-adv-x="560"
d="M347 206q11 4 14.5 3t3.5 -9q0 -10 -9 -13q-1 -1 -4 -1q-11 0 -11 12q0 5 6 8zM232 274q19 11 31 11q15 0 37 -18q25 -20 25 -45q0 -18 -15 -33q-13 -13 -27 -13q-18 0 -44 26q-26 28 -26 45q0 14 19 27zM421 460q39 6 60 6q32 0 50 -18q16 -18 16 -32q0 -6 -4 -10
q-2 -2 -56 -9q-55 -7 -124 -32q-159 -56 -231 -56q-13 0 -19 1q-37 3 -53.5 13t-37.5 42q-10 15 -10 19q0 5 12 14q18 13 43 13q14 0 14 -6q0 -7 15.5 -12t36.5 -5q9 0 25 2q96 19 141 38q51 22 122 32zM169 573q4 4 13 4q15 0 36 -8.5t32 -19.5q17 -17 17 -34q0 -5 -2 -23
q-4 -37 -19 -48q-16 -11 -28 -11q-16 0 -43 24q-23 22 -23 29q0 3 4 9q8 11 8 43t5 35z" />
    <glyph glyph-name="udieresis" unicode="&#xfc;" horiz-adv-x="510"
d="M354 525q9 6 18 6q30 0 46 -55q2 -9 7 -26.5t6 -21.5q3 -16 25 -30q25 -16 32 -42t8 -107v-48q0 -31 -2 -40t-9 -13q-12 -6 -22 -6q-14 0 -29 12q-16 11 -19 11q-5 0 -9 -16q-3 -14 -27 -43.5t-40 -37.5q-13 -7 -30 -7q-37 0 -76.5 31.5t-54.5 76.5q-7 21 -13.5 85.5
t-6.5 111.5q0 28 3 39q4 13 11 13q2 0 16 -2q31 -7 38.5 -22t7.5 -74q0 -73 13 -123t34 -58h3q12 0 35 19.5t33 38.5q14 24 14 49q0 24 5 46q2 6 2 29q0 41 -7.5 94.5t-14.5 62.5q-10 10 -10 23q0 15 13 24zM328 663q0 6 3.5 7.5t7 -1t3.5 -6.5t-3.5 -6.5t-7 -1t-3.5 7.5z
M30 728q12 6 25 6q18 0 39 -15q13 -10 16.5 -17t3.5 -29v-24q0 -36 -2 -47t-11 -18q-13 -11 -26 -11q-10 0 -18 8q-23 24 -30.5 36t-7.5 25q0 2 0.5 5t0.5 5q1 4 1 11q0 17 -5 27q-4 7 -4 14q0 15 18 24zM221 745q15 14 24 14q8 0 26 -9q33 -16 33 -61q0 -21 -10 -34
t-26 -13h-2q-25 1 -49 33q-13 17 -13 35q0 21 17 35z" />
    <glyph glyph-name="emdash" unicode="&#x2014;" horiz-adv-x="953"
d="M794 321q15 1 33 2.5l30 2.5t15 1h2q16 0 34 -8t25 -18q9 -12 9 -29t-8 -28q-16 -21 -46 -21q-17 0 -23 10q-3 6 -37 6q-47 0 -225 -13q-173 -12 -219 -13q-216 -9 -263 -9q-13 0 -23 0.5t-15.5 1t-12 2.5t-7.5 2.5t-7.5 4t-7.5 4.5q-30 16 -36 31q-2 6 -2 8q0 24 96 25
q45 1 222 14q78 6 82 8q5 2 5 -3q0 -3 26 -3q10 0 42 2q42 3 155.5 9.5t155.5 10.5z" />
    <glyph glyph-name="quoteleft" unicode="&#x2018;" horiz-adv-x="212"
d="M126 761q14 18 33 18q23 0 35 -23q5 -13 5 -21q0 -13 -11 -45q-8 -25 -57 -140q-13 -32 -33.5 -61t-30.5 -29q-7 0 -34 21q-21 18 -21 29q0 10 15 30q19 23 51.5 97t32.5 94q0 11 15 30z" />
    <glyph glyph-name="quoteright" unicode="&#x2019;" horiz-adv-x="199"
d="M114 695q19 15 25 15q7 0 27 -22t20 -30q-1 -17 -12 -55t-18 -45q-10 -11 -30 -52q-16 -35 -45 -64q-22 -22 -36 -22q-6 0 -9 1q-19 5 -14 14q3 10 -3 14q-7 4 -7 15q0 25 29 62q10 14 16 36q6 25 15 28q10 3 10 19t7 21q6 3 6 28q0 22 19 37z" />
    <glyph glyph-name="quotedblleft" unicode="&#x201c;" horiz-adv-x="373"
d="M91 820q7 14 20 14q9 0 24 -6q24 -9 24 -34q0 -11 -4 -20q-1 -4 -6.5 -21t-14 -43t-15.5 -48q-29 -92 -46 -103q-10 -7 -20 -7q-23 0 -35 31q-7 15 -7 24q0 8 7 22q6 12 37 96.5t36 94.5zM288 892q16 11 25 11q13 0 31 -19q17 -18 17 -33q0 -8 -1 -12q-4 -26 -10 -34
q-9 -9 -27 -57q-19 -49 -24 -56q-6 -6 -6 -22q0 -14 -6 -28q-33 -69 -43 -86.5t-17 -17.5q-1 0 -7 2q-19 6 -25 17t-6 40t9.5 74.5t17.5 55.5q2 3 13 33t16 33t16 45q10 42 27 54z" />
    <glyph glyph-name="quotedblright" unicode="&#x201d;" horiz-adv-x="421"
d="M119 781q5 12 17 12q9 0 20 -15t11 -27q0 -13 7 -15q2 -1 2 -10q0 -19 -8.5 -57t-18.5 -60q-7 -16 -12 -35q-7 -28 -24.5 -62.5t-24.5 -36.5q-11 -2 -11 -9t-7 -7q-13 0 -36 20l-22 20l12 24q39 75 71 187q18 58 24 71zM331 850q11 12 18 12t28 -6q31 -8 31 -43
q0 -18 -4 -41q-6 -33 -24.5 -97t-25.5 -78q-7 -12 -7 -23q0 -14 -18.5 -40t-28.5 -26q-40 2 -40 60q0 34 16 72q10 23 10 28q1 1 2 5t1 5q8 26 19.5 76.5t11.5 62.5q0 22 11 33z" />
    <glyph glyph-name="V.ss01" horiz-adv-x="657"
d="M569 753q11 8 29 8h6q40 -5 40 -29q0 -33 -77 -122q-38 -46 -58 -85q-20 -38 -31 -47q-10 -8 -10 -15q0 -8 -4.5 -19t-8.5 -11q-5 0 -12 -22q-6 -18 -24 -52q-27 -48 -54.5 -129t-27.5 -112q0 -21 -7 -37t-9.5 -18.5t-8.5 1.5q-9 4 -27 6q-16 1 -29 13t-14 26q0 9 -8 17
q-9 7 -16 28q-8 24 -20 43q-10 16 -18.5 42t-14.5 38q-9 18 -17 45t-12 37q-12 24 -26.5 75t-20.5 67q-25 71 -30 88q-10 31 -23 59.5t-19 31.5q-5 2 -5 21q0 25 7 32t20 7q22 0 39 -17t17 -27q0 -11 21 -55q24 -54 61 -164q72 -212 88 -242q9 -19 11 -19t6 10q6 17 5 19
q0 3 7 12t13 27q17 54 54 134q5 10 9.5 21t7.5 17l3 7q9 26 26 50q37 54 55 91q16 32 22 36q9 9 39 53t46 60z" />
    <glyph glyph-name="T.ss01" horiz-adv-x="637"
d="M468 699q1 1 8 1q18 0 51 -4.5t41 -8.5q56 -26 56 -51q0 -19 -23 -38t-42 -19q-9 0 -13 6q-5 9 -72 9h-32q-98 -2 -108 -5q-6 -3 -6 -8t6 -24q10 -29 13 -51q4 -25 10 -37q19 -44 29 -122q13 -79 21 -124q15 -76 15 -112q0 -3 -0.5 -7.5t-0.5 -6.5q0 -8 -28 -17
q-18 -5 -23 -5q-10 0 -31 21q-22 22 -22 37q0 7 1 11t1 16q0 49 -18.5 166t-38.5 190l-19 68l-103 -3q-23 -1 -58 -1q-48 0 -58.5 9.5t-11.5 44.5q0 35 12 45t63 10q5 0 20 -0.5t23 -0.5h14q69 0 194.5 4t129.5 7z" />
    <glyph glyph-name="X.ss01" horiz-adv-x="659"
d="M357 299q0 -6 -24.5 -59.5t-24.5 -58.5q0 -17 -39 -99q-23 -52 -23 -66q0 -19 -18 -54t-27 -35q-5 0 -6.5 2.5t-0.5 5t0.5 4.5t-4.5 1h-4q-18 0 -38.5 17.5t-20.5 31.5q0 4 1 6l12.5 37.5t17.5 42.5q10 10 15 33q5 22 28.5 84.5t36.5 87.5q4 6 27 56l14 32l-21 23
q-21 22 -40 32q-26 14 -94 78t-96 101q-16 22 -16 30q0 6 3 13q5 11 12 14.5t25 3.5q20 0 34.5 -10.5t60.5 -57.5q50 -50 106.5 -97.5t65.5 -47.5h1q3 3 5 13q0 2 30 68t30 72q0 10 10 18q11 9 11 15q0 10 17 42q18 37 22 72q5 41 8.5 52t16.5 17q17 8 29 6q16 -2 23 -2
q13 -1 24.5 -17.5t11.5 -33.5q0 -65 -147 -357l-15 -29l17 -14q3 -2 44.5 -33.5t55.5 -45.5q33 -30 59 -50q20 -15 27 -20t17 -17.5t16 -19.5q14 -16 14 -32q0 -13 -13 -49q-8 -18 -14 -12q-7 7 -26 7t-35 14t-20 14q-5 0 -9 20q-3 14 -49 66.5t-56 52.5q-8 0 -18 12
q-7 9 -23 19.5t-22 10.5q-4 0 -4 -10z" />
    <glyph glyph-name="I.ss01" horiz-adv-x="668"
d="M382 715q22 3 57 3q61 0 72 -7q14 -7 27.5 -24.5t13.5 -26.5q0 -11 5 -11q2 0 2 -3q0 -8 -10 -24.5t-18 -19.5q-1 -1 -5 -1q-13 0 -26 8q-23 13 -81 13q-44 0 -44 -9q0 -8 11 -118q10 -101 14 -210q5 -102 8 -105q0 -1 5 -1q18 0 73 9t74 16q15 6 30 6q26 0 51 -20
q14 -13 14 -36q0 -20 -10 -35.5t-25 -15.5h-1h-6q-63 0 -139 -14q-52 -10 -53 -10q-111 -15 -163 -44q-27 -15 -44 -15h-2q-12 1 -32.5 28t-21.5 42q0 29 163 73q11 3 11 11q0 10 -11 21q-8 10 -8 16t5 19q8 23 5 26q-4 11 -7 103q-6 114 -11 140q-7 40 -7 74v31l-50 -9
q-29 -5 -72.5 -11t-74.5 -12q-34 -6 -44 -6h-4l-2 1q-9 4 -27 36q-12 23 -12 35q0 21 52 24q39 2 171 26q27 5 65 12t58 11t24 4z" />
    <glyph glyph-name="i.ss01" horiz-adv-x="241"
d="M127 502q19 19 24 19q4 0 22.5 -7.5t24.5 -10.5q9 -6 18 -89.5t11 -166.5q0 -9 0.5 -23.5t0.5 -19.5q0 -41 -17 -75q-19 -36 -19 -42q0 -7 -30 -26t-41 -19q-12 0 -12 8q0 9 -12 21q-7 9 -7 14q0 7 16 39l19 39v139q-2 137 -9 159q-5 12 -5 16q0 9 16 25zM31 768
q16 9 36 9q26 0 46 -13.5t20 -32.5q0 -5 -1 -8q-6 -27 -23 -42.5t-37 -15.5q-34 0 -50 39q-10 27 -10 37q0 17 19 27z" />
    <glyph glyph-name="quotedbl.ss01" horiz-adv-x="375"
d="M64 679v77h29q20 -1 27 -5t15 -21q12 -26 17 -92q2 -23 2 -49q0 -20 -9 -20q-12 0 -12 -7q0 -8 -10 -8q-23 0 -41 24q-12 15 -14.5 31t-3.5 70zM176 784q9 10 39 10q35 0 46 -12q10 -10 15 -82q6 -72 12 -86q7 -18 7 -41q0 -22 -18 -30t-27 -8q-14 0 -23.5 16.5
t-24.5 63.5q-14 48 -16 81q-2 32 -11 58q-4 9 -4 17q0 6 5 13z" />
    <glyph glyph-name="period.ss01" horiz-adv-x="157"
d="M38 109q24 23 40 23h4q20 -2 25 -8q5 -7 13 -7q3 0 6.5 -6t6.5 -11t6 -3h1q6 0 6 -24q0 -9 -3 -10q-5 -3 -3 -9q2 -7 -11 -24q-12 -17 -35 -18q-22 -2 -29 3q-3 2 -22 4q-13 1 -22 10.5t-11 20.5v8q0 26 28 51z" />
    <glyph glyph-name="l.ss01" horiz-adv-x="193"
d="M28 688q14 13 27 13t35 -20q15 -14 19 -24.5t5 -42.5q2 -37 6.5 -83t6.5 -69q7 -101 21 -209q1 -8 15 -65q17 -70 17 -101q0 -33 -18 -47q-8 -6 -17 -6q-23 0 -45 28t-27 66q-1 11 -15 99q-9 59 -9 74q0 1 1 3v1q1 1 1 8q0 13 -3 31q-4 26 -12 135.5t-14 140.5l-10 54z
" />
    <glyph glyph-name="M.ss01" horiz-adv-x="629"
d="M437 748q9 14 47 14q22 0 33 -8q15 -12 43 -69t39 -99q12 -46 12 -105q0 -57 -9 -262q-1 -24 -1 -58q0 -45 6 -54q9 -11 9 -39q0 -23 -7 -33q-8 -10 -4 -21q2 -7 -3 -7q-7 0 -11 8v4q2 7 -4.5 7t-11.5 -7q-3 -4 -12 -4q-29 0 -48 17q-17 15 -17 120q0 56 4 111
q8 118 8 153q2 47 8 53q3 5 3 15q0 12 -4 25q-8 34 -8 52q0 20 -10 20q-7 0 -8 -13q-1 -6 -5 -45t-7 -52q-3 -9 -12 -67t-13 -68q-10 -20 -31 -115q-8 -38 -17 -53.5t-24 -15.5q-12 0 -36 11q-15 7 -24.5 18.5t-9.5 22.5q0 1 0.5 2.5t0.5 2.5q2 5 -4 5q-4 0 -10 13.5
t-11.5 28.5t-7.5 17q-11 17 -24 60.5t-13 66.5q0 22 -5 22q-6 0 -18 -26t-20 -57q-18 -69 -28.5 -97t-33.5 -72q-31 -60 -31 -70q0 -7 -14 -12.5t-32 -5.5q-16 0 -34 20q-15 15 -15 28q0 14 23 49q41 59 64 139q14 49 20 59q14 18 25 81q3 15 15 45q18 39 22 74q2 17 7.5 24
t20.5 14t42 7h7q18 -1 22.5 -6t10.5 -29q5 -18 11.5 -55.5t14.5 -60.5q11 -31 11 -45q0 -18 8 -47q8 -33 20 -33q7 0 7 17q0 31 22 77q10 22 31 144q9 58 18 73q5 6 5 19q0 11 -4 27q-4 15 -4 25q0 11 6 20z" />
    <glyph glyph-name="S.ss01" horiz-adv-x="604"
d="M250 310q0 3 -4 3q-3 0 -3 -3q0 -4 3 -4q4 0 4 4zM409 351q0 4 -3 4q-4 0 -4 -4q0 -3 4 -3q3 0 3 3zM290 744q16 24 23.5 29t26.5 5q8 0 15 -1.5t11 -2.5t9 -5.5t6.5 -6t6.5 -7.5t6 -8q8 -10 8 -19t-33.5 -44.5t-50.5 -44.5q-20 -9 -20 -16q0 -6 16 6l2 2q1 0 -2.5 -4
t-11.5 -12.5t-18 -17.5q-44 -42 -50 -42q-5 0 -5 -7q0 -6 -41 -47q-57 -55 -70 -98q-2 -8 -2 -12q0 -21 34 -21q46 0 190 47q142 47 171 47q13 0 27 -6q53 -20 53 -81q0 -18 -5 -50q-4 -25 -27.5 -78t-29.5 -53q-23 0 -23 -9q0 -7 -24 -29q-20 -18 -20 -26l1 -2q-2 -3 -7 -4
q-7 0 -13 -13.5t-12 -13.5q-3 0 -4 1q-10 5 -16 -5q-13 -20 -82 -28q-5 -1 -18 -1q-41 0 -92.5 12.5t-63.5 27.5q-16 18 -28 24q-14 10 -12 21q2 12 -6 18q-9 4 3 16q6 6 12 6q11 0 50 -20q50 -24 80 -24q22 0 61 11q27 8 42.5 18t42.5 38q10 11 17.5 19t14 16.5t10 12.5
t9.5 13.5t8 13t9.5 17t10.5 19.5q12 21 12 34q0 17 -16 17q-4 0 -6.5 -2.5t-0.5 -4.5q1 -1 1 -3q0 -11 -35 -11q-16 0 -21 -5q-4 -4 -29 -13.5t-32 -9.5q-4 1 -2.5 4t0.5 6.5t-7 3.5q-10 0 -14 -11q-5 -10 -22 -10q-12 -1 -13 -6q1 -1 1 -2q0 -13 -59 -13q-34 0 -47 -10
q-16 -11 -52 -11q-31 0 -54 9q-31 13 -50.5 41.5t-20.5 60.5q0 24 13 50t49 74q28 38 105.5 118.5t85.5 80.5q3 0 25 32z" />
    <glyph glyph-name="m.ss01" horiz-adv-x="682"
d="M404 411q23 23 45 23q24 0 58 -28q41 -34 78 -86.5t51 -97.5q9 -27 23 -47q10 -13 10 -27q0 -7 -1 -10q-2 -10 -5.5 -13t-14.5 -3q-13 0 -23 1q-41 4 -43 11q-1 3 -18.5 26.5t-17.5 32.5q0 15 -25 67t-39 66l-18 17l-16 -19q-23 -26 -53 -95t-34 -107q-7 -60 -25 -60
q-4 0 -6 1q-13 5 -13 -3t-20 -8q-36 0 -36 19q0 10 -11 21q-8 10 -8 24q0 1 0.5 5t0.5 6q0 1 0.5 4t0.5 5q0 15 -8.5 49.5t-8.5 45.5q0 13 -9.5 38t-14.5 25h-1q-7 -6 -28.5 -72t-30.5 -107q-12 -55 -16 -67q-2 -6 -23 -13.5t-36 -7.5q-7 0 -9 1q-30 11 -36 132
q-5 83 -9 126q-2 13 -2 34q0 39 20 50q6 5 15 5q8 0 23 -8q10 -5 16 -10t5 -7q-2 -6 4 -10q7 -5 7 -35q0 -31 5 -31q4 0 16.5 27t12.5 35t14 34q18 37 42 37q17 0 37 -20q61 -59 75 -93q9 -20 14 -20q4 0 9.5 11t6.5 19q1 2 9.5 13.5t8.5 17.5q0 9 7 9q5 0 5 7q0 20 40 60z
" />
    <glyph glyph-name="r.ss01" horiz-adv-x="445"
d="M30 390q0 4 -3 4t-3 -4q0 -3 3 -3t3 3zM93 555h5q17 0 48.5 -10.5t46.5 -22.5q44 -32 118 -79t90 -53q31 -10 31 -31q0 -8 -4 -16q-8 -17 -41 -22q-7 -1 -18 -1q-19 0 -39 13q-25 16 -51 29q-26 10 -26 18q0 5 -26 18q-25 10 -45 26q-18 14 -24 10q-4 -4 -4 -69
q0 -77 5 -115q5 -31 19 -79t20 -52t6 -27q0 -15 -5.5 -22.5t-26.5 -19.5l-32 -19l-17 17q-11 11 -23.5 32.5t-12.5 31.5q0 5 -11.5 46.5t-13.5 58.5q0 4 -1.5 10t-4 14.5t-3.5 13.5q-9 29 -22 78q-3 13 -8 28l-8 24t-3 11q0 8 13.5 20t22.5 12q8 0 16 -8q2 -2 3 -2q5 0 5 41
q0 46 -6 58q-2 3 -2 10q0 10 8 18.5t21 9.5z" />
    <glyph glyph-name="question.ss01" horiz-adv-x="422"
d="M111 121q-1 1 -1 4q0 7 4 15t8 8q2 0 4 -4q5 -9 28 -4q4 1 11 1q14 0 32 -12q12 -9 15.5 -14.5t3.5 -16.5t-1 -18q-4 -35 -10 -41q-3 -3 -19 -3q-10 0 -16 1q-49 8 -54 59q-2 20 -5 25zM228 742q6 1 16 1q4 0 17 -0.5t20 -0.5q103 -4 123 -59q5 -15 5 -27q0 -31 -50 -106
q-25 -38 -98.5 -117t-108.5 -107q-16 -13 -16 -22q0 -6 5 -28q5 -23 5 -43q0 -8 -1 -10q-3 -13 -22 -25.5t-35 -12.5q-13 0 -27.5 22t-22.5 53q-13 55 -13 84q0 36 26 36q14 0 45.5 23t57.5 53q31 35 39 35q10 0 10 6t16 22q36 38 63.5 79t27.5 56q0 5 -2 6q-4 3 -60 8
q-12 1 -30 1q-27 0 -35 -7q-11 -9 -50 -21t-69 -16q-8 -1 -18 -1t-14 4.5t-11 21.5q-9 18 -9 33v3l1 2q5 14 60 28.5t124 20.5q28 2 31 5z" />
    <glyph glyph-name="D.ss01" horiz-adv-x="586"
d="M310 583q-52 11 -110 11q-44 0 -46 -8q-2 -6 -8 -93q-3 -53 -6.5 -89.5t-5.5 -51t-10 -57.5t-12 -66q-13 -71 -14 -77q-1 -2 -1 -5q0 -15 34 -15q9 0 45 4q42 6 70 19.5t74 48.5q58 44 86.5 74.5t48.5 68.5q23 45 29 45q3 0 3 34v21q-1 37 -3.5 49.5t-13.5 23.5
q-20 21 -53 34t-107 29zM105 675q16 9 57 9q53 0 125.5 -14t129.5 -36q51 -20 89.5 -60t56.5 -91q10 -26 10 -49q0 -25 -17 -61q-17 -32 -17 -44q0 -7 -25 -40q-24 -31 -24 -35q0 -9 -43 -50t-56 -44q-20 -6 -27 -18q-5 -13 -16 -13t-11 -7q0 -5 -15 -11q-13 -3 -26 -14
q-12 -10 -54 -24t-62 -14q-48 0 -74 32l-14 18l-7 -23q-7 -22 -24 -22q-11 0 -33 14q-16 11 -16 26q0 9 1 14q5 40 17.5 107.5t16.5 68.5q6 2 6 28q0 24 6 50q13 48 19 178q5 106 9 111q3 5 18 14z" />
    <glyph glyph-name="L.ss01" horiz-adv-x="603"
d="M20 645q11 8 19 8q13 0 43 -33q19 -20 37.5 -47.5t18.5 -34.5q0 -4 3 -15q16 -46 19 -107q2 -31 6.5 -50.5t6.5 -48.5q6 -65 11 -80.5t20 -19.5q3 -1 11 -1q16 0 29 5q23 9 64 13q36 3 125 17q50 7 72 7q19 0 38 -9q47 -22 47 -69q0 -28 -21 -44q-14 -11 -36 -11
q-6 0 -34 2q-7 1 -24 1q-65 0 -160 -15.5t-129 -33.5q-18 -9 -25 -9q-8 0 -22 11q-29 21 -39 55t-12 109q-4 94 -7 124q-20 137 -38 177q-31 68 -31 83q0 10 8 16z" />
    <glyph glyph-name="F.ss01" horiz-adv-x="616"
d="M404 794q11 4 45 4h17q26 -2 36 -5.5t17 -12.5q14 -18 14 -30q0 -10 -10 -20q-15 -17 -57 -19q-63 -4 -113 -18q-20 -6 -81 -18q-48 -8 -56 -15q-14 -11 -20 -68q0 -1 -7 -65q-6 -73 -10 -90q-2 -14 -2 -16q0 -9 12 -9q53 0 232 66q101 38 136 38q17 0 30 -7q13 -5 9 -18
t2 -15q4 -1 4 -4q0 -14 -99 -47q-83 -27 -126 -46q-83 -38 -172 -53l-47 -9l-15 -63q-16 -68 -36 -125.5t-31 -67.5q-14 -11 -27 -4q-37 19 -37 41q0 6 5 13q5 5 14 34.5t11 48.5q1 10 8.5 21.5t7.5 24.5q0 18 5 23q5 7 18 58q9 35 9 45t-6 16q-4 5 -4 10q0 4 9 18
q13 15 25 130q4 29 4 61q0 51 -14 76q-13 23 -13 38q0 22 19 28q16 4 90 11q126 13 204 40z" />
    <glyph glyph-name="c.ss01" horiz-adv-x="460"
d="M255 504q8 8 29 8q25 0 36 -11q14 -16 14 -123q0 -61 -8 -77q-9 -16 -4 -16q2 0 2 -1q0 -5 -16.5 -16t-24.5 -11q-25 0 -56 65q-9 19 -22 36t-19 17q-2 0 -2 -1q-32 -42 -53 -92.5t-21 -84.5q0 -12 3 -21l7 -20l73 2q77 1 142 18q67 18 80 18t24 -13q8 -8 8 -14
q0 -10 -41 -50q-28 -27 -51 -27q-22 0 -40 -6q-21 -9 -84.5 -17.5t-99.5 -8.5h-4q-28 1 -38.5 5.5t-29.5 23.5q-47 47 -47 105q0 30 16.5 83.5t33.5 82.5q17 28 26 50q10 25 18 30q10 7 10 20q0 11 16 23t34 15h7q17 0 35 -8t28 -19q7 -10 10 -10q2 0 2 17q0 21 7 28z" />
    <glyph glyph-name="G.ss01" horiz-adv-x="646"
d="M113 263q0 4 4 4t4 -4t-4 -4t-4 4zM206 721q5 3 17 9l18 9t16.5 5.5t21.5 2.5q10 0 16 -1q72 -9 87 -14t30 -23q17 -23 17 -42q0 -15 -10 -26q-9 -11 -27 -11t-29 12q-8 11 -30 11q-26 0 -69 -13q-93 -28 -138 -146q-32 -84 -32 -154q0 -121 98 -159q26 -10 53 -10
q49 0 86.5 29t44.5 76q2 14 2 17q0 9 -5 12t-22 8t-30 5q-11 0 -19 -3q-12 -4 -19 -4q-22 0 -43.5 15t-31.5 38q-14 36 -14 56q0 15 5 21t22 10q10 3 25 3q14 0 25 -3q9 -3 28 -3q42 0 106 11t102 26q17 7 40 7q25 0 30 -8q4 -8 21 -8q15 0 15 -11q0 -9 12 -21q11 -11 7 -19
q-7 -12 -7 -17q0 -8 -13 -27q-9 -13 -21.5 -16t-54.5 -5q-60 -2 -72 -17t-12 -87q0 -46 -3.5 -65.5t-16.5 -43.5q-21 -39 -50.5 -57t-77.5 -22q-11 -1 -32 -1q-49 0 -86 17.5t-81 60.5q-56 56 -56 69q0 12 -12 32q-12 17 -21 89q-4 48 -4 64q0 48 15 85l11 33q8 45 34 93
q53 101 95 101h6h1q4 0 32 10z" />
    <glyph glyph-name="x.ss01" horiz-adv-x="415"
d="M39 504q5 11 20 11q13 0 35 -9q16 -7 28.5 -20t12.5 -22q0 -4 -2 -6t-2 -6q0 -23 31.5 -84t44.5 -61q8 0 17 11q4 4 10.5 12t10 12t8.5 11t9.5 15.5t9.5 18.5q17 35 22 37t5 19q0 15 6 33q6 17 28 17q27 0 49 -21q20 -17 20 -33q0 -14 -13 -40q-14 -26 -14 -38
q0 -8 -48 -73q-49 -64 -49 -69q0 -8 27.5 -34t44.5 -33q19 -9 31.5 -27t12.5 -36q0 -8 -3 -14q-11 -25 -29 -25q-25 0 -82 56q-52 48 -57 48t-17 -14.5t-55 -71.5q-37 -49 -57 -69t-35 -20q-13 0 -34 19q-13 12 -13 18q0 3 5 11q10 14 13 30q5 15 25.5 40.5t24.5 33.5
q14 25 32 48q38 49 38 58q0 4 -17 26q-21 26 -21 35t-7 9t-31 51q-37 80 -37 133q0 7 2 13z" />
    <glyph glyph-name="q.ss01" horiz-adv-x="526"
d="M163 394q35 14 43 14q7 0 25 -9q21 -11 21 -31q0 -36 -55 -41q-14 0 -38 -22q-55 -48 -55 -100q0 -38 29 -64q15 -15 24 -15q10 0 36 19q42 29 73.5 74t31.5 75q0 7 -1 10q-5 20 -5 31q0 41 51 43h2q53 0 53 -58q0 -26 10 -43q10 -21 21 -62l12 -34q34 -94 44 -146
q3 -21 18 -82q10 -48 10 -65q0 -27 -18 -27q-14 0 -14 -7t-18 -11q-4 -1 -9 -1q-12 0 -32 23q-23 27 -27 65q-13 122 -25 147q-7 12 -7 27q0 8 -10.5 34.5t-14.5 26.5q-3 0 -48 -41q-88 -82 -146 -82q-13 0 -20 2q-12 3 -46 33t-34 38q0 5 -10 13q-8 8 -17 51q-5 27 -5 35
q0 17 20 64q11 25 56.5 65t74.5 51z" />
    <glyph glyph-name="w.ss01" horiz-adv-x="729"
d="M25 414q16 4 18 4q7 0 32 -13q27 -14 27 -23q0 -10 14 -22q12 -11 18 -26q3 -14 35 -64q31 -51 31 -58q0 -8 4 -8q8 0 25.5 27t27.5 57q8 23 15 60q2 18 5.5 22.5t15.5 4.5h11q19 -1 44 -15.5t25 -24.5q0 -5 24 -44t42 -73q21 -40 48 -67l31 -33l23 24q24 24 36 50
t22.5 81.5t11.5 97.5l2 45l31 1h9q25 0 40 -14q24 -21 24 -39q0 -10 -7 -27q-12 -27 -15 -52q-4 -29 -18 -81t-23 -70q-10 -17 -10 -27q0 -7 -19 -28q-27 -32 -71 -32q-9 0 -13 1q-6 1 -22 3.5t-20 3.5q-28 4 -64 36t-65 78q-34 55 -39 55q-3 0 -41 -77q-27 -53 -39 -68.5
t-32 -15.5q-9 0 -15 1q-24 3 -45 35q-22 31 -22 42q0 5 -45 94t-58 111q-4 6 -13 31t-9 30t13 7z" />
    <glyph glyph-name="Q.ss01" horiz-adv-x="633"
d="M545 417q0 3 4 3q3 0 3 -3q0 -4 -3 -4q-4 0 -4 4zM545 508q0 3 -3 3q-4 0 -4 -3q0 -4 4 -4q3 0 3 4zM380 623q-50 19 -111 19q-12 0 -22 -2q-19 -4 -56 -48.5t-55 -83.5q-16 -34 -27 -83.5t-11 -86.5q0 -14 1 -20q5 -41 36 -93.5t59 -66.5q18 -9 40 -9q46 0 123 43l34 19
l-41 35q-40 37 -42 43q-2 9 -13 18q-9 9 -9 34q0 28 11 33q9 4 21 4q23 0 54 -28q59 -56 68 -56q11 0 26 95q4 28 11 37q5 8 -2 8q-6 0 -6 13q0 3 2 21q1 6 1 18q0 67 -37 104q-18 18 -55 33zM186 717q25 4 60 4q55 0 108.5 -11t78.5 -27q21 -15 44 -25q19 -9 19 -18
q0 -10 7 -10t7 -10q0 -11 7 -11q8 0 19.5 -42.5t14.5 -82.5q1 -12 1 -28q0 -20 -4 -20h-1l-1 1q-6 -2 -8 -13q0 -18 7 -18q4 0 4 -40q0 -60 -7 -101v-5q0 -13 32 -35q46 -30 46 -59q0 -4 -2 -16q-3 -19 -3 -29q1 -3 -5 -6t-16 -5q-4 -1 -11 -1q-19 0 -49 21q-37 24 -45 24
q-5 0 -27 -14t-29 -22q-5 -5 -45.5 -23t-59.5 -23q-56 -14 -73 -14q-9 0 -17 3q-15 6 -42 8q-47 2 -99 60q-19 22 -43 71.5t-34 85.5q-8 32 -8 76q0 86 19 108q10 10 12 37q8 58 85 140q39 41 39 54t19 16z" />
    <glyph glyph-name="P.ss01" horiz-adv-x="568"
d="M218 733q39 8 85 8q92 0 174 -38q35 -17 48.5 -32.5t23.5 -52.5q6 -24 6 -46q0 -81 -74 -144q-22 -19 -66.5 -44.5t-62.5 -30.5q-2 -1 -11 -3t-21 -5.5t-22 -6.5q-28 -9 -37 -9t-22 12q-18 16 -21 16t-12.5 20.5t-9.5 27.5q0 3 25 10t35 7q15 0 41 12q22 10 50 21
q24 11 54 37.5t40 47.5q11 22 11 46q0 16 -6 22.5t-29 17.5q-33 17 -104 18q-49 0 -67 -3.5t-51 -20.5q-50 -24 -52 -33q-1 -1 -1 -7q0 -13 5 -38q9 -42 9 -122q0 -126 -19 -246q-10 -60 -13 -83q0 -8 -16 -17q-10 -6 -21 -6q-36 0 -52 39q-9 23 -9 30q0 1 6 69
q2 28 11.5 104.5t9.5 124.5v27q-1 42 -5.5 58.5t-18.5 38.5q-17 25 -17 38q0 9 4 21q7 26 16 35.5t29 13.5q24 4 30 10q20 17 58.5 34t68.5 22z" />
    <glyph glyph-name="H.ss01" horiz-adv-x="523"
d="M432 738q13 4 25 4q16 0 33 -23q11 -17 14.5 -36.5t4.5 -89.5v-31q0 -92 -7 -144q-6 -40 -6 -62q0 -16 4 -26q3 -6 3 -11q0 -11 -12 -31q-15 -27 -21 -113q-5 -88 -14 -90q-7 -2 -3 -8q1 -1 1 -3q0 -5 -8 -10t-18 -5q-6 0 -9 1q-17 4 -31.5 23.5t-14.5 35.5q0 10 5 15
q5 7 5 64l1 59l-21 -3q-101 -18 -168 -18h-50l-4 -22q-2 -13 -8.5 -51.5t-12.5 -75.5q-9 -52 -9 -83v-9q1 -7 1 -17q0 -15 -10 -21q-14 -9 -14 -16q0 -8 -20 -5q-17 2 -36.5 22.5t-19.5 34.5q0 17 18 101t24 96q9 14 9 78q1 63 13 80q11 19 15 65q8 99 18 143q6 26 6 35
q3 102 17 116q6 6 15 6q5 0 27 -5q20 -5 28 -12.5t8 -23.5q0 -15 -8 -50q-11 -51 -13 -73q-16 -144 -24 -181q-2 -8 -2 -19t5 -13q5 -4 65 -4q68 0 128 5l47 5v33q0 19 7 73q7 38 7 117q0 83 -7 91q-5 7 -11 36q-1 5 -1 14q0 24 29 32z" />
    <glyph glyph-name="g.ss01" horiz-adv-x="414"
d="M195 310q2 58 2 65v7q0 1 -4 -3.5t-10.5 -12.5t-13.5 -17q-59 -75 -64 -135q-2 -26 -2 -27q0 -9 5 -9q1 0 2 0.5t3.5 1t4.5 0.5q20 6 45 32l29 28zM162 465q21 9 40 9q18 0 26 -9t27 -15q21 -4 39 -24q14 -14 17 -26.5t5 -50.5q0 -5 0.5 -13.5t0.5 -12.5q0 -35 -10 -61
q-7 -18 -7 -29q0 -9 12 -44q15 -46 29 -68q60 -97 60 -165q0 -25 -10 -41q-12 -19 -40.5 -45.5t-46.5 -33.5q-12 -5 -37 -19q-17 -9 -56.5 -19t-60.5 -11q-53 0 -93 50q-22 26 -22 34t18 14q12 4 16 4q9 0 29 -11q26 -14 58 -14q25 0 43 9q8 5 42 19q26 9 41 32.5t16 54.5v5
q0 28 -31 84q-34 62 -36 69q-3 9 -6 9t-13 -10q-19 -17 -53 -33.5t-52 -16.5q-23 0 -46 16q-49 33 -49 104q0 106 95 212q35 39 55 47z" />
    <glyph glyph-name="o.ss01" horiz-adv-x="491"
d="M268 58q3 5 -5 5t-5 -5q5 -3 10 0zM332 415q-30 25 -78 25q-26 0 -41 -9q-20 -11 -20 -18t-11 -7q-10 0 -10 -10q0 -11 -6 -11q-7 0 -15 -20.5t-11 -44.5q-5 -38 -22 -38q-5 0 -7 1q-5 1 -7.5 -1.5t-2.5 -8.5q-1 -8 -1 -22v-7q0 -27 8.5 -58t18.5 -43q14 -17 34 -17
q11 0 18 1q64 6 143 67q40 31 52 51t12 55q-2 73 -54 115zM207 507q8 3 24 3q49 0 85 -16q25 -12 54.5 -37t43.5 -47q14 -21 28 -35q15 -15 25.5 -45.5t10.5 -59.5q0 -12 -1 -17q-5 -36 -15 -44q-10 -7 -10 -22q0 -13 -10 -16t-14 -17t-17 -18q-12 -3 -36 -24
q-23 -21 -33 -21q-9 0 -40 -22q-30 -22 -58 -24t-52 -7q-12 -2 -16 -2q-20 0 -83 35q-58 33 -75 131q-6 33 -6 61q0 45 20 105q15 46 29.5 63t37.5 17t30 13q5 8 29 22.5t49 23.5z" />
    <glyph glyph-name="y.ss01" horiz-adv-x="391"
d="M31 521q15 5 17 5q6 0 27 -10q23 -11 23 -19q0 -7 26 -44.5t31 -37.5q7 0 10 -14q6 -15 15 -26q0 -1 38 -43q26 -30 31 -30t17 39.5t20 85.5q9 45 16 59.5t24 14.5q5 0 17 -2q35 -7 35 -51q0 -26 -7 -62q-9 -48 -26 -104t-25 -64q-6 -6 -6 -40t-16 -50q-16 -14 -27 -49
q-7 -21 -26 -67q-44 -102 -54 -172q-6 -42 -31 -42q-12 0 -26 7q-15 7 -32 29t-17 33q0 2 2 4q4 4 15 43q25 84 63 171q41 93 41 123q0 5 -1 7q-5 14 -38.5 56.5t-35.5 46.5q-17 27 -46 65q-57 75 -57 80q0 3 -9 21q-7 16 -7 20q0 10 19 17z" />
    <glyph glyph-name="K.ss01" horiz-adv-x="454"
d="M355 745q9 9 27 9q32 0 49 -20q10 -11 10 -37q0 -22 -8 -26q-15 -10 -92 -115t-77 -116q0 -6 -14 -24l-13 -17l30 -61q49 -100 68 -156q10 -33 25 -54q12 -18 12 -25q0 -3 -7 -19q-4 -9 -8.5 -14.5t-6.5 -3.5q-6 4 -8 -4q-3 -8 -25 2q-32 14 -43 33t-44 111
q-20 57 -28 65q-6 7 -14 26l-7 17l-18 -29q-26 -38 -35 -47q-11 -11 -14.5 -25t-5.5 -51q-3 -58 -15 -70q-9 -9 -20 -9q-24 0 -42 30q-13 18 -13 41q0 16 3 52t9 86t9.5 93t3.5 94v24q-1 76 -3.5 98t-14.5 47q-13 27 -13 37q0 7 6 21q7 13 13 17t19 4q70 0 80 -216
q4 -80 11 -80q1 0 3 2q19 21 74.5 102t68.5 99q57 72 57 89q0 9 11 20z" />
    <glyph glyph-name="comma.ss01" horiz-adv-x="157"
d="M92 116q5 4 6.5 4t20.5 -6q15 -5 19 -13.5t6 -37.5q1 -9 1 -27q0 -97 -61 -164q-21 -25 -35 -25q-8 0 -21 10q-18 13 -18 32q0 9 7 9q5 0 26.5 43t32.5 75q11 29 11 63t5 37z" />
    <glyph glyph-name="d.ss01" horiz-adv-x="414"
d="M294 337q2 19 -4 19q-19 0 -90 -68t-85 -100q-14 -31 -14 -47q0 -15 11 -15t42 22.5t61 52.5q27 26 51.5 68.5t27.5 67.5zM237 733q15 15 21 15t25 -8q29 -11 38 -18.5t9 -20.5q0 -15 21 -52q22 -38 36 -100t14 -119q0 -33 -4 -54q-15 -87 -50 -148q-21 -38 -95.5 -104.5
t-95.5 -66.5q-11 0 -19 -8q-7 -7 -40 -7q-39 0 -50 9q-15 13 -25 38.5t-10 51.5v9q3 31 10 49q8 18 37.5 59t41.5 49q21 14 68 61q47 46 69 60q10 6 23 6q21 0 31 -15q4 -8 15 -8q9 0 9 22q0 5 -2 39q-9 118 -36 140q-12 10 -31 40t-23 45q-1 3 -1 9q0 13 14 27z" />
    <glyph glyph-name="W.ss01" horiz-adv-x="882"
d="M20 761q13 8 32 8q32 0 59 -19q22 -15 56 -63.5t34 -64.5q0 -13 8 -21q18 -19 80 -195q23 -66 29 -74h1q6 0 17 79q7 61 7 82q0 9 -1 10q-2 2 -2 4q0 11 19.5 30.5t32.5 20.5h3q23 0 59.5 -22.5t36.5 -36.5q0 -16 23 -43q15 -16 48.5 -64.5t52.5 -67.5l27 -27l12 38
q16 59 34 153q23 122 30 149t9 69q0 52 53 52q15 0 23 -2q31 -6 48.5 -27t17.5 -52v-7q-3 -34 -46 -127q-9 -20 -11 -73q-2 -54 -5.5 -75.5t-16.5 -74.5q-18 -67 -28 -141q-11 -76 -21 -86q-38 -32 -65 -32q-14 0 -45 34t-31 50q0 14 -8 18q-4 2 -15.5 15t-22 27.5
t-21.5 29.5t-12 17q-54 67 -65 67q-1 0 -2 -1q-6 -6 -12 -62q-6 -55 -16 -111q-8 -35 -15.5 -49.5t-23.5 -25.5q-23 -16 -37 -16q-15 0 -46 28q-30 28 -36 66q-3 27 -10 47t-30 66q-12 22 -24.5 58t-16.5 46q-54 128 -54 141q-5 25 -71 130q-50 76 -50 107q0 13 8 18z" />
    <glyph glyph-name="b.ss01" horiz-adv-x="526"
d="M271 79q0 7 3 7q6 0 5 -8q0 -3 -2 -5t-4 -0.5t-2 6.5zM361 345q-17 18 -39 18q-33 0 -62.5 -32t-35.5 -78q-4 -41 -8 -54q-1 -4 -1 -9q0 -10 20 -10q51 0 106.5 30t55.5 58q0 36 -36 77zM37 743q12 5 15 5q6 0 30 -20q23 -19 26 -52q3 -23 25 -124.5t25 -119.5l6 -36
l32 31q50 48 100 48q10 0 21 -3q25 -8 28 -4q1 1 2 1q11 0 50.5 -34t67.5 -68q48 -61 48 -113q0 -22 -6 -52q-8 -33 -15.5 -42.5t-38.5 -24.5q-42 -21 -74 -21q-31 -2 -52 -10q-26 -8 -73 -8q-50 0 -50 -13q0 -11 -10 -17.5t-25 -6.5q-17 0 -32 9q-25 15 -25 25t-8 13
q-10 5 -29 195q-9 56 -34 184q-29 144 -29 200q0 49 25 58z" />
    <glyph glyph-name="h.ss01" horiz-adv-x="619"
d="M21 693q6 6 20 6q35 0 53 -23q9 -11 30.5 -71t28.5 -92q5 -21 27.5 -82.5t24.5 -69.5l14 -39l30 59q25 53 59.5 85t64.5 32q7 0 10 -1q36 -7 78 -58.5t55 -102.5q5 -9 17.5 -54.5t15.5 -60.5q2 -11 17.5 -25.5t30.5 -19.5q3 -3 6 -26q2 -14 2 -16q0 -7 -4.5 -11.5
t-18.5 -10.5q-18 -8 -36 -8q-33 0 -55 17q-24 17 -42 78q-54 189 -75 189q-9 0 -30 -34t-35 -71q-15 -40 -18 -134q0 -88 -5 -93q-9 -7 -30 -7q-11 0 -27 4q-16 5 -22.5 9t-15 14t-15 31.5t-16.5 54t-26 89.5q0 1 -0.5 2t-0.5 2q-16 56 -39 128.5t-38 121.5q-30 98 -37 111
t-7 39q0 29 9 38z" />
    <glyph glyph-name="Z.ss01" horiz-adv-x="697"
d="M236 74q-3 3 9 4q15 -1 14 -4q-10 -4 -23 0zM193 75q4 3 -4 4h-6q-7 0 -7 -2q-1 -2 3 -3q9 -4 14 1zM331 793h9q95 0 135 -7q21 -3 44 -20q17 -14 17 -31q0 -4 -2 -28q-4 -34 -28.5 -91t-39.5 -65q-9 -6 -22 -31q-11 -24 -31 -45q-19 -19 -19 -29q0 -8 -8 -8
q-2 -1 -8 -1.5t-8 -0.5q-10 0 -10 -12q0 -10 -33 -43q-32 -32 -32 -41q0 -6 -17 -21q-18 -14 -32 -41q-15 -27 -44 -55q-30 -28 -30 -45q0 -7 8 -7q6 0 63 11q90 17 178 24q6 0 35.5 2.5t40 3.5t32.5 4t37.5 7t29.5 9q20 8 40 8q48 0 48 -59q0 -34 -19 -42t-106 -11
q-109 -4 -118 -9q-10 -6 -35 -6q-2 0 -6 0.5t-6 0.5q-5 1 -15 1q-19 0 -27 -4q-6 -6 -46 -12q-98 -12 -98 -18q0 -2 3 -5q2 -2 2 -4q0 -6 -46 -12q-42 -5 -60 -5q-29 0 -44.5 10.5t-32.5 38.5l-18 28l18 31q48 85 112 161q35 41 43 54q9 17 136 160q67 74 85 118q9 21 9 27
q0 8 -22 12q-32 7 -49 7q-11 0 -11 -4q0 -7 -36 -7q-47 -2 -89 -8q-25 -3 -39 -3q-22 0 -43 11q-23 12 -39.5 29.5t-16.5 30.5q0 3 1 5q6 16 32 21.5t112 9.5q114 4 116 6z" />
    <glyph glyph-name="C.ss01" horiz-adv-x="635"
d="M345 688q13 5 23 5q20 0 52 -21q30 -18 30 -32q0 -1 -0.5 -3.5t-0.5 -3.5q-9 -37 -32 -37q-4 0 -14 2q-4 1 -13 1q-17 0 -21 -4q-10 -8 -35 -14q-41 -10 -120 -106.5t-95 -156.5q-8 -30 -8 -55q0 -35 12 -58.5t33 -24.5h19q57 0 116 15q51 12 170 14h46q51 0 65.5 -3
t28.5 -16q21 -19 21 -41q0 -17 -15 -31q-10 -9 -34 -12.5t-90 -5.5q-111 -3 -217 -20q-20 -3 -38 -3q-109 0 -174 84q-42 53 -42 114v16q1 32 18.5 78.5t28.5 46.5q6 0 17 34q10 32 27 47q15 15 15 29t14.5 32t26.5 18q10 0 15 12t29 21q25 12 25 18q0 5 44 28t73 33z" />
    <glyph glyph-name="j.ss01" horiz-adv-x="414"
d="M162 393q17 14 23 14q5 0 23 -9q21 -11 35.5 -28t14.5 -30q0 -14 12 -34q14 -23 24 -61q10 -40 48 -118q41 -80 50 -113q9 -32 9 -63q0 -67 -38 -113.5t-96 -46.5h-1q-39 1 -73 17t-34 34q0 21 -21 30q-17 8 -17 14q0 4 7 10q7 8 17 8q7 0 16 -3q9 -4 24 -4
q22 0 43.5 8.5t31.5 21.5q15 18 15 56q0 30 -19 87.5t-41 92.5q-19 29 -19 47q0 20 -15 52q-18 36 -27 76q-6 22 -6 31q0 12 14 24zM19 638q14 14 31 14q19 0 50 -16q48 -25 48 -69q0 -20 -13 -37l-15 -19l-35 19q-32 16 -52.5 41t-20.5 46q0 13 7 21z" />
    <glyph glyph-name="k.ss01" horiz-adv-x="532"
d="M32 737q0 14 22 11q20 -2 25 -7t6 -23q8 -134 13 -165q3 -24 3 -78q2 -64 6 -64q6 0 30 35q27 40 40 54q15 16 30 45q9 18 15.5 22t27.5 4q19 0 28.5 -4t20.5 -18q18 -22 18 -27q0 -4 -30.5 -43.5t-42.5 -50.5q-26 -25 -63 -86t-37 -80q0 -11 11.5 -15.5t42.5 -4.5
q36 0 88 4q90 5 129 5q61 0 82 -9.5t22 -34.5q0 -20 -23.5 -25t-129.5 -10q-48 -2 -83 -5t-55.5 -4t-58.5 -1l-48 -1l4 -22q1 -4 3.5 -23.5t4.5 -28.5q2 -18 2 -20q0 -11 -13 -18q-16 -7 -21 -15q-4 -7 -23 -1q-34 8 -43.5 87.5t-20.5 422.5q-2 104 -2 112q0 53 9 61
q11 9 11 21z" />
    <glyph glyph-name="R.ss01" horiz-adv-x="585"
d="M424 435q0 3 -4 3q-3 0 -3 -3q0 -4 3 -4q4 0 4 4zM275 650q-30 6 -64 6q-72 0 -90 -18q-8 -8 -8 -18q0 -9 11 -62q14 -67 20 -116q5 -47 13 -50h3q12 0 47 16t47 27q11 11 7 21l-1 2v2q0 11 18 21.5t38 10.5h5h7q21 0 37 16q13 14 22.5 36t9.5 37q0 5 -2 11
q-6 11 -50 32.5t-70 25.5zM97 737q28 2 49 2q115 0 174 -18q47 -14 95 -42.5t62 -50.5q19 -29 19 -78q0 -51 -20 -59q-13 -4 -18 -22q-5 -17 -17 -17q-10 0 -10 -10q0 -11 -14 -18q-14 -8 -14 -18q0 -8 11 -17q9 -8 34.5 -46.5t26.5 -46.5q1 -3 16.5 -31.5t15.5 -36.5
q0 -11 9 -18q7 -5 20 -39.5t18 -39.5q3 -3 10.5 -21.5t7.5 -29.5q0 -10 -7 -10q-10 0 -5 -8q6 -10 -6 0q-11 10 -15 2q-3 -5 -10 -5q-16 0 -40.5 22.5t-34.5 48.5q-9 26 -33.5 69.5t-37.5 59.5q-6 6 -6 12q0 2 0.5 5.5t0.5 4.5q0 6 -6 11q-11 9 -11 16t-21 33l-22 26
l-48 -24q-51 -24 -62 -26q-39 -7 -39 -30q0 -5 1.5 -18.5t4 -34.5t3.5 -40q2 -44 2 -52q0 -26 -6 -34q-8 -10 -4 -10q2 0 2 -1q0 -3 -11.5 -11.5t-18.5 -9.5h-5q-12 0 -22.5 5t-10.5 11q0 7 -10 17q-10 11 -11 64q0 7 -0.5 20.5t-0.5 18.5q0 8 0.5 15t0.5 8q0 16 -12 100
t-22 141q-4 23 -18 101q-3 27 -14 53q-5 10 -5 19t8 20q9 11 9 31q0 29 68 37z" />
    <glyph glyph-name="e.ss01" horiz-adv-x="514"
d="M182 461q51 35 66 43t30 8q2 0 6 -0.5t7 -0.5q68 -6 68 -66q0 -25 -11.5 -62t-19.5 -37q-7 0 -17 -10q-16 -13 -58 -23.5t-80 -10.5h-50l-11 -34q-5 -16 -5 -39q0 -41 17.5 -73t41.5 -32q13 0 61.5 15.5t66.5 24.5q13 8 26 8q9 0 19 10t54 31q44 22 75 22q33 0 33 -23
q0 -6 -3 -14q-7 -17 -21 -22q-14 -4 -14 -10q0 -5 -64.5 -37t-85.5 -37q-26 -7 -68 -28q-46 -21 -81 -21h-14q-48 2 -74 22.5t-47 72.5q-16 38 -16 70q0 21 1 35q3 56 15 74q47 73 153 144z" />
    <glyph glyph-name="Y.ss01" horiz-adv-x="567"
d="M327 78q0 3 3 3t3 -3t-3 -3t-3 3zM380 650q0 4 11.5 17t11.5 17q0 5 22 38q24 39 33 72q11 39 21 47q11 8 25 8q25 0 39 -17q11 -13 11 -28q0 -33 -68 -136q-8 -11 -18 -28.5t-11 -18.5q-5 -12 -15 -20q-9 -7 -9 -16q0 -7 -27 -36q-26 -26 -26 -38q0 -9 -10 -17
q-16 -13 -16 -26q0 -9 8 -20q9 -14 9 -21t-3 -17q-8 -24 -15 -31q-6 -5 -6 -11q0 -3 7 -26q12 -36 12 -169q0 -60 -5 -70q-10 -18 -41 -18q-15 0 -27 6q-16 8 -22.5 15.5t-6.5 22.5q0 6 4 32q4 20 4 68q0 87 -9 111q-9 18 -21 36q-15 23 -15 55v34l-75 77q-110 111 -115 111
q-4 0 -14 19l-11 19l19 16q16 13 26 13q9 0 15 -2q20 -3 27 -15q11 -16 91 -98l86 -88l12 13q27 29 59 72q12 18 23 29q10 14 10 19z" />
    <glyph glyph-name="p.ss01" horiz-adv-x="462"
d="M274 487q26 2 39 2q65 0 93 -15q18 -10 30.5 -30t12.5 -38t-3.5 -27.5t-18.5 -39.5q-10 -19 -51 -54t-58 -40q-14 -3 -36 -21q-16 -16 -53 -21q-9 -1 -29 -3.5t-25 -3.5h-5q-26 0 -29 19q0 1 -2 7l-3 9q-2 4 -2 10q0 9 13.5 17.5t58.5 29.5q50 23 87 51.5t46 52.5
q2 6 2 7q0 4 -12 4q-2 0 -36 -2q-21 -1 -43 -5t-34 -7.5t-35.5 -11t-32.5 -10.5q-34 -11 -34 -22q0 -26 12 -125q11 -93 21 -202q7 -76 12 -94q3 -9 3 -16q0 -19 -12 -32t-29 -13q-12 0 -23 7q-32 20 -39.5 41.5t-8.5 92.5q-1 49 -3.5 89t-7.5 88.5t-7 74.5q-8 111 -18 138
q-2 6 -2 9q0 17 37 34q22 10 102.5 28t122.5 22z" />
    <glyph glyph-name="v.ss01" horiz-adv-x="425"
d="M345 506q4 1 12 1q18 0 45 -14q10 -6 10 -14q0 -3 -2 -15q-4 -23 -9 -126q-6 -118 -35 -230q-9 -33 -19.5 -43t-38.5 -10h-14q-16 1 -58 39.5t-68 76.5q-66 94 -111 174.5t-45 105.5q0 12 9 20t21 8q5 0 8 -1q18 -4 31.5 -15.5t16.5 -23.5q8 -32 89 -154t94 -122
q9 0 36 93q4 13 8 132l4 114z" />
    <glyph glyph-name="O.ss01" horiz-adv-x="586"
d="M567 467q0 3 -4 3q-3 0 -3 -3q0 -4 3 -4q4 0 4 4zM346 656q-36 6 -50 6q-41 -5 -85 -19.5t-44 -22.5q0 -5 9 -19q6 -8 6 -14q0 -7 -15 -29q-21 -31 -29 -47.5t-18 -54.5q-20 -72 -20 -137q0 -63 19 -85q11 -13 48 -37q34 -23 64 -23h9q27 0 54 3q25 4 91.5 80.5
t71.5 107.5q1 7 14 62q8 38 8 71q0 60 -18 82q-50 64 -115 76zM184 733q52 15 87 15q3 0 9 -0.5t10 -0.5q63 -4 127.5 -38.5t93.5 -80.5q15 -23 38.5 -85t23.5 -78q0 -19 -7.5 -48.5t-12.5 -29.5h-1q-3 0 -3 -23v-10v-7q0 -30 -8 -40t-4 -10q1 0 1 -2q0 -5 -12 -21t-21 -23
q-8 -6 -8 -12q0 -10 -8 -14q-9 -3 -17.5 -12.5t-8.5 -14.5l1 -1v-1q0 -5 -26 -33q-26 -27 -77 -56t-78 -33q-4 -1 -12 -1q-56 0 -135 54q-59 40 -91.5 94t-32.5 110q1 34 9.5 79t17.5 59q5 9 5 15v8q0 7 7 14q9 11 6 17q-1 1 -1 4q0 10 7.5 26.5t11.5 16.5q1 0 1 2
q0 6 -7 31q-6 19 -6 28q0 10 15 35q17 29 34.5 40t71.5 27z" />
    <glyph glyph-name="n.ss01" horiz-adv-x="460"
d="M177 344q0 31 36 103q5 13 17 13q3 0 25 -2q38 -6 46 -13q76 -58 109 -174q14 -53 25 -88q12 -42 12 -58q0 -17 -13 -24q-8 -4 -21 -4q-34 0 -51 17q-21 23 -47 129q-27 108 -41 108q-7 0 -85 -167q-32 -67 -35 -98q-3 -21 -8 -28.5t-19 -11.5q-24 -8 -36 -8
q-14 0 -33.5 18.5t-20.5 32.5q-3 53 -6 144q-2 72 -8 76q-4 4 -9 29q-2 12 -2 15q0 13 12 25q14 14 32 14q10 0 10 -7q0 -2 2 -3.5t4 -0.5l1 1h1q7 0 19.5 -15t17.5 -29q8 -29 10 -61q0 -5 8 -5t17 4.5t9 10.5q0 3 -6 8q-9 6 10 18q18 12 18 31z" />
    <glyph glyph-name="a.ss01" horiz-adv-x="493"
d="M191 331q-9 0 -43 -37q-34 -38 -34 -47q0 -6 10 -6q13 0 45 32.5t32 45.5q0 5 -3.5 8.5t-6.5 3.5zM144 435q40 20 71 20q29 0 48 -19q16 -16 16 -29q0 -3 -1 -5q-4 -13 11 -18q13 -3 29.5 -27t22.5 -47q3 -19 46 -104q23 -49 36.5 -68.5t27.5 -25.5q29 -12 29 -43
q0 -12 -6 -24q-10 -17 -33 -17q-2 0 -7.5 0.5t-8.5 0.5q-40 2 -52 8q-13 7 -47.5 65t-39.5 79q-6 27 -20 27q-13 0 -34 -26q-21 -24 -56 -42.5t-59 -18.5q-7 0 -10 1q-20 4 -48.5 29t-39.5 48q-7 13 -7 35q0 28 14 87q6 23 43 59t75 55z" />
    <glyph glyph-name="z.ss01" horiz-adv-x="664"
d="M69 461q10 5 25 5q6 0 16 -2q32 -5 144 -5q76 0 101.5 -2.5t37.5 -10.5q19 -11 19 -37q0 -16 -9 -28t-42 -43q-68 -64 -118 -116t-50 -59q0 -1 1 -1q3 0 89 12q163 28 278 28q43 0 53 -6q17 -9 27 -27.5t10 -36.5q0 -19 -11 -26q-7 -5 -120 -9q-243 -11 -352 -49
q-42 -15 -71 -15q-31 0 -47 16q-38 35 -38 70q0 13 46 59q41 41 81 89q35 44 49 54q13 8 20 22q3 5 3 8t-6 3q-2 0 -16 -2q-1 0 -4 -0.5t-5 -0.5q-29 0 -63 17q-27 8 -32 26q-6 16 -13 23q-15 11 -15 26q0 12 12 18z" />
    <glyph glyph-name="J.ss01" horiz-adv-x="639"
d="M530 730q9 3 19 3q9 0 12 -3q8 -6 18 -6t24 -18t15 -31q2 -15 6 -22q6 -13 -5 -13t-22 -15q-9 -12 -18 -12q-1 0 -21 4q-12 4 -35 4q-19 0 -43 -3q-110 -14 -121 -19q-12 -7 -12 -19q0 -4 1.5 -13.5t1.5 -13.5q16 -142 53 -225q20 -50 22 -56q10 -31 18 -40q11 -11 9 -24
v-8q0 -17 3 -38q2 -9 2 -25q0 -70 -91 -70q-3 0 -9.5 0.5t-10.5 0.5q-59 4 -88 15.5t-65 45.5q-41 38 -41 50q0 6 6 9q7 5 4 11q-2 4 -2 5t2 1q7 0 25 -15q27 -25 80 -41q9 -3 22 -3q24 0 49 7.5t35 17.5q9 11 9 19t-6 28q-6 29 -30 78q-45 99 -45 119l1 1v3.5t-1 8t-3 11.5
q-4 13 -17 85q-12 65 -13 65q-3 0 -81.5 -12t-82.5 -12q-18 0 -27 -2q-10 -2 -14 -2q-30 0 -46 50q-5 18 -5 27q0 16 16.5 20.5t67.5 6.5q79 2 157 21q8 2 91 15q129 16 186 29z" />
    <glyph glyph-name="semicolon.ss01" horiz-adv-x="221"
d="M135 273q10 3 20 3q29 0 44 -18q9 -11 9 -32q0 -13 -1 -22q-6 -63 -27 -126t-44 -88q-15 -15 -15 -23q0 -9 -26.5 -19.5t-47.5 -10.5h-7q-28 4 -28 19q0 16 38 63q22 29 22 37q0 19 30 91q12 32 14 87q1 22 4.5 29t14.5 10zM94 542q11 10 23 10q7 0 17 -3q26 -7 32 -19
q12 -19 12 -34q0 -32 -51 -38q-18 -2 -20 -2q-15 0 -30 18q-18 23 -18 43q0 12 9 12q11 0 26 13z" />
    <glyph glyph-name="E.ss01" horiz-adv-x="526"
d="M59 767q7 9 11 9q6 0 27 -22t21 -29q0 -16 28 -16q14 0 62 5q172 17 202 20q10 1 27 1q49 0 67 -36q9 -18 9 -27q0 -19 -39 -19q-25 0 -61 -8q-19 -4 -122 -14.5t-120 -13.5l-30 -5v-152h20q19 0 33 7q10 6 102.5 26.5t108.5 20.5q17 0 39 -14.5t26 -28.5q2 -10 2 -12
q0 -12 -9.5 -18.5t-33.5 -11.5q-132 -28 -210 -57q-33 -12 -48 -12q-19 0 -19 -19q0 -9 5 -36q14 -72 24 -100l10 -28l66 22q103 35 173 35q49 0 56 -19q6 -15 12 -18q8 -6 3 -24q-4 -16 -19.5 -22t-54.5 -7q-70 -2 -131 -33q-28 -13 -33 -13q-8 0 -35 -12q-33 -15 -53 -15
q-24 0 -38 25.5t-30 90.5q-35 144 -40 306q-4 129 -14 129t-28 34q-13 25 -13 34q0 5 5 12q11 13 26 13q9 0 11.5 4t1.5 17q-1 3 -1 10q0 13 4 21z" />
    <glyph glyph-name="A.ss01" horiz-adv-x="519"
d="M84 519q0 4 3 4q4 0 4 -4t-4 -4q-3 0 -3 4zM209 559q-20 25 -26 25q-7 0 -7 -21q0 -24 -12 -67q-13 -46 -20 -85q-6 -40 -11 -63q-2 -14 -2 -16q0 -8 7.5 -9.5t37.5 -2.5h2q22 0 81.5 10t64.5 15q1 1 1 2q0 15 -43.5 94t-72.5 118zM121 707q8 4 13 4q44 0 120 -84
q43 -49 60 -76t59 -114q23 -48 35.5 -64.5t34.5 -29.5q33 -21 33 -35q0 -8 -10 -17q-8 -6 -8 -12q0 -3 7 -21q20 -49 20 -59t11 -23q11 -11 11 -35q0 -1 -0.5 -4t-0.5 -5q-2 -21 -6 -26t-22 -6q-2 0 -5 -0.5t-5 -0.5q-20 0 -34 7q-14 8 -29.5 36.5t-16.5 50.5t-7.5 45
t-11.5 23q-2 0 -12 -2.5t-28.5 -7t-34.5 -7.5q-61 -15 -125 -17l-58 -1l-2 -32q-1 -18 -7 -38t-14.5 -41.5t-11.5 -31.5q-5 -23 -25 -23q-19 0 -29 19q-10 20 -10 58q0 37 10 50q9 13 11 69q2 59 10 67q15 20 22 66q1 8 11.5 38.5t10.5 49.5v6q-3 23 3 27t4 30q0 1 -0.5 4.5
t-0.5 5.5q0 23 7 46q8 27 10 68q2 37 11 43z" />
    <glyph glyph-name="f.ss01" horiz-adv-x="467"
d="M181 746q49 26 83 26q24 0 46 -14q45 -30 77.5 -89t32.5 -107v-10q-4 -44 -14 -44q-6 0 -15 9q-13 13 -23 13q-28 0 -31 69q-2 77 -53 77q-21 0 -52 -17q-27 -15 -43.5 -33.5t-35.5 -54.5q-16 -34 -16 -68q0 -29 11 -71l9 -31l62 1q59 2 86 8q26 8 70 11q4 0 11 0.5
t10 0.5q26 0 39 -13q12 -16 7 -16t5 -13q11 -13 2 -16t-5 -16q4 -10 -16 -18q-20 -7 -26 -17q-3 -5 -16 -5q-4 0 -16 2q-4 1 -14 1q-27 0 -54 -10l-41 -13l47 -42q47 -41 66 -66t19 -47q0 -15 -10 -35q-13 -26 -30 -26q-11 0 -40 8q-29 7 -40 21t-12 42q0 17 -11.5 32.5
t-53.5 55.5q-66 62 -120 82q-52 21 -60 42q-4 11 -4 24q0 15 5.5 26t14.5 11h2h5q6 0 6 10q0 8 -8 72q-2 20 -2 31q0 50 18.5 96t49.5 71t78 50z" />
    <glyph glyph-name="exclam.ss01" horiz-adv-x="190"
d="M95 114q9 4 32 4q27 0 35 -5q15 -8 15 -38q0 -6 -2 -12q-3 -11 -21 -11q-11 0 -18 1q-28 1 -40.5 8t-17.5 22q-1 3 -1 8q0 15 18 23zM24 794q0 8 21 10h4q14 0 19.5 -10.5t17.5 -54.5q16 -57 23 -177q8 -104 14 -130q6 -18 9 -45q2 -17 6 -20q2 -2 2 -7q0 -9 -6.5 -23
t-13.5 -18q-4 -3 -10 -3q-8 0 -26 9q-22 11 -29.5 33.5t-12.5 89.5q-3 35 -6.5 54.5t-5 38.5t-3.5 69q-5 123 -13 142q-6 11 3 18q8 5 8 10q-1 2 -1 14z" />
    <glyph glyph-name="colon.ss01" horiz-adv-x="207"
d="M87 248q15 17 43 17q18 0 36 -7q27 -10 27 -49q0 -17 -7 -28q-8 -12 -16.5 -16.5t-29.5 -6.5q-18 -2 -24 -2q-46 0 -57 29q-7 17 -7 30q0 16 9 16q11 0 26 17zM39 538q21 11 45 11q22 0 36 -10l16 -11l-16 -29q-24 -46 -49 -46q-15 0 -38 14q-21 14 -21 26q0 6 1 10
q1 23 26 35z" />
    <glyph glyph-name="t.ss01" horiz-adv-x="530"
d="M217 701q8 4 20 4q28 0 28 -13q0 -8 11 -30q8 -17 18 -69t14 -95l3 -28l47 3q46 2 60 4q1 0 3.5 0.5t4.5 0.5q18 0 44 -8.5t36 -18.5q11 -11 11 -20q0 -13 -19 -28q-15 -12 -29 -12q-10 0 -10 7q0 5 -17 5q-4 0 -36 -2q-56 -5 -70 -9t-14 -19q0 -4 2 -20q15 -148 20 -228
q1 -11 1 -27q0 -26 -9 -34t-37 -10h-10q-13 0 -19 4t-14 18q-15 25 -17 91q-3 54 -6 88q-1 7 -1.5 30.5t-0.5 33.5l-1 43h-36q-40 0 -83 -5q-22 -3 -33 -3q-17 0 -39 19q-27 23 -27 45q0 17 17 26q9 5 20 5q10 0 21 -4q14 -5 53 -5q86 0 94 13q6 12 3 28q-7 39 -14 157
q-3 28 -3 40t3 16t11 7z" />
    <glyph glyph-name="s.ss01" horiz-adv-x="399"
d="M69 448q3 0 33 26t33 26q5 0 37 26q30 26 57 26q19 0 37 -15q14 -13 14 -18t-6 -16q-10 -18 -39 -34q-34 -19 -78 -55.5t-49 -49.5q-6 -15 -6 -24q0 -10 12 -10q11 0 61 16q46 17 88 17q27 0 37.5 -4t31.5 -22q54 -46 54 -113q0 -26 -11 -48q-13 -25 -40.5 -51.5
t-56.5 -41.5q-23 -12 -41 -16t-60 -5h-27q-35 0 -52 6.5t-43 30.5q-22 21 -22 35q0 7 1 11q3 22 8 27q1 1 2 1q11 0 34 -18q43 -33 79 -33q33 0 86 28q18 10 25.5 18t11.5 22q7 28 7 43q0 25 -10.5 40.5t-28.5 15.5t-24 -6q-7 -7 -58 -23.5t-63 -16.5q-35 0 -63 36t-28 79
q0 6 2 20q3 16 24 43t31 27z" />
    <glyph glyph-name="B.ss01" horiz-adv-x="546"
d="M16 580q4 4 15 4q23 0 36 -9q16 -12 34 -85t18 -120v-12q-1 -8 -5.5 -76t-8.5 -90q-5 -23 -15.5 -48t-16.5 -25q-8 0 -26 20l-19 19l7 66q5 62 7 166v33q0 69 -15 99q-15 32 -15 46q0 8 4 12zM526 283q0 3 -4 3q-3 0 -3 -3q0 -4 3 -4q4 0 4 4zM101 688q11 8 22 4
q28 -11 99 -11q18 0 54 2q123 10 155 10q24 0 37 -8q16 -12 16 -20q0 -11 7 -11t0 -13q-7 -19 -7 -26q0 -34 -126 -155q-75 -73 -75 -82q0 -13 100 -26q64 -9 107 -28.5t43 -40.5q0 -27 -16.5 -52.5t-63.5 -70.5q-33 -32 -116 -74.5t-124 -48.5q-18 -3 -35 -3
q-35 0 -58.5 11t-24.5 27q0 7 16.5 13.5t34.5 6.5q24 0 35 11q10 10 54 27q67 26 126.5 69t59.5 64q0 11 -111 27q-71 10 -103 51q-25 31 -25 44t14.5 29.5t55.5 52.5q135 120 135 138q0 9 -20 9q-11 0 -68 -5q-80 -7 -106 -7q-7 0 -49 2q-20 1 -25 6.5t-11 34.5
q-1 4 -9.5 14.5t-8.5 15.5q0 7 11 13z" />
    <glyph glyph-name="u.ss01" horiz-adv-x="414"
d="M28 460q18 13 24 13t26 -13q14 -9 18 -23.5t10 -80.5q16 -165 61 -200q18 -16 32 -16q11 0 38 17t41 33q12 13 24 51t12 59q0 24 -8.5 59t-18.5 49q-11 18 -11 34q0 30 30 30q22 0 42 -19q33 -30 42.5 -63t10.5 -118v-24q0 -30 -4 -41.5t-21 -38.5q-29 -42 -53.5 -63
t-61.5 -34q-29 -10 -58 -10q-56 0 -99.5 37.5t-65.5 107.5q-19 60 -24 175q-2 36 -2 41q0 25 16 38z" />
    <glyph glyph-name="U.ss01" horiz-adv-x="537"
d="M23 793q12 6 23 6q19 0 31 -18q8 -13 10 -44t3 -147q2 -180 5 -219q4 -36 15.5 -89t16.5 -58q4 -4 6 -21q2 -18 17 -29q15 -13 9 -13q-1 0 -1 -1q0 -3 15 -14t25 -15q2 -1 7 -1q17 0 48.5 9.5t44.5 18.5q27 19 65 62t50 68q14 29 25.5 95t11.5 110q0 26 -5 34q-2 3 -2 34
q0 24 -19.5 68t-38.5 61q-22 18 -22 23q0 4 -15 25q-10 14 -10 20q0 4 5 11q8 10 18 10q8 0 27 -11.5t25 -19.5q6 -6 6 -1l1 1q5 0 31.5 -34.5t34.5 -51.5q8 -18 8 -20q0 -4 -6 -9q-6 -4 -5.5 -8t7.5 -17q11 -19 15 -51q1 -12 12 -73q7 -39 7 -55q0 -20 -4 -69
q-4 -68 -25 -112q-16 -33 -50 -76.5t-45 -44.5q-10 -2 -25 -19q-17 -17 -58 -34t-67 -17q-72 0 -118 46q-57 55 -77 107q-8 23 -22.5 94.5t-14.5 87.5q0 23 -4 79q-2 40 -2 51q0 29 4 38q9 21 0 25q-4 3 -4 20q0 15 3 45q2 18 2 59q0 30 -1 40q-1 9 -1 22q0 17 8 22z" />
    <glyph glyph-name="quotesingle.ss01" horiz-adv-x="140"
d="M41 605q11 0 33 -8t29 -15q13 -11 20 -42q5 -18 5 -29q0 -13 -8 -39q-11 -35 -24 -50t-37 -19q-5 -1 -14 -1q-14 0 -23 9q-10 11 -10 21q0 14 17 48q15 30 15 48q0 12 -3 31q-4 24 -4 41q0 5 4 5z" />
    <glyph glyph-name="N.ss01" horiz-adv-x="516"
d="M425 721q17 7 26 7q18 0 36 -23q15 -19 15 -45q0 -16 -8 -30q-3 -4 -3 -50v-18v-14q0 -48 -6 -84q-18 -90 -25 -228q-4 -63 -15 -89.5t-35 -28.5h-7q-19 0 -40 24q-24 26 -24 31q0 4 -37 84q-35 71 -57 134q-18 55 -24 61l-1 1q-4 0 -9.5 -29t-12 -62t-11.5 -40
q-6 -6 -21 -59q-11 -40 -32 -104q-17 -54 -19 -70q-1 -12 -7 -14.5t-31 -4.5h-11q-54 0 -54 30q0 16 13 39q23 45 53 127q7 15 13 52q3 19 21.5 64.5t21.5 67.5q6 34 10 42q6 11 12.5 61.5t6.5 78.5q0 11 -1 13t-1 8q0 11 7 23q11 17 35 17q21 0 39 -11q13 -7 19.5 -22
t17.5 -60q15 -67 42 -139q28 -77 32 -93q9 -34 18 -34q3 0 5 6q10 26 17.5 125t7.5 184v37q0 26 24 35z" />
    </font>
</defs>
</svg>
