<svg height="203" viewBox="0 0 203 203" width="203" xmlns="http://www.w3.org/2000/svg"><path d="m163.098879 0c3.577427 0 5.988302 2.55125487 6.091432 6.53496093l.003444.26769028v56.35169179l30.311849 31.3473521c2.681746 2.7578316 3.494396 5.3318077 3.494396 8.5492779 0 5.791446-4.063251 9.928194-9.426741 9.928194-2.817187 0-5.332947-1.36391-7.402148-3.517119l-.236764-.251918-10.726347-11.10013.000333 82.858803c0 13.506322-7.675913 21.862903-20.098899 22.028684l-.377904.002513h-106.544641c-12.4378224 0-20.2381139-8.221517-20.3928759-21.623494l-.0023464-.407703-.0006667-82.847803-10.7253475 11.08913c-2.0346351 2.213075-4.4460545 3.65895-7.23425817 3.763017l-.32338792.00602c-5.3634908 0-9.50800641-4.136748-9.50800641-9.928194 0-3.1065229.75757158-5.6131655 3.22359767-8.2646069l.27079785-.284671 85.16573258-87.88289933c3.8194556-4.04481964 8.2077662-5.97530174 12.8398719-5.97530174 4.49976 0 8.769457 1.82174474 12.585601 5.63377659l.335536.34152515 27.386309 28.31373743v-28.12988199c0-4.04681807 2.333105-6.68604724 5.934201-6.79888385l.24194-.00376736zm-77.5671926 87c-.9776227 0-1.9706409.0088089-2.9790548.0264267-1.0084139.0176177-1.8705693.0675347-2.5864662.149751l-.0979162 3.175427-.0905263 3.663087-.1237809 6.1947603-.3708865 20.410693-.0558804 2.408197-.5978637.016639-.66971.026426-.7415563.036215-1.4638936.083508-1.0475188.066243-1.8089868.125282c-.3040637.022185-.6094104.045023-.9160401.068513-.919889.070471-1.8051378.161496-2.6557465.273076l-2.2920247.308311-.0638678-2.194239-.1122598-5.254989-.00862-.461152c-.0577336-3.112472-.0914116-6.159694-.1010338-9.141665l-.0028867-1.781353.006495-6.585192.0105043-3.8922428.0086601-1.4967765.019004-2.1378064.0365646-2.6500063c.0035816-.2112909.0072969-.4201961.0111458-.6267155l-.5884211.0045806-.6567776.0137418-.7251343.0229031-.7934909.0320644-.8618474.0412256c-1.1200323.0572577-2.2617146.1211222-3.425047.1915932l-1.750321.1102487-1.1048772.0759767-1.0319884.0770777-1.6577741.1398832-1.3474615.1302457-.47318.054651-.1556451.0219324-.0559369 1.2083453-.0490441 1.3296923-.0546702 1.9616849-.0329612 1.612835-.0304494 2.0485473-.0236183 2.3373394-.0141709 2.4710012-.0041346 3.668652.0088368 3.275017.0194409 3.399601.0300451 3.524183.0406491 3.648767.0159062 1.24394c.0769782 5.837355.1789743 11.751053.3059882 17.741095l.0785177 3.559495.1264367 5.209751.0900644 3.38684.0946832 3.317779.107806 3.517056.180033 5.328858.1857864 4.84385.1878611 4.293834.1333221 2.72799.1056994 1.950028.1007883 1.65612.0581156.852597 1.067841-.009866.9778921-.020348 1.129616-.031448c1.3394199-.041108 2.7558181-.111579 4.2491944-.211413l1.4619435-.102771c.2384185-.017617.4742176-.03548.7073972-.053587l1.3676453-.111579c.2227021-.019086.4427848-.038417.6602481-.057992l.682879-.065812.6252408-.069306.5676026-.072801.5099644-.076295.4523262-.07979c.0705845-.013589.1387675-.027324.2045488-.041205l-.0247168-1.496352-.1080705-4.062055-.1442163-5.101243-.5017075-19.047788-.1565735-5.08766 1.2496121-.00783 1.2917496-.019147 1.8348466-.034685c.5696384-.011745 1.1392768-.02871 1.7089152-.050896l.8544576-.037193c.6408431-.030831 1.2643662-.053403 1.8705692-.067718l.6004297-.011562c.792875-.011745 1.5010741-.041108 2.1245972-.088088l.0339987 33.04898c.0004276 1.074032.0006415 2.149368.0006415 3.22601 1.7397064 0 3.5044307-.029363 5.2941729-.088089l1.3112748-.047898 1.2492112-.055606 1.1871476-.063314 1.1250839-.071022 1.236661-.089652.7832983-.063956.6597005-.061141.371135-.039197c.0572781-.006428.1122674-.012805.1649678-.019129l.0228084-3.626216.0637921-5.790483.1428907-10.020512.0817991-5.09176.0754072-4.177929.084833-4.238332.2097262-9.569973.190521-8.012562.1970012-7.570608.1027423-3.694698.0863083-2.973493.1050657-3.35553.0729065-2.161308.1136542-3.128392.1944074-4.811812.1966791-4.4150134.1327538-2.7092986.0710184-1.31164.1175648-1.903207.0467462-.6622819.0698198-.8873504.0463467-.520852c.0077111-.0820944.0154156-.1618316.0231134-.2392116-.4156821-.0813128-.9215516-.1532433-1.5176085-.2157916l-.6261194-.0594209c-.1093636-.0093822-.2212325-.0185039-.3356065-.0273649l-.7163069-.0500386-.7764317-.0437838c-1.7474043-.0880889-3.5794845-.1321333-5.4962406-.1321333zm18.4683136 3 .064175 1.4718075.058269 1.5956111.035567 1.1325206.063259 2.4301128.052762 2.6502082.052435 3.5902258.038574 3.385849.039468 4.723476.020628 3.699363c.014917 3.34804.024862 6.703849.029834 10.067425l.003282 7.54218-.032495 30.006753-.006671 14.064071-.014003 1.15937c-.000753.029548-.001527.05675-.002323.081608l.715954.124726.836306.132172.956657.139619 1.077009.147065.385748.050676c1.700547.22139 3.555859.41365 5.565936.57678 1.722923.139825 3.3705.215445 4.94273.227216h.779836l-.00991-2.572013-.058965-6.114091-.093348-7.385072-.05221-3.593706-.092299-5.518003-.155964-8.185436-.141048-6.89383-.123497-4.964472-.0705-2.375684-.045177-1.304693-.079941-1.886615-.050751-.959243-.052842-.829699-.03639-.481163 1.460195 4.101591 1.901743 5.389054 3.714354 10.60051 2.478722 7.11944 3.25078 9.38065 2.671146 7.652554 2.636129 7.666362c.909942.256346 2.026858.428215 3.350749.515606 1.323891.08739 2.690669.131086 4.100334.131086.962151 0 1.909386-.017478 2.841704-.052435l.689449-.027309 1.320162-.061174c.213501-.010924.423738-.022212.630713-.033864l.052818-.271248c.008727-.049357.017416-.100787.026067-.154292l.051449-.345917.050535-.395696.074091-.68688.072036-.798883.069981-.910886.067926-1.022889.10113-1.782326.111878-2.249222.109081-2.479715.106285-2.710209.085851-2.428934.063086-2.017758.083559-3.134054.048325-2.160981.042421-2.218271.036516-2.27556c.067127-4.608411.10069-9.260517.10069-13.956318l-.00274-2.507582-.008219-2.568934-.022604-3.968436c-.022376-3.140245-.063398-6.286315-.123066-9.438211l-.153056-7.679471-.056191-2.58909-.054541-2.150907-.061533-2.082087-.068525-2.013267-.091992-2.364634-.111323-2.5856133-.112803-2.3429413c-.009462-.1851338-.018939-.3677397-.028432-.5478178-.604142-.2913028-1.489844-.5709535-2.657105-.8389521-1.167262-.2679986-2.446402-.5039539-3.83742-.7078659-1.391018-.2039119-2.73915-.3670415-4.044394-.4893887l-.838672-.072502c-.13453-.0105732-.266436-.0203912-.395717-.029454l-.744197-.0453137c-.356352-.0181255-.689086-.029454-.998201-.0339854l-.301242-.0022657 1.812425 54.7241459c-1.238118-4.451107-2.580655-8.951735-4.027612-13.501885s-2.985281-9.120691-4.614973-13.711623c-1.629691-4.590933-3.343291-9.164387-5.1408-13.720363-1.797508-4.555976-3.677061-9.0303869-5.638657-13.4232333-.218784-.0517872-.447789-.1029989-.687015-.1536353l-.74834-.1501828c-.649169-.1237137-1.36222-.2438312-2.139151-.3603523-1.398477-.209738-2.836111-.3816067-4.312902-.515606l-1.829892-.1578386-1.14344-.0891743c-.185474-.0137923-.368399-.0270495-.548774-.0397717l-1.171459-.0770069-.839779-.045501-.699146-.0273006-.387967-.0080891c-.059453-.0010111-.116301-.0010111-.170545-.0010111z" fill="#f2c231"/></svg>